G04*
G04 #@! TF.GenerationSoftware,Altium Limited,Altium Designer,21.3.2 (30)*
G04*
G04 Layer_Color=8388736*
%FSLAX44Y44*%
%MOMM*%
G71*
G04*
G04 #@! TF.SameCoordinates,B60BEB59-0ECC-4B8A-8E76-113AF4395072*
G04*
G04*
G04 #@! TF.FilePolarity,Negative*
G04*
G01*
G75*
%ADD28R,1.5032X0.5032*%
%ADD29R,2.4032X2.0032*%
G04:AMPARAMS|DCode=30|XSize=1.2032mm|YSize=1.0032mm|CornerRadius=0mm|HoleSize=0mm|Usage=FLASHONLY|Rotation=90.000|XOffset=0mm|YOffset=0mm|HoleType=Round|Shape=Octagon|*
%AMOCTAGOND30*
4,1,8,0.2508,0.6016,-0.2508,0.6016,-0.5016,0.3508,-0.5016,-0.3508,-0.2508,-0.6016,0.2508,-0.6016,0.5016,-0.3508,0.5016,0.3508,0.2508,0.6016,0.0*
%
%ADD30OCTAGOND30*%

%ADD31R,1.0032X1.2032*%
%ADD32R,0.7032X0.6032*%
%ADD33R,0.6032X0.7032*%
%ADD34R,0.7532X1.2032*%
%ADD35R,0.9652X0.9652*%
%ADD36R,0.4832X0.8682*%
%ADD37R,2.6032X1.9032*%
%ADD38R,4.4032X1.6032*%
%ADD39C,0.8032*%
D28*
X158750Y218830D02*
D03*
Y213830D02*
D03*
Y208830D02*
D03*
Y203830D02*
D03*
Y198830D02*
D03*
Y193830D02*
D03*
Y188830D02*
D03*
Y183830D02*
D03*
Y178830D02*
D03*
Y173830D02*
D03*
Y168830D02*
D03*
Y163830D02*
D03*
Y158830D02*
D03*
Y153830D02*
D03*
Y148830D02*
D03*
Y143830D02*
D03*
Y138830D02*
D03*
Y133830D02*
D03*
Y128830D02*
D03*
Y123830D02*
D03*
Y118830D02*
D03*
Y113830D02*
D03*
Y108830D02*
D03*
Y103830D02*
D03*
Y98830D02*
D03*
Y93830D02*
D03*
Y88830D02*
D03*
Y83830D02*
D03*
Y78830D02*
D03*
Y73830D02*
D03*
Y58830D02*
D03*
Y53830D02*
D03*
Y48830D02*
D03*
Y43830D02*
D03*
Y38830D02*
D03*
Y33830D02*
D03*
Y28830D02*
D03*
Y63830D02*
D03*
Y68830D02*
D03*
X64340Y93830D02*
D03*
Y98830D02*
D03*
Y103830D02*
D03*
Y108830D02*
D03*
Y113830D02*
D03*
Y118830D02*
D03*
Y123830D02*
D03*
Y128830D02*
D03*
Y133830D02*
D03*
Y138830D02*
D03*
Y143830D02*
D03*
Y148830D02*
D03*
Y153830D02*
D03*
Y158830D02*
D03*
Y163830D02*
D03*
Y168830D02*
D03*
Y173830D02*
D03*
Y188830D02*
D03*
Y193830D02*
D03*
Y198830D02*
D03*
Y203830D02*
D03*
Y208830D02*
D03*
Y213830D02*
D03*
Y218830D02*
D03*
Y183830D02*
D03*
Y178830D02*
D03*
D29*
X183720Y235330D02*
D03*
X183720Y12330D02*
D03*
X39370Y77330D02*
D03*
Y235330D02*
D03*
D30*
X7620Y44480D02*
D03*
D31*
Y16480D02*
D03*
D32*
X132080Y44890D02*
D03*
Y36390D02*
D03*
X90677Y47540D02*
D03*
X90678Y56539D02*
D03*
X85091Y208969D02*
D03*
X85090Y199970D02*
D03*
Y218000D02*
D03*
Y226500D02*
D03*
X132081Y217859D02*
D03*
X132080Y208860D02*
D03*
D33*
X109909Y57149D02*
D03*
X100910Y57150D02*
D03*
X111179Y187959D02*
D03*
X102180Y187960D02*
D03*
X111179Y238759D02*
D03*
X102180Y238760D02*
D03*
D34*
X119990Y16479D02*
D03*
X110491D02*
D03*
X100992D02*
D03*
Y44481D02*
D03*
X110491D02*
D03*
X119990Y44481D02*
D03*
D35*
X134619Y16661D02*
D03*
Y3661D02*
D03*
D36*
X119220Y227435D02*
D03*
X114220D02*
D03*
X109220D02*
D03*
X104220D02*
D03*
X99220D02*
D03*
Y199285D02*
D03*
X104220D02*
D03*
X109220D02*
D03*
X114220D02*
D03*
X119220D02*
D03*
D37*
X109220Y213360D02*
D03*
D38*
X53340Y6900D02*
D03*
Y43900D02*
D03*
D39*
X77185Y133838D02*
D03*
Y148852D02*
D03*
Y163830D02*
D03*
X118110Y177800D02*
D03*
X130810D02*
D03*
X143510D02*
D03*
Y147320D02*
D03*
Y128270D02*
D03*
Y107950D02*
D03*
Y89911D02*
D03*
X100330Y91440D02*
D03*
X80010Y97790D02*
D03*
X85090Y190500D02*
D03*
X105410Y68580D02*
D03*
X70790Y60035D02*
D03*
X178077Y199446D02*
D03*
X178363Y211810D02*
D03*
X42268Y113609D02*
D03*
X47433Y203694D02*
D03*
X78387Y236830D02*
D03*
X142240Y43180D02*
D03*
M02*
