G04*
G04 #@! TF.GenerationSoftware,Altium Limited,Altium Designer,21.3.2 (30)*
G04*
G04 Layer_Color=32768*
%FSLAX44Y44*%
%MOMM*%
G71*
G04*
G04 #@! TF.SameCoordinates,B60BEB59-0ECC-4B8A-8E76-113AF4395072*
G04*
G04*
G04 #@! TF.FilePolarity,Positive*
G04*
G01*
G75*
%ADD12C,0.1500*%
%ADD13C,0.2000*%
%ADD45C,0.0500*%
%ADD46C,0.0254*%
D12*
X120129Y231140D02*
G03*
X120129Y231140I-749J0D01*
G01*
D13*
X101991Y16480D02*
G03*
X101991Y16480I-1001J0D01*
G01*
D45*
X187220Y123830D02*
G03*
X187220Y123830I-3500J0D01*
G01*
X11120Y30480D02*
G03*
X11120Y30480I-3500J0D01*
G01*
X42870Y156330D02*
G03*
X42870Y156330I-3500J0D01*
G01*
X183720Y118830D02*
Y128830D01*
X178720Y123830D02*
X188720D01*
X7620Y25480D02*
Y35480D01*
X2620Y30480D02*
X12620D01*
X39370Y151330D02*
Y161330D01*
X34370Y156330D02*
X44370D01*
D46*
X133350Y40640D02*
G03*
X133350Y40640I-1270J0D01*
G01*
X106680Y57150D02*
G03*
X106680Y57150I-1270J0D01*
G01*
X91948Y52039D02*
G03*
X91948Y52039I-1270J0D01*
G01*
X135890Y10160D02*
G03*
X135890Y10160I-1270J0D01*
G01*
X107950Y187960D02*
G03*
X107950Y187960I-1270J0D01*
G01*
X86360Y204470D02*
G03*
X86360Y204470I-1270J0D01*
G01*
Y222250D02*
G03*
X86360Y222250I-1270J0D01*
G01*
X133350Y213360D02*
G03*
X133350Y213360I-1270J0D01*
G01*
X107950Y238760D02*
G03*
X107950Y238760I-1270J0D01*
G01*
X130080Y40640D02*
X134080D01*
X132008Y36986D02*
Y40986D01*
X103410Y57150D02*
X107410D01*
X105410Y55150D02*
Y59150D01*
X90678Y50039D02*
Y54039D01*
X88678Y52039D02*
X92678D01*
X132620Y10160D02*
X136620D01*
X134620Y8160D02*
Y12160D01*
X104680Y187960D02*
X108680D01*
X106680Y185960D02*
Y189960D01*
X85090Y202470D02*
Y206470D01*
X83090Y204470D02*
X87090D01*
X83090Y222250D02*
X87090D01*
X85162Y221904D02*
Y225904D01*
X132080Y211360D02*
Y215360D01*
X130080Y213360D02*
X134080D01*
X104680Y238760D02*
X108680D01*
X106680Y236760D02*
Y240760D01*
M02*
