G04*
G04 #@! TF.GenerationSoftware,Altium Limited,Altium Designer,21.3.2 (30)*
G04*
G04 Layer_Physical_Order=2*
G04 Layer_Color=16711680*
%FSLAX44Y44*%
%MOMM*%
G71*
G04*
G04 #@! TF.SameCoordinates,B60BEB59-0ECC-4B8A-8E76-113AF4395072*
G04*
G04*
G04 #@! TF.FilePolarity,Positive*
G04*
G01*
G75*
%ADD11C,0.2540*%
%ADD41C,0.3810*%
%ADD42C,0.6000*%
%ADD43C,0.3048*%
G36*
X217249Y252345D02*
X219690Y251334D01*
X221786Y249726D01*
X223394Y247630D01*
X224405Y245189D01*
X224746Y242598D01*
X224740Y242570D01*
Y0D01*
X224746Y-28D01*
X224405Y-2619D01*
X223394Y-5060D01*
X221786Y-7156D01*
X219690Y-8764D01*
X217249Y-9775D01*
X214658Y-10116D01*
X214630Y-10110D01*
X210820D01*
X2536Y-10110D01*
X2515Y-10110D01*
X1270Y-10110D01*
X62Y-9961D01*
X-1349Y-9775D01*
X-3790Y-8764D01*
X-5886Y-7156D01*
X-7494Y-5060D01*
X-8505Y-2619D01*
X-8846Y-28D01*
X-8840Y0D01*
Y240030D01*
Y243840D01*
X-8839D01*
X-8537Y246128D01*
X-7655Y248259D01*
X-6250Y250090D01*
X-4419Y251495D01*
X-2288Y252377D01*
X0Y252679D01*
Y252680D01*
X213360Y252680D01*
X214630D01*
X214658Y252686D01*
X217249Y252345D01*
D02*
G37*
%LPC*%
G36*
X78387Y241442D02*
X76622Y241091D01*
X75125Y240091D01*
X74125Y238595D01*
X73774Y236830D01*
X74125Y235065D01*
X75125Y233568D01*
X76622Y232568D01*
X78387Y232217D01*
X80152Y232568D01*
X81649Y233568D01*
X81924Y233981D01*
X164201D01*
X175514Y222668D01*
Y215347D01*
X175101Y215071D01*
X174101Y213575D01*
X173750Y211810D01*
X174101Y210045D01*
X175101Y208548D01*
X176597Y207548D01*
X178363Y207197D01*
X180128Y207548D01*
X181624Y208548D01*
X182624Y210045D01*
X182975Y211810D01*
X182624Y213575D01*
X181624Y215071D01*
X181211Y215347D01*
Y223848D01*
X180994Y224938D01*
X180377Y225862D01*
X180377Y225863D01*
X167395Y238844D01*
X166471Y239462D01*
X165381Y239678D01*
X165381Y239678D01*
X81924D01*
X81649Y240091D01*
X80152Y241091D01*
X78387Y241442D01*
D02*
G37*
G36*
X47433Y208307D02*
X45668Y207955D01*
X44172Y206956D01*
X43172Y205459D01*
X42821Y203694D01*
X43172Y201929D01*
X44172Y200432D01*
X45668Y199432D01*
X46939Y199180D01*
X47439Y197894D01*
X47439Y197884D01*
X40982Y191427D01*
X40309Y190419D01*
X40072Y189230D01*
Y125730D01*
X40309Y124541D01*
X40982Y123532D01*
X47583Y116932D01*
X47491Y116175D01*
X46179Y115899D01*
X45530Y116870D01*
X44033Y117870D01*
X42268Y118222D01*
X40503Y117870D01*
X39007Y116870D01*
X38007Y115374D01*
X37655Y113609D01*
X38007Y111844D01*
X38772Y110698D01*
Y98702D01*
X39038Y97364D01*
X39796Y96230D01*
X59758Y76268D01*
X60892Y75510D01*
X62230Y75244D01*
X114467D01*
X138744Y50967D01*
Y46091D01*
X137978Y44945D01*
X137627Y43180D01*
X137978Y41415D01*
X138978Y39918D01*
X140475Y38918D01*
X142240Y38567D01*
X144005Y38918D01*
X145502Y39918D01*
X146502Y41415D01*
X146853Y43180D01*
X146502Y44945D01*
X145736Y46091D01*
Y52415D01*
X145470Y53753D01*
X144712Y54887D01*
X144712Y54887D01*
X118387Y81212D01*
X117253Y81970D01*
X115915Y82236D01*
X63678D01*
X45764Y100150D01*
Y110687D01*
X46453Y111683D01*
X47045Y111679D01*
X47692Y111472D01*
Y102870D01*
X47929Y101681D01*
X48602Y100673D01*
X53682Y95592D01*
X54691Y94919D01*
X55880Y94682D01*
X76645D01*
X76748Y94528D01*
X78245Y93528D01*
X80010Y93177D01*
X81775Y93528D01*
X83272Y94528D01*
X84271Y96025D01*
X84623Y97790D01*
X84271Y99555D01*
X83272Y101052D01*
X81775Y102051D01*
X80010Y102403D01*
X78245Y102051D01*
X76748Y101052D01*
X76645Y100898D01*
X57167D01*
X53908Y104157D01*
Y118110D01*
X53671Y119299D01*
X52997Y120308D01*
X46288Y127017D01*
Y187943D01*
X52087Y193742D01*
X80367D01*
X81235Y192874D01*
X80829Y192265D01*
X80477Y190500D01*
X80829Y188735D01*
X81828Y187238D01*
X83325Y186238D01*
X85090Y185887D01*
X86855Y186238D01*
X88352Y187238D01*
X89352Y188735D01*
X89703Y190500D01*
X89352Y192265D01*
X88352Y193762D01*
X87669Y194217D01*
X87501Y195063D01*
X86827Y196072D01*
X83852Y199048D01*
X83062Y199575D01*
X83179Y200598D01*
X83273Y200845D01*
X171713D01*
X173552Y199006D01*
X173816Y197681D01*
X174816Y196185D01*
X176312Y195185D01*
X178077Y194834D01*
X179842Y195185D01*
X181339Y196185D01*
X182339Y197681D01*
X182690Y199446D01*
X182339Y201211D01*
X181339Y202708D01*
X179842Y203708D01*
X178077Y204059D01*
X176809Y203807D01*
X174907Y205708D01*
X173983Y206326D01*
X172893Y206543D01*
X172893Y206543D01*
X50971D01*
X50695Y206956D01*
X49198Y207955D01*
X47433Y208307D01*
D02*
G37*
G36*
X105410Y73193D02*
X103645Y72842D01*
X102499Y72076D01*
X74930D01*
X73592Y71810D01*
X72458Y71052D01*
X68468Y67062D01*
X67710Y65928D01*
X67444Y64590D01*
Y63169D01*
X66529Y61800D01*
X66178Y60035D01*
X66529Y58270D01*
X67529Y56773D01*
X69025Y55773D01*
X70790Y55422D01*
X72555Y55773D01*
X74052Y56773D01*
X75052Y58270D01*
X75403Y60035D01*
X75052Y61800D01*
X74436Y62721D01*
Y63142D01*
X76378Y65084D01*
X102499D01*
X103645Y64318D01*
X105410Y63967D01*
X107175Y64318D01*
X108672Y65318D01*
X109671Y66815D01*
X110023Y68580D01*
X109671Y70345D01*
X108672Y71842D01*
X107175Y72842D01*
X105410Y73193D01*
D02*
G37*
%LPD*%
D11*
X172893Y203694D02*
X177141Y199446D01*
X178077D01*
X47433Y203694D02*
X172893D01*
X178363Y211810D02*
Y223848D01*
X78387Y236830D02*
X165381D01*
X178363Y223848D01*
D41*
X142240Y43180D02*
Y52415D01*
X115915Y78740D02*
X142240Y52415D01*
X62230Y78740D02*
X115915D01*
X42268Y98702D02*
Y113609D01*
Y98702D02*
X62230Y78740D01*
X70940Y64590D02*
X74930Y68580D01*
X70790Y60035D02*
X70940Y60184D01*
X74930Y68580D02*
X105410D01*
X70940Y60184D02*
Y64590D01*
D42*
X77185Y133838D02*
D03*
Y148852D02*
D03*
Y163830D02*
D03*
X118110Y177800D02*
D03*
X130810D02*
D03*
X143510D02*
D03*
Y147320D02*
D03*
Y128270D02*
D03*
Y107950D02*
D03*
Y89911D02*
D03*
X100330Y91440D02*
D03*
X80010Y97790D02*
D03*
X85090Y190500D02*
D03*
X105410Y68580D02*
D03*
X70790Y60035D02*
D03*
X178077Y199446D02*
D03*
X178363Y211810D02*
D03*
X42268Y113609D02*
D03*
X47433Y203694D02*
D03*
X78387Y236830D02*
D03*
X142240Y43180D02*
D03*
D43*
X81654Y196850D02*
X84630Y193874D01*
X50800Y196850D02*
X81654D01*
X84630Y191209D02*
X85090Y190749D01*
X84630Y191209D02*
Y193874D01*
X85090Y190500D02*
Y190749D01*
X43180Y189230D02*
X50800Y196850D01*
X43180Y125730D02*
Y189230D01*
Y125730D02*
X50800Y118110D01*
Y102870D02*
Y118110D01*
Y102870D02*
X55880Y97790D01*
X80010D01*
M02*
