M48
;Layer_Color=9474304
;FILE_FORMAT=4:4
METRIC,LZ
;TYPE=PLATED
T1F00S00C0.3000
%
T01
X0007079Y00060035
X0010541Y0006858
X0010033Y0009144
X0008001Y0009779
X00077185Y00133838
Y00148852
X00042268Y00113609
X0014351Y0010795
Y00089911
Y0012827
Y0014732
X0014224Y0004318
X0014351Y001778
X0013081
X00178077Y00199446
X00178363Y0021181
X0011811Y001778
X0008509Y001905
X00077185Y0016383
X00047433Y00203694
X00078387Y0023683
M30
