G04*
G04 #@! TF.GenerationSoftware,Altium Limited,Altium Designer,21.3.2 (30)*
G04*
G04 Layer_Physical_Order=3*
G04 Layer_Color=128*
%FSLAX44Y44*%
%MOMM*%
G71*
G04*
G04 #@! TF.SameCoordinates,B628278F-7F55-4BD0-9F56-58D37DFBE93C*
G04*
G04*
G04 #@! TF.FilePolarity,Negative*
G04*
G01*
G75*
%ADD78C,1.2192*%
%ADD83C,1.1580*%
%ADD84C,0.8080*%
%ADD85C,1.0160*%
D78*
X379899Y55570D02*
D03*
Y73350D02*
D03*
D83*
X36499Y72099D02*
D03*
Y14299D02*
D03*
D84*
X257561Y33165D02*
D03*
X247875Y39448D02*
D03*
X233012Y40872D02*
D03*
X252824Y22880D02*
D03*
X344667Y10329D02*
D03*
X292274Y9400D02*
D03*
X228094Y25420D02*
D03*
X366973Y37339D02*
D03*
X201533Y123878D02*
D03*
X193572D02*
D03*
X249684Y99080D02*
D03*
X256295Y167753D02*
D03*
X209611Y235689D02*
D03*
X267838Y115453D02*
D03*
X267464Y107970D02*
D03*
X251783Y195429D02*
D03*
X284317Y165327D02*
D03*
X230877Y206592D02*
D03*
X215499Y160991D02*
D03*
X212854Y152420D02*
D03*
X282704Y247864D02*
D03*
X104888Y2560D02*
D03*
X84097Y5524D02*
D03*
X33501Y32793D02*
D03*
X33421Y25473D02*
D03*
X100586Y254782D02*
D03*
X106174Y260370D02*
D03*
X56827Y254859D02*
D03*
X49532Y254782D02*
D03*
X223844Y272630D02*
D03*
X122046Y278842D02*
D03*
X390224Y250639D02*
D03*
X381562Y250897D02*
D03*
X193105Y77384D02*
D03*
Y85809D02*
D03*
X314454Y263890D02*
D03*
Y270530D02*
D03*
X346204Y140990D02*
D03*
X338584D02*
D03*
X87695Y79860D02*
D03*
X87873Y91338D02*
D03*
X276354Y284500D02*
D03*
X267464D02*
D03*
X79504Y31770D02*
D03*
X71884D02*
D03*
X286490Y107945D02*
D03*
X261090Y100325D02*
D03*
X215346Y64309D02*
D03*
X201953Y33295D02*
D03*
X207675D02*
D03*
X129034Y246400D02*
D03*
X111254Y250210D02*
D03*
X227153Y249966D02*
D03*
X234271Y264834D02*
D03*
X120144Y241320D02*
D03*
X238716Y96239D02*
D03*
X357634Y8910D02*
D03*
X379303Y131413D02*
D03*
X385929Y139932D02*
D03*
X388153Y237781D02*
D03*
X258345Y40471D02*
D03*
X210314Y201950D02*
D03*
X217934Y247670D02*
D03*
X285244Y69870D02*
D03*
X136654Y77730D02*
D03*
X145544D02*
D03*
Y24150D02*
D03*
X136654D02*
D03*
X264144Y194572D02*
D03*
X283564Y224523D02*
D03*
X264144Y207572D02*
D03*
X283564Y199543D02*
D03*
X264144Y201072D02*
D03*
X283641Y208289D02*
D03*
X285068Y214459D02*
D03*
X264144Y221727D02*
D03*
X283103Y191656D02*
D03*
X264144Y214072D02*
D03*
X354993Y165693D02*
D03*
X355094Y172429D02*
D03*
Y225445D02*
D03*
Y232430D02*
D03*
Y202430D02*
D03*
Y193850D02*
D03*
Y178850D02*
D03*
Y187429D02*
D03*
X378814Y217430D02*
D03*
Y208850D02*
D03*
D85*
X416054Y-11410D02*
G03*
X428754Y1290I0J12700D01*
G01*
Y292120D02*
G03*
X416054Y304820I-12700J0D01*
G01*
X-27176D02*
G03*
X-39876Y292120I0J-12700D01*
G01*
Y1290D02*
G03*
X-27176Y-11410I12700J0D01*
G01*
X416054D01*
X428754Y1290D02*
Y292120D01*
X-27176Y304820D02*
X416054D01*
X-39876Y1290D02*
Y292120D01*
M02*
