G04*
G04 #@! TF.GenerationSoftware,Altium Limited,Altium Designer,21.3.2 (30)*
G04*
G04 Layer_Color=32896*
%FSLAX44Y44*%
%MOMM*%
G71*
G04*
G04 #@! TF.SameCoordinates,B628278F-7F55-4BD0-9F56-58D37DFBE93C*
G04*
G04*
G04 #@! TF.FilePolarity,Positive*
G04*
G01*
G75*
G36*
X336044Y221000D02*
X188724D01*
Y243860D01*
X336044D01*
Y221000D01*
D02*
G37*
G36*
X265089Y150478D02*
X263690D01*
Y152074D01*
X265089D01*
Y150478D01*
D02*
G37*
G36*
X275096Y140685D02*
X273615D01*
X271953Y147038D01*
X271623Y145623D01*
X270307Y140685D01*
X268875D01*
X266274Y148947D01*
X267640D01*
X269056Y144158D01*
X269533Y142561D01*
X269945Y144141D01*
X271179Y148947D01*
X272611D01*
X273928Y144092D01*
X273993Y143812D01*
X274059Y143565D01*
X274109Y143351D01*
X274158Y143170D01*
X274207Y143006D01*
X274240Y142874D01*
X274273Y142759D01*
X274290Y142660D01*
X274306Y142578D01*
X274323Y142528D01*
X274339Y142446D01*
X274356Y142413D01*
Y142396D01*
X274816Y144174D01*
X276133Y148947D01*
X277598D01*
X275096Y140685D01*
D02*
G37*
G36*
X252465Y150988D02*
Y148947D01*
X253502D01*
Y147861D01*
X252465D01*
Y143088D01*
Y142857D01*
Y142660D01*
X252448Y142479D01*
X252432Y142298D01*
Y142150D01*
X252416Y142018D01*
X252383Y141804D01*
X252350Y141639D01*
X252333Y141524D01*
X252300Y141458D01*
Y141442D01*
X252234Y141294D01*
X252136Y141179D01*
X252037Y141063D01*
X251955Y140981D01*
X251856Y140899D01*
X251790Y140849D01*
X251741Y140816D01*
X251724Y140800D01*
X251543Y140718D01*
X251362Y140668D01*
X251165Y140619D01*
X250967Y140603D01*
X250802Y140586D01*
X250671Y140569D01*
X250539D01*
X250177Y140586D01*
X249996Y140603D01*
X249831Y140635D01*
X249683Y140652D01*
X249568Y140668D01*
X249502Y140685D01*
X249469D01*
X249650Y141919D01*
X249782Y141903D01*
X249914Y141886D01*
X250029D01*
X250111Y141870D01*
X250276D01*
X250490Y141886D01*
X250638Y141919D01*
X250720Y141952D01*
X250753Y141969D01*
X250868Y142051D01*
X250934Y142133D01*
X250984Y142199D01*
X251000Y142232D01*
X251017Y142314D01*
X251033Y142429D01*
X251049Y142693D01*
X251066Y142808D01*
Y142907D01*
Y142973D01*
Y143006D01*
Y147861D01*
X249650D01*
Y148947D01*
X251066D01*
Y151828D01*
X252465Y150988D01*
D02*
G37*
G36*
X245206Y149112D02*
X245503Y149079D01*
X245783Y149030D01*
X246046Y148947D01*
X246293Y148865D01*
X246523Y148766D01*
X246737Y148667D01*
X246918Y148552D01*
X247099Y148454D01*
X247247Y148338D01*
X247379Y148239D01*
X247478Y148157D01*
X247560Y148075D01*
X247626Y148026D01*
X247659Y147993D01*
X247675Y147976D01*
X247856Y147746D01*
X248021Y147499D01*
X248169Y147252D01*
X248301Y146989D01*
X248400Y146709D01*
X248482Y146446D01*
X248613Y145919D01*
X248663Y145688D01*
X248696Y145458D01*
X248712Y145260D01*
X248729Y145079D01*
X248745Y144931D01*
Y144832D01*
Y144750D01*
Y144734D01*
X248729Y144372D01*
X248696Y144026D01*
X248646Y143697D01*
X248580Y143400D01*
X248498Y143121D01*
X248416Y142857D01*
X248317Y142627D01*
X248218Y142413D01*
X248120Y142232D01*
X248021Y142067D01*
X247939Y141936D01*
X247856Y141820D01*
X247791Y141722D01*
X247741Y141656D01*
X247708Y141623D01*
X247692Y141606D01*
X247478Y141409D01*
X247264Y141244D01*
X247033Y141096D01*
X246786Y140964D01*
X246556Y140866D01*
X246309Y140767D01*
X245848Y140635D01*
X245634Y140602D01*
X245437Y140569D01*
X245256Y140537D01*
X245108Y140520D01*
X244992Y140504D01*
X244811D01*
X244301Y140537D01*
X243840Y140619D01*
X243429Y140718D01*
X243264Y140784D01*
X243100Y140849D01*
X242952Y140915D01*
X242820Y140981D01*
X242721Y141030D01*
X242622Y141080D01*
X242556Y141129D01*
X242507Y141162D01*
X242474Y141195D01*
X242458D01*
X242129Y141491D01*
X241865Y141804D01*
X241635Y142133D01*
X241470Y142446D01*
X241339Y142726D01*
X241289Y142857D01*
X241240Y142956D01*
X241207Y143055D01*
X241190Y143121D01*
X241174Y143154D01*
Y143170D01*
X242622Y143351D01*
X242754Y143038D01*
X242902Y142775D01*
X243050Y142545D01*
X243182Y142364D01*
X243297Y142232D01*
X243396Y142133D01*
X243478Y142067D01*
X243495Y142051D01*
X243709Y141919D01*
X243923Y141820D01*
X244153Y141755D01*
X244350Y141705D01*
X244532Y141672D01*
X244680Y141656D01*
X244811D01*
X245009Y141672D01*
X245190Y141689D01*
X245519Y141771D01*
X245815Y141886D01*
X246079Y142018D01*
X246276Y142133D01*
X246424Y142248D01*
X246523Y142331D01*
X246540Y142364D01*
X246556D01*
X246786Y142660D01*
X246968Y142989D01*
X247099Y143351D01*
X247198Y143680D01*
X247247Y143977D01*
X247280Y144108D01*
X247297Y144223D01*
Y144322D01*
X247313Y144388D01*
Y144437D01*
Y144454D01*
X241141D01*
X241124Y144619D01*
Y144734D01*
Y144799D01*
Y144816D01*
X241141Y145195D01*
X241174Y145540D01*
X241223Y145869D01*
X241289Y146182D01*
X241371Y146462D01*
X241454Y146725D01*
X241553Y146956D01*
X241651Y147170D01*
X241750Y147367D01*
X241849Y147532D01*
X241931Y147663D01*
X242013Y147779D01*
X242079Y147877D01*
X242129Y147943D01*
X242161Y147976D01*
X242178Y147993D01*
X242375Y148190D01*
X242589Y148371D01*
X242820Y148519D01*
X243050Y148651D01*
X243281Y148766D01*
X243495Y148848D01*
X243725Y148931D01*
X243923Y148980D01*
X244137Y149030D01*
X244318Y149062D01*
X244482Y149095D01*
X244614Y149112D01*
X244729Y149128D01*
X244894D01*
X245206Y149112D01*
D02*
G37*
G36*
X226739D02*
X227101Y149046D01*
X227447Y148964D01*
X227727Y148881D01*
X227974Y148783D01*
X228072Y148733D01*
X228155Y148700D01*
X228221Y148667D01*
X228270Y148635D01*
X228303Y148618D01*
X228319D01*
X228632Y148421D01*
X228912Y148174D01*
X229142Y147927D01*
X229340Y147680D01*
X229488Y147466D01*
X229587Y147285D01*
X229620Y147219D01*
X229652Y147170D01*
X229669Y147137D01*
Y147120D01*
X229817Y146725D01*
X229916Y146330D01*
X229998Y145935D01*
X230047Y145573D01*
X230064Y145408D01*
X230080Y145260D01*
Y145129D01*
X230097Y145014D01*
Y144915D01*
Y144849D01*
Y144799D01*
Y144783D01*
X230080Y144404D01*
X230047Y144059D01*
X229998Y143713D01*
X229932Y143417D01*
X229866Y143121D01*
X229768Y142874D01*
X229685Y142627D01*
X229587Y142413D01*
X229488Y142232D01*
X229406Y142067D01*
X229307Y141919D01*
X229241Y141804D01*
X229175Y141722D01*
X229126Y141656D01*
X229093Y141623D01*
X229076Y141606D01*
X228879Y141409D01*
X228665Y141244D01*
X228451Y141096D01*
X228221Y140964D01*
X227990Y140866D01*
X227776Y140767D01*
X227332Y140635D01*
X227134Y140602D01*
X226953Y140569D01*
X226789Y140537D01*
X226640Y140520D01*
X226525Y140504D01*
X226361D01*
X226114Y140520D01*
X225867Y140537D01*
X225439Y140635D01*
X225044Y140751D01*
X224715Y140899D01*
X224583Y140981D01*
X224451Y141047D01*
X224336Y141113D01*
X224254Y141179D01*
X224188Y141228D01*
X224139Y141261D01*
X224106Y141277D01*
X224089Y141294D01*
X223925Y141458D01*
X223776Y141623D01*
X223513Y141985D01*
X223299Y142364D01*
X223151Y142709D01*
X223036Y143038D01*
X223003Y143170D01*
X222970Y143302D01*
X222954Y143400D01*
X222937Y143466D01*
X222921Y143516D01*
Y143532D01*
X224303Y143713D01*
X224369Y143351D01*
X224468Y143022D01*
X224599Y142759D01*
X224715Y142545D01*
X224830Y142364D01*
X224929Y142248D01*
X224978Y142166D01*
X225011Y142150D01*
X225225Y141985D01*
X225455Y141870D01*
X225686Y141771D01*
X225900Y141722D01*
X226081Y141689D01*
X226245Y141672D01*
X226344Y141656D01*
X226377D01*
X226558Y141672D01*
X226739Y141689D01*
X227068Y141771D01*
X227348Y141886D01*
X227595Y142034D01*
X227776Y142166D01*
X227924Y142281D01*
X228006Y142364D01*
X228039Y142396D01*
X228155Y142545D01*
X228253Y142726D01*
X228402Y143088D01*
X228517Y143499D01*
X228583Y143894D01*
X228632Y144256D01*
X228648Y144404D01*
Y144553D01*
X228665Y144651D01*
Y144750D01*
Y144799D01*
Y144816D01*
Y145112D01*
X228632Y145392D01*
X228599Y145655D01*
X228566Y145886D01*
X228517Y146100D01*
X228451Y146297D01*
X228402Y146478D01*
X228336Y146643D01*
X228270Y146775D01*
X228221Y146890D01*
X228155Y146989D01*
X228105Y147071D01*
X228072Y147137D01*
X228039Y147186D01*
X228006Y147203D01*
Y147219D01*
X227875Y147351D01*
X227743Y147466D01*
X227463Y147663D01*
X227167Y147795D01*
X226904Y147877D01*
X226657Y147943D01*
X226476Y147960D01*
X226394Y147976D01*
X226295D01*
X226048Y147960D01*
X225818Y147910D01*
X225620Y147844D01*
X225439Y147762D01*
X225307Y147680D01*
X225192Y147614D01*
X225126Y147565D01*
X225110Y147548D01*
X224945Y147384D01*
X224797Y147186D01*
X224665Y146972D01*
X224583Y146775D01*
X224501Y146594D01*
X224451Y146446D01*
X224435Y146347D01*
X224418Y146330D01*
Y146314D01*
X223052Y146528D01*
X223167Y146972D01*
X223332Y147351D01*
X223513Y147680D01*
X223694Y147943D01*
X223875Y148157D01*
X224023Y148305D01*
X224122Y148404D01*
X224139Y148437D01*
X224155D01*
X224501Y148667D01*
X224863Y148832D01*
X225225Y148964D01*
X225571Y149046D01*
X225883Y149095D01*
X226015Y149112D01*
X226114D01*
X226213Y149128D01*
X226344D01*
X226739Y149112D01*
D02*
G37*
G36*
X287885Y149112D02*
X288050Y149079D01*
X288214Y149030D01*
X288346Y148980D01*
X288445Y148931D01*
X288543Y148881D01*
X288593Y148848D01*
X288609Y148832D01*
X288757Y148700D01*
X288906Y148536D01*
X289054Y148338D01*
X289185Y148157D01*
X289317Y147976D01*
X289399Y147828D01*
X289465Y147713D01*
X289482Y147696D01*
Y148947D01*
X290749D01*
Y140685D01*
X289350D01*
Y144997D01*
X289333Y145326D01*
X289317Y145623D01*
X289284Y145902D01*
X289235Y146149D01*
X289185Y146347D01*
X289153Y146495D01*
X289136Y146594D01*
X289119Y146627D01*
X289054Y146808D01*
X288971Y146956D01*
X288889Y147087D01*
X288807Y147203D01*
X288724Y147285D01*
X288675Y147351D01*
X288626Y147384D01*
X288609Y147400D01*
X288478Y147499D01*
X288330Y147565D01*
X288181Y147614D01*
X288066Y147647D01*
X287951Y147663D01*
X287869Y147680D01*
X287786D01*
X287605Y147663D01*
X287424Y147631D01*
X287243Y147581D01*
X287095Y147532D01*
X286963Y147482D01*
X286865Y147433D01*
X286799Y147400D01*
X286782Y147384D01*
X286272Y148667D01*
X286552Y148816D01*
X286815Y148931D01*
X287046Y149013D01*
X287260Y149079D01*
X287441Y149112D01*
X287589Y149128D01*
X287704D01*
X287885Y149112D01*
D02*
G37*
G36*
X265089Y140685D02*
X263690D01*
Y148947D01*
X265089D01*
Y140685D01*
D02*
G37*
G36*
X257995Y149112D02*
X258291Y149062D01*
X258555Y148997D01*
X258818Y148914D01*
X259049Y148816D01*
X259263Y148700D01*
X259460Y148569D01*
X259625Y148454D01*
X259789Y148322D01*
X259921Y148190D01*
X260036Y148075D01*
X260135Y147976D01*
X260201Y147894D01*
X260250Y147828D01*
X260283Y147779D01*
X260299Y147762D01*
Y148947D01*
X261550D01*
Y140685D01*
X260151D01*
Y145178D01*
Y145458D01*
X260118Y145738D01*
X260086Y145968D01*
X260053Y146182D01*
X260003Y146380D01*
X259954Y146561D01*
X259888Y146725D01*
X259822Y146857D01*
X259773Y146972D01*
X259707Y147071D01*
X259658Y147153D01*
X259608Y147219D01*
X259542Y147301D01*
X259509Y147334D01*
X259263Y147532D01*
X258999Y147663D01*
X258736Y147762D01*
X258505Y147844D01*
X258291Y147877D01*
X258127Y147894D01*
X258061Y147910D01*
X257979D01*
X257781Y147894D01*
X257584Y147877D01*
X257419Y147828D01*
X257287Y147779D01*
X257172Y147729D01*
X257073Y147696D01*
X257024Y147663D01*
X257008Y147647D01*
X256859Y147548D01*
X256728Y147433D01*
X256629Y147318D01*
X256547Y147219D01*
X256497Y147120D01*
X256448Y147038D01*
X256415Y146989D01*
Y146972D01*
X256366Y146791D01*
X256316Y146594D01*
X256283Y146380D01*
X256267Y146166D01*
X256250Y145985D01*
Y145836D01*
Y145721D01*
Y145705D01*
Y145688D01*
Y140685D01*
X254851D01*
Y145754D01*
Y146100D01*
X254868Y146380D01*
X254884Y146610D01*
Y146808D01*
X254901Y146939D01*
X254917Y147038D01*
X254934Y147104D01*
Y147120D01*
X254983Y147334D01*
X255065Y147532D01*
X255131Y147696D01*
X255197Y147861D01*
X255279Y147976D01*
X255329Y148059D01*
X255362Y148124D01*
X255378Y148141D01*
X255510Y148305D01*
X255658Y148437D01*
X255806Y148569D01*
X255971Y148667D01*
X256102Y148750D01*
X256218Y148799D01*
X256283Y148832D01*
X256316Y148848D01*
X256547Y148947D01*
X256794Y149013D01*
X257024Y149062D01*
X257238Y149095D01*
X257419Y149112D01*
X257551Y149128D01*
X257682D01*
X257995Y149112D01*
D02*
G37*
G36*
X236565Y149112D02*
X236730Y149079D01*
X236894Y149030D01*
X237026Y148980D01*
X237125Y148931D01*
X237224Y148881D01*
X237273Y148848D01*
X237290Y148832D01*
X237438Y148700D01*
X237586Y148536D01*
X237734Y148338D01*
X237866Y148157D01*
X237997Y147976D01*
X238080Y147828D01*
X238145Y147713D01*
X238162Y147696D01*
Y148947D01*
X239429D01*
Y140685D01*
X238030D01*
Y144997D01*
X238014Y145326D01*
X237997Y145623D01*
X237964Y145902D01*
X237915Y146149D01*
X237866Y146347D01*
X237833Y146495D01*
X237816Y146594D01*
X237800Y146627D01*
X237734Y146808D01*
X237652Y146956D01*
X237569Y147087D01*
X237487Y147203D01*
X237405Y147285D01*
X237355Y147351D01*
X237306Y147384D01*
X237290Y147400D01*
X237158Y147499D01*
X237010Y147565D01*
X236862Y147614D01*
X236746Y147647D01*
X236631Y147663D01*
X236549Y147680D01*
X236467D01*
X236285Y147663D01*
X236105Y147631D01*
X235923Y147581D01*
X235775Y147532D01*
X235644Y147482D01*
X235545Y147433D01*
X235479Y147400D01*
X235462Y147384D01*
X234952Y148667D01*
X235232Y148816D01*
X235495Y148931D01*
X235726Y149013D01*
X235940Y149079D01*
X236121Y149112D01*
X236269Y149128D01*
X236384D01*
X236565Y149112D01*
D02*
G37*
G36*
X233718Y140685D02*
X232121D01*
Y142281D01*
X233718D01*
Y140685D01*
D02*
G37*
G36*
X218164Y149112D02*
X218460Y149062D01*
X218724Y148997D01*
X218987Y148914D01*
X219217Y148816D01*
X219431Y148700D01*
X219629Y148569D01*
X219793Y148454D01*
X219958Y148322D01*
X220090Y148190D01*
X220205Y148075D01*
X220304Y147976D01*
X220369Y147894D01*
X220419Y147828D01*
X220452Y147779D01*
X220468Y147762D01*
Y148947D01*
X221719D01*
Y140685D01*
X220320D01*
Y145178D01*
Y145458D01*
X220287Y145738D01*
X220254Y145968D01*
X220221Y146182D01*
X220172Y146380D01*
X220123Y146561D01*
X220057Y146725D01*
X219991Y146857D01*
X219942Y146972D01*
X219876Y147071D01*
X219826Y147153D01*
X219777Y147219D01*
X219711Y147301D01*
X219678Y147334D01*
X219431Y147532D01*
X219168Y147663D01*
X218905Y147762D01*
X218674Y147844D01*
X218460Y147877D01*
X218296Y147894D01*
X218230Y147910D01*
X218148D01*
X217950Y147894D01*
X217752Y147877D01*
X217588Y147828D01*
X217456Y147779D01*
X217341Y147729D01*
X217242Y147696D01*
X217193Y147663D01*
X217176Y147647D01*
X217028Y147548D01*
X216897Y147433D01*
X216798Y147318D01*
X216716Y147219D01*
X216666Y147120D01*
X216617Y147038D01*
X216584Y146989D01*
Y146972D01*
X216535Y146791D01*
X216485Y146594D01*
X216452Y146380D01*
X216436Y146166D01*
X216419Y145985D01*
Y145836D01*
Y145721D01*
Y145705D01*
Y145688D01*
Y140685D01*
X215020D01*
Y145754D01*
Y146100D01*
X215037Y146380D01*
X215053Y146610D01*
Y146808D01*
X215070Y146939D01*
X215086Y147038D01*
X215103Y147104D01*
Y147120D01*
X215152Y147334D01*
X215234Y147532D01*
X215300Y147696D01*
X215366Y147861D01*
X215448Y147976D01*
X215497Y148059D01*
X215530Y148124D01*
X215547Y148141D01*
X215679Y148305D01*
X215827Y148437D01*
X215975Y148569D01*
X216139Y148667D01*
X216271Y148750D01*
X216386Y148799D01*
X216452Y148832D01*
X216485Y148848D01*
X216716Y148947D01*
X216962Y149013D01*
X217193Y149062D01*
X217407Y149095D01*
X217588Y149112D01*
X217719Y149128D01*
X217851D01*
X218164Y149112D01*
D02*
G37*
G36*
X282371Y149112D02*
X282635Y149095D01*
X283145Y148980D01*
X283589Y148832D01*
X283787Y148750D01*
X283968Y148667D01*
X284132Y148585D01*
X284264Y148503D01*
X284396Y148421D01*
X284494Y148355D01*
X284577Y148289D01*
X284643Y148239D01*
X284676Y148223D01*
X284692Y148207D01*
X284922Y147993D01*
X285103Y147746D01*
X285285Y147482D01*
X285416Y147219D01*
X285548Y146939D01*
X285647Y146643D01*
X285729Y146363D01*
X285795Y146100D01*
X285861Y145836D01*
X285893Y145606D01*
X285926Y145376D01*
X285943Y145195D01*
Y145030D01*
X285959Y144915D01*
Y144849D01*
Y144816D01*
X285943Y144438D01*
X285910Y144075D01*
X285861Y143746D01*
X285795Y143433D01*
X285713Y143154D01*
X285630Y142890D01*
X285531Y142643D01*
X285433Y142429D01*
X285334Y142232D01*
X285235Y142067D01*
X285153Y141936D01*
X285071Y141820D01*
X285005Y141722D01*
X284955Y141656D01*
X284922Y141623D01*
X284906Y141607D01*
X284692Y141409D01*
X284478Y141244D01*
X284248Y141096D01*
X284017Y140965D01*
X283787Y140866D01*
X283540Y140767D01*
X283095Y140635D01*
X282898Y140603D01*
X282701Y140569D01*
X282536Y140537D01*
X282388Y140520D01*
X282256Y140504D01*
X282092D01*
X281696Y140520D01*
X281334Y140586D01*
X280989Y140668D01*
X280709Y140751D01*
X280462Y140849D01*
X280363Y140882D01*
X280281Y140915D01*
X280199Y140948D01*
X280149Y140981D01*
X280133Y140997D01*
X280116D01*
X279787Y141212D01*
X279507Y141442D01*
X279261Y141672D01*
X279063Y141903D01*
X278915Y142100D01*
X278800Y142265D01*
X278767Y142331D01*
X278734Y142380D01*
X278717Y142396D01*
Y142413D01*
X278553Y142792D01*
X278438Y143203D01*
X278339Y143615D01*
X278289Y144026D01*
X278256Y144207D01*
Y144372D01*
X278240Y144536D01*
X278223Y144668D01*
Y144783D01*
Y144865D01*
Y144915D01*
Y144931D01*
X278240Y145293D01*
X278273Y145623D01*
X278322Y145935D01*
X278388Y146231D01*
X278470Y146511D01*
X278569Y146758D01*
X278668Y147005D01*
X278767Y147203D01*
X278866Y147384D01*
X278964Y147548D01*
X279063Y147696D01*
X279145Y147812D01*
X279211Y147894D01*
X279261Y147960D01*
X279293Y147993D01*
X279310Y148009D01*
X279524Y148207D01*
X279738Y148371D01*
X279968Y148536D01*
X280199Y148651D01*
X280429Y148766D01*
X280660Y148848D01*
X281104Y148997D01*
X281318Y149030D01*
X281499Y149062D01*
X281663Y149095D01*
X281812Y149112D01*
X281927Y149128D01*
X282092D01*
X282371Y149112D01*
D02*
G37*
G36*
X296230D02*
X296493Y149079D01*
X296724Y149030D01*
X296921Y148964D01*
X297086Y148898D01*
X297218Y148848D01*
X297283Y148816D01*
X297316Y148799D01*
X297514Y148667D01*
X297711Y148519D01*
X297876Y148371D01*
X298024Y148207D01*
X298156Y148075D01*
X298238Y147960D01*
X298304Y147894D01*
X298320Y147861D01*
Y148947D01*
X299588D01*
Y137525D01*
X298189D01*
Y141541D01*
X298057Y141376D01*
X297909Y141228D01*
X297744Y141096D01*
X297612Y140997D01*
X297481Y140899D01*
X297382Y140833D01*
X297300Y140800D01*
X297283Y140784D01*
X297069Y140685D01*
X296855Y140619D01*
X296641Y140569D01*
X296444Y140537D01*
X296279Y140520D01*
X296148Y140504D01*
X296032D01*
X295687Y140520D01*
X295341Y140586D01*
X295045Y140668D01*
X294765Y140767D01*
X294535Y140866D01*
X294370Y140948D01*
X294304Y140981D01*
X294255Y141014D01*
X294238Y141030D01*
X294222D01*
X293909Y141261D01*
X293646Y141508D01*
X293415Y141755D01*
X293234Y142001D01*
X293086Y142232D01*
X292971Y142413D01*
X292938Y142479D01*
X292905Y142528D01*
X292889Y142561D01*
Y142578D01*
X292741Y142973D01*
X292625Y143368D01*
X292543Y143746D01*
X292477Y144108D01*
X292444Y144404D01*
Y144536D01*
X292428Y144651D01*
Y144750D01*
Y144816D01*
Y144849D01*
Y144865D01*
X292444Y145293D01*
X292494Y145705D01*
X292560Y146067D01*
X292642Y146396D01*
X292724Y146659D01*
X292757Y146775D01*
X292790Y146873D01*
X292823Y146939D01*
X292839Y146989D01*
X292856Y147022D01*
Y147038D01*
X293020Y147384D01*
X293218Y147696D01*
X293415Y147960D01*
X293613Y148174D01*
X293794Y148338D01*
X293942Y148470D01*
X294041Y148536D01*
X294057Y148569D01*
X294074D01*
X294387Y148750D01*
X294699Y148898D01*
X295012Y148997D01*
X295308Y149062D01*
X295555Y149095D01*
X295670Y149112D01*
X295753Y149128D01*
X295934D01*
X296230Y149112D01*
D02*
G37*
G36*
X173714Y13895D02*
X174165Y13824D01*
X174560Y13740D01*
X174743Y13683D01*
X174913Y13627D01*
X175068Y13571D01*
X175209Y13514D01*
X175322Y13472D01*
X175434Y13430D01*
X175505Y13387D01*
X175561Y13359D01*
X175603Y13345D01*
X175618Y13331D01*
X175998Y13091D01*
X176322Y12809D01*
X176604Y12527D01*
X176844Y12246D01*
X177027Y11992D01*
X177098Y11879D01*
X177154Y11780D01*
X177211Y11710D01*
X177239Y11653D01*
X177253Y11611D01*
X177267Y11597D01*
X177464Y11160D01*
X177605Y10709D01*
X177704Y10258D01*
X177774Y9849D01*
X177803Y9666D01*
X177817Y9482D01*
X177831Y9341D01*
Y9201D01*
X177845Y9102D01*
Y9017D01*
Y8961D01*
Y8947D01*
X177817Y8439D01*
X177760Y7946D01*
X177690Y7509D01*
X177633Y7297D01*
X177591Y7114D01*
X177549Y6945D01*
X177492Y6790D01*
X177450Y6649D01*
X177422Y6536D01*
X177380Y6452D01*
X177365Y6381D01*
X177337Y6339D01*
Y6325D01*
X177126Y5902D01*
X176886Y5521D01*
X176632Y5197D01*
X176506Y5070D01*
X176393Y4943D01*
X176280Y4830D01*
X176167Y4732D01*
X176069Y4647D01*
X175984Y4591D01*
X175928Y4534D01*
X175871Y4492D01*
X175843Y4478D01*
X175829Y4464D01*
X175632Y4351D01*
X175434Y4252D01*
X175011Y4097D01*
X174588Y3985D01*
X174180Y3914D01*
X173982Y3886D01*
X173813Y3858D01*
X173658Y3844D01*
X173531D01*
X173418Y3830D01*
X173263D01*
X172981Y3844D01*
X172714Y3872D01*
X172460Y3900D01*
X172220Y3956D01*
X171995Y4027D01*
X171783Y4097D01*
X171586Y4168D01*
X171402Y4252D01*
X171247Y4323D01*
X171092Y4393D01*
X170980Y4464D01*
X170867Y4534D01*
X170796Y4591D01*
X170726Y4619D01*
X170698Y4647D01*
X170684Y4661D01*
X170486Y4830D01*
X170317Y5000D01*
X170162Y5197D01*
X170007Y5394D01*
X169753Y5789D01*
X169556Y6184D01*
X169471Y6367D01*
X169401Y6536D01*
X169344Y6691D01*
X169302Y6818D01*
X169260Y6931D01*
X169232Y7016D01*
X169217Y7072D01*
Y7086D01*
X170514Y7410D01*
X170571Y7185D01*
X170641Y6973D01*
X170712Y6776D01*
X170782Y6593D01*
X170867Y6423D01*
X170951Y6282D01*
X171050Y6141D01*
X171135Y6015D01*
X171205Y5902D01*
X171290Y5817D01*
X171360Y5733D01*
X171417Y5662D01*
X171473Y5620D01*
X171515Y5578D01*
X171529Y5563D01*
X171544Y5549D01*
X171684Y5437D01*
X171840Y5352D01*
X172150Y5197D01*
X172446Y5084D01*
X172742Y5014D01*
X172995Y4957D01*
X173094Y4943D01*
X173193D01*
X173277Y4929D01*
X173376D01*
X173700Y4943D01*
X174010Y5000D01*
X174292Y5070D01*
X174546Y5155D01*
X174743Y5239D01*
X174828Y5282D01*
X174899Y5310D01*
X174955Y5338D01*
X174997Y5366D01*
X175025Y5380D01*
X175040D01*
X175307Y5578D01*
X175533Y5789D01*
X175730Y6029D01*
X175885Y6254D01*
X176012Y6452D01*
X176097Y6621D01*
X176125Y6691D01*
X176153Y6733D01*
X176167Y6762D01*
Y6776D01*
X176280Y7142D01*
X176365Y7509D01*
X176435Y7875D01*
X176477Y8214D01*
X176492Y8369D01*
X176506Y8510D01*
Y8637D01*
X176520Y8735D01*
Y8820D01*
Y8890D01*
Y8933D01*
Y8947D01*
X176506Y9313D01*
X176477Y9652D01*
X176421Y9962D01*
X176365Y10244D01*
X176322Y10483D01*
X176294Y10582D01*
X176266Y10667D01*
X176252Y10737D01*
X176238Y10779D01*
X176224Y10808D01*
Y10822D01*
X176083Y11146D01*
X175928Y11442D01*
X175758Y11682D01*
X175575Y11893D01*
X175420Y12062D01*
X175293Y12175D01*
X175195Y12246D01*
X175180Y12274D01*
X175166D01*
X174870Y12457D01*
X174546Y12598D01*
X174236Y12697D01*
X173940Y12753D01*
X173672Y12795D01*
X173559Y12809D01*
X173461D01*
X173390Y12823D01*
X173277D01*
X172925Y12809D01*
X172601Y12753D01*
X172333Y12668D01*
X172093Y12584D01*
X171910Y12485D01*
X171769Y12415D01*
X171684Y12358D01*
X171656Y12330D01*
X171431Y12119D01*
X171219Y11879D01*
X171050Y11625D01*
X170909Y11372D01*
X170796Y11146D01*
X170754Y11033D01*
X170726Y10948D01*
X170698Y10878D01*
X170669Y10822D01*
X170655Y10793D01*
Y10779D01*
X169387Y11075D01*
X169471Y11329D01*
X169556Y11555D01*
X169669Y11766D01*
X169767Y11978D01*
X169880Y12161D01*
X170007Y12330D01*
X170120Y12499D01*
X170233Y12640D01*
X170345Y12753D01*
X170444Y12866D01*
X170543Y12964D01*
X170613Y13035D01*
X170684Y13105D01*
X170740Y13148D01*
X170768Y13162D01*
X170782Y13176D01*
X170980Y13303D01*
X171177Y13430D01*
X171374Y13528D01*
X171586Y13613D01*
X172009Y13740D01*
X172389Y13824D01*
X172573Y13867D01*
X172728Y13881D01*
X172883Y13895D01*
X173010Y13909D01*
X173108Y13923D01*
X173249D01*
X173714Y13895D01*
D02*
G37*
G36*
X149468D02*
X149919Y13824D01*
X150313Y13740D01*
X150497Y13683D01*
X150666Y13627D01*
X150821Y13571D01*
X150962Y13514D01*
X151075Y13472D01*
X151187Y13430D01*
X151258Y13387D01*
X151314Y13359D01*
X151357Y13345D01*
X151371Y13331D01*
X151751Y13091D01*
X152076Y12809D01*
X152358Y12527D01*
X152597Y12246D01*
X152780Y11992D01*
X152851Y11879D01*
X152907Y11780D01*
X152964Y11710D01*
X152992Y11653D01*
X153006Y11611D01*
X153020Y11597D01*
X153217Y11160D01*
X153358Y10709D01*
X153457Y10258D01*
X153527Y9849D01*
X153556Y9666D01*
X153570Y9482D01*
X153584Y9341D01*
Y9201D01*
X153598Y9102D01*
Y9017D01*
Y8961D01*
Y8947D01*
X153570Y8439D01*
X153513Y7946D01*
X153443Y7509D01*
X153386Y7297D01*
X153344Y7114D01*
X153302Y6945D01*
X153246Y6790D01*
X153203Y6649D01*
X153175Y6536D01*
X153133Y6452D01*
X153119Y6381D01*
X153090Y6339D01*
Y6325D01*
X152879Y5902D01*
X152639Y5521D01*
X152386Y5197D01*
X152259Y5070D01*
X152146Y4943D01*
X152033Y4830D01*
X151920Y4732D01*
X151822Y4647D01*
X151737Y4591D01*
X151681Y4534D01*
X151624Y4492D01*
X151596Y4478D01*
X151582Y4464D01*
X151385Y4351D01*
X151187Y4252D01*
X150765Y4097D01*
X150342Y3985D01*
X149933Y3914D01*
X149735Y3886D01*
X149566Y3858D01*
X149411Y3844D01*
X149284D01*
X149171Y3830D01*
X149017D01*
X148735Y3844D01*
X148467Y3872D01*
X148213Y3900D01*
X147973Y3956D01*
X147748Y4027D01*
X147536Y4097D01*
X147339Y4168D01*
X147156Y4252D01*
X147001Y4323D01*
X146846Y4393D01*
X146733Y4464D01*
X146620Y4534D01*
X146550Y4591D01*
X146479Y4619D01*
X146451Y4647D01*
X146437Y4661D01*
X146239Y4830D01*
X146070Y5000D01*
X145915Y5197D01*
X145760Y5394D01*
X145506Y5789D01*
X145309Y6184D01*
X145224Y6367D01*
X145154Y6536D01*
X145098Y6691D01*
X145055Y6818D01*
X145013Y6931D01*
X144985Y7016D01*
X144971Y7072D01*
Y7086D01*
X146268Y7410D01*
X146324Y7185D01*
X146394Y6973D01*
X146465Y6776D01*
X146535Y6593D01*
X146620Y6423D01*
X146705Y6282D01*
X146803Y6141D01*
X146888Y6015D01*
X146958Y5902D01*
X147043Y5817D01*
X147113Y5733D01*
X147170Y5662D01*
X147226Y5620D01*
X147268Y5578D01*
X147282Y5563D01*
X147297Y5549D01*
X147438Y5437D01*
X147593Y5352D01*
X147903Y5197D01*
X148199Y5084D01*
X148495Y5014D01*
X148749Y4957D01*
X148847Y4943D01*
X148946D01*
X149031Y4929D01*
X149129D01*
X149453Y4943D01*
X149764Y5000D01*
X150045Y5070D01*
X150299Y5155D01*
X150497Y5239D01*
X150581Y5282D01*
X150652Y5310D01*
X150708Y5338D01*
X150750Y5366D01*
X150779Y5380D01*
X150793D01*
X151060Y5578D01*
X151286Y5789D01*
X151483Y6029D01*
X151638Y6254D01*
X151765Y6452D01*
X151850Y6621D01*
X151878Y6691D01*
X151906Y6733D01*
X151920Y6762D01*
Y6776D01*
X152033Y7142D01*
X152118Y7509D01*
X152188Y7875D01*
X152231Y8214D01*
X152245Y8369D01*
X152259Y8510D01*
Y8637D01*
X152273Y8735D01*
Y8820D01*
Y8890D01*
Y8933D01*
Y8947D01*
X152259Y9313D01*
X152231Y9652D01*
X152174Y9962D01*
X152118Y10244D01*
X152076Y10483D01*
X152047Y10582D01*
X152019Y10667D01*
X152005Y10737D01*
X151991Y10779D01*
X151977Y10808D01*
Y10822D01*
X151836Y11146D01*
X151681Y11442D01*
X151512Y11682D01*
X151328Y11893D01*
X151173Y12062D01*
X151046Y12175D01*
X150948Y12246D01*
X150934Y12274D01*
X150920D01*
X150624Y12457D01*
X150299Y12598D01*
X149989Y12697D01*
X149693Y12753D01*
X149425Y12795D01*
X149312Y12809D01*
X149214D01*
X149143Y12823D01*
X149031D01*
X148678Y12809D01*
X148354Y12753D01*
X148086Y12668D01*
X147846Y12584D01*
X147663Y12485D01*
X147522Y12415D01*
X147438Y12358D01*
X147409Y12330D01*
X147184Y12119D01*
X146972Y11879D01*
X146803Y11625D01*
X146662Y11372D01*
X146550Y11146D01*
X146507Y11033D01*
X146479Y10948D01*
X146451Y10878D01*
X146423Y10822D01*
X146409Y10793D01*
Y10779D01*
X145140Y11075D01*
X145224Y11329D01*
X145309Y11555D01*
X145422Y11766D01*
X145520Y11978D01*
X145633Y12161D01*
X145760Y12330D01*
X145873Y12499D01*
X145986Y12640D01*
X146098Y12753D01*
X146197Y12866D01*
X146296Y12964D01*
X146366Y13035D01*
X146437Y13105D01*
X146493Y13148D01*
X146521Y13162D01*
X146535Y13176D01*
X146733Y13303D01*
X146930Y13430D01*
X147128Y13528D01*
X147339Y13613D01*
X147762Y13740D01*
X148142Y13824D01*
X148326Y13867D01*
X148481Y13881D01*
X148636Y13895D01*
X148763Y13909D01*
X148861Y13923D01*
X149002D01*
X149468Y13895D01*
D02*
G37*
G36*
X125221D02*
X125672Y13824D01*
X126067Y13740D01*
X126250Y13683D01*
X126419Y13627D01*
X126574Y13571D01*
X126715Y13514D01*
X126828Y13472D01*
X126941Y13430D01*
X127011Y13387D01*
X127067Y13359D01*
X127110Y13345D01*
X127124Y13331D01*
X127504Y13091D01*
X127829Y12809D01*
X128111Y12527D01*
X128350Y12246D01*
X128533Y11992D01*
X128604Y11879D01*
X128660Y11780D01*
X128717Y11710D01*
X128745Y11653D01*
X128759Y11611D01*
X128773Y11597D01*
X128970Y11160D01*
X129111Y10709D01*
X129210Y10258D01*
X129281Y9849D01*
X129309Y9666D01*
X129323Y9482D01*
X129337Y9341D01*
Y9201D01*
X129351Y9102D01*
Y9017D01*
Y8961D01*
Y8947D01*
X129323Y8439D01*
X129267Y7946D01*
X129196Y7509D01*
X129140Y7297D01*
X129097Y7114D01*
X129055Y6945D01*
X128999Y6790D01*
X128956Y6649D01*
X128928Y6536D01*
X128886Y6452D01*
X128872Y6381D01*
X128844Y6339D01*
Y6325D01*
X128632Y5902D01*
X128393Y5521D01*
X128139Y5197D01*
X128012Y5070D01*
X127899Y4943D01*
X127786Y4830D01*
X127674Y4732D01*
X127575Y4647D01*
X127490Y4591D01*
X127434Y4534D01*
X127378Y4492D01*
X127349Y4478D01*
X127335Y4464D01*
X127138Y4351D01*
X126941Y4252D01*
X126518Y4097D01*
X126095Y3985D01*
X125686Y3914D01*
X125489Y3886D01*
X125319Y3858D01*
X125164Y3844D01*
X125037D01*
X124925Y3830D01*
X124770D01*
X124488Y3844D01*
X124220Y3872D01*
X123966Y3900D01*
X123726Y3956D01*
X123501Y4027D01*
X123289Y4097D01*
X123092Y4168D01*
X122909Y4252D01*
X122754Y4323D01*
X122599Y4393D01*
X122486Y4464D01*
X122373Y4534D01*
X122303Y4591D01*
X122232Y4619D01*
X122204Y4647D01*
X122190Y4661D01*
X121993Y4830D01*
X121823Y5000D01*
X121668Y5197D01*
X121513Y5394D01*
X121259Y5789D01*
X121062Y6184D01*
X120977Y6367D01*
X120907Y6536D01*
X120851Y6691D01*
X120808Y6818D01*
X120766Y6931D01*
X120738Y7016D01*
X120724Y7072D01*
Y7086D01*
X122021Y7410D01*
X122077Y7185D01*
X122148Y6973D01*
X122218Y6776D01*
X122289Y6593D01*
X122373Y6423D01*
X122458Y6282D01*
X122556Y6141D01*
X122641Y6015D01*
X122711Y5902D01*
X122796Y5817D01*
X122866Y5733D01*
X122923Y5662D01*
X122979Y5620D01*
X123022Y5578D01*
X123036Y5563D01*
X123050Y5549D01*
X123191Y5437D01*
X123346Y5352D01*
X123656Y5197D01*
X123952Y5084D01*
X124248Y5014D01*
X124502Y4957D01*
X124600Y4943D01*
X124699D01*
X124784Y4929D01*
X124882D01*
X125207Y4943D01*
X125517Y5000D01*
X125799Y5070D01*
X126053Y5155D01*
X126250Y5239D01*
X126334Y5282D01*
X126405Y5310D01*
X126461Y5338D01*
X126504Y5366D01*
X126532Y5380D01*
X126546D01*
X126814Y5578D01*
X127039Y5789D01*
X127237Y6029D01*
X127392Y6254D01*
X127519Y6452D01*
X127603Y6621D01*
X127631Y6691D01*
X127660Y6733D01*
X127674Y6762D01*
Y6776D01*
X127786Y7142D01*
X127871Y7509D01*
X127942Y7875D01*
X127984Y8214D01*
X127998Y8369D01*
X128012Y8510D01*
Y8637D01*
X128026Y8735D01*
Y8820D01*
Y8890D01*
Y8933D01*
Y8947D01*
X128012Y9313D01*
X127984Y9652D01*
X127927Y9962D01*
X127871Y10244D01*
X127829Y10483D01*
X127801Y10582D01*
X127772Y10667D01*
X127758Y10737D01*
X127744Y10779D01*
X127730Y10808D01*
Y10822D01*
X127589Y11146D01*
X127434Y11442D01*
X127265Y11682D01*
X127081Y11893D01*
X126926Y12062D01*
X126800Y12175D01*
X126701Y12246D01*
X126687Y12274D01*
X126673D01*
X126377Y12457D01*
X126053Y12598D01*
X125742Y12697D01*
X125446Y12753D01*
X125178Y12795D01*
X125066Y12809D01*
X124967D01*
X124896Y12823D01*
X124784D01*
X124431Y12809D01*
X124107Y12753D01*
X123839Y12668D01*
X123600Y12584D01*
X123416Y12485D01*
X123275Y12415D01*
X123191Y12358D01*
X123163Y12330D01*
X122937Y12119D01*
X122726Y11879D01*
X122556Y11625D01*
X122415Y11372D01*
X122303Y11146D01*
X122260Y11033D01*
X122232Y10948D01*
X122204Y10878D01*
X122176Y10822D01*
X122162Y10793D01*
Y10779D01*
X120893Y11075D01*
X120977Y11329D01*
X121062Y11555D01*
X121175Y11766D01*
X121274Y11978D01*
X121386Y12161D01*
X121513Y12330D01*
X121626Y12499D01*
X121739Y12640D01*
X121852Y12753D01*
X121950Y12866D01*
X122049Y12964D01*
X122119Y13035D01*
X122190Y13105D01*
X122246Y13148D01*
X122275Y13162D01*
X122289Y13176D01*
X122486Y13303D01*
X122683Y13430D01*
X122881Y13528D01*
X123092Y13613D01*
X123515Y13740D01*
X123896Y13824D01*
X124079Y13867D01*
X124234Y13881D01*
X124389Y13895D01*
X124516Y13909D01*
X124615Y13923D01*
X124755D01*
X125221Y13895D01*
D02*
G37*
G36*
X100974Y13895D02*
X101425Y13824D01*
X101820Y13740D01*
X102003Y13683D01*
X102172Y13627D01*
X102327Y13571D01*
X102468Y13514D01*
X102581Y13472D01*
X102694Y13430D01*
X102764Y13387D01*
X102821Y13359D01*
X102863Y13345D01*
X102877Y13331D01*
X103258Y13091D01*
X103582Y12809D01*
X103864Y12527D01*
X104103Y12245D01*
X104287Y11992D01*
X104357Y11879D01*
X104414Y11780D01*
X104470Y11710D01*
X104498Y11653D01*
X104512Y11611D01*
X104526Y11597D01*
X104724Y11160D01*
X104865Y10709D01*
X104963Y10258D01*
X105034Y9849D01*
X105062Y9666D01*
X105076Y9482D01*
X105090Y9341D01*
Y9201D01*
X105104Y9102D01*
Y9017D01*
Y8961D01*
Y8947D01*
X105076Y8439D01*
X105020Y7946D01*
X104949Y7509D01*
X104893Y7297D01*
X104851Y7114D01*
X104808Y6945D01*
X104752Y6790D01*
X104710Y6649D01*
X104681Y6536D01*
X104639Y6452D01*
X104625Y6381D01*
X104597Y6339D01*
Y6325D01*
X104385Y5902D01*
X104146Y5521D01*
X103892Y5197D01*
X103765Y5070D01*
X103652Y4943D01*
X103539Y4830D01*
X103427Y4732D01*
X103328Y4647D01*
X103244Y4591D01*
X103187Y4534D01*
X103131Y4492D01*
X103103Y4478D01*
X103088Y4464D01*
X102891Y4351D01*
X102694Y4252D01*
X102271Y4097D01*
X101848Y3985D01*
X101439Y3914D01*
X101242Y3886D01*
X101073Y3858D01*
X100918Y3844D01*
X100791D01*
X100678Y3830D01*
X100523D01*
X100241Y3844D01*
X99973Y3872D01*
X99719Y3900D01*
X99480Y3956D01*
X99254Y4027D01*
X99043Y4097D01*
X98845Y4168D01*
X98662Y4252D01*
X98507Y4323D01*
X98352Y4393D01*
X98239Y4464D01*
X98126Y4534D01*
X98056Y4591D01*
X97985Y4619D01*
X97957Y4647D01*
X97943Y4661D01*
X97746Y4830D01*
X97577Y5000D01*
X97421Y5197D01*
X97266Y5394D01*
X97013Y5789D01*
X96815Y6184D01*
X96731Y6367D01*
X96660Y6536D01*
X96604Y6691D01*
X96561Y6818D01*
X96519Y6931D01*
X96491Y7016D01*
X96477Y7072D01*
Y7086D01*
X97774Y7410D01*
X97830Y7185D01*
X97901Y6973D01*
X97971Y6776D01*
X98042Y6593D01*
X98126Y6423D01*
X98211Y6282D01*
X98310Y6141D01*
X98394Y6015D01*
X98465Y5902D01*
X98549Y5817D01*
X98620Y5733D01*
X98676Y5662D01*
X98733Y5620D01*
X98775Y5578D01*
X98789Y5563D01*
X98803Y5549D01*
X98944Y5437D01*
X99099Y5352D01*
X99409Y5197D01*
X99705Y5084D01*
X100001Y5014D01*
X100255Y4957D01*
X100354Y4943D01*
X100452D01*
X100537Y4929D01*
X100636D01*
X100960Y4943D01*
X101270Y5000D01*
X101552Y5070D01*
X101806Y5155D01*
X102003Y5239D01*
X102088Y5282D01*
X102158Y5310D01*
X102214Y5338D01*
X102257Y5366D01*
X102285Y5380D01*
X102299D01*
X102567Y5578D01*
X102792Y5789D01*
X102990Y6029D01*
X103145Y6254D01*
X103272Y6452D01*
X103356Y6621D01*
X103385Y6691D01*
X103413Y6733D01*
X103427Y6762D01*
Y6776D01*
X103539Y7142D01*
X103624Y7509D01*
X103695Y7875D01*
X103737Y8214D01*
X103751Y8369D01*
X103765Y8510D01*
Y8637D01*
X103779Y8735D01*
Y8820D01*
Y8890D01*
Y8933D01*
Y8947D01*
X103765Y9313D01*
X103737Y9652D01*
X103680Y9962D01*
X103624Y10244D01*
X103582Y10483D01*
X103554Y10582D01*
X103525Y10667D01*
X103511Y10737D01*
X103497Y10779D01*
X103483Y10807D01*
Y10822D01*
X103342Y11146D01*
X103187Y11442D01*
X103018Y11682D01*
X102835Y11893D01*
X102680Y12062D01*
X102553Y12175D01*
X102454Y12245D01*
X102440Y12274D01*
X102426D01*
X102130Y12457D01*
X101806Y12598D01*
X101496Y12696D01*
X101199Y12753D01*
X100932Y12795D01*
X100819Y12809D01*
X100720D01*
X100650Y12823D01*
X100537D01*
X100184Y12809D01*
X99860Y12753D01*
X99592Y12668D01*
X99353Y12584D01*
X99170Y12485D01*
X99029Y12415D01*
X98944Y12358D01*
X98916Y12330D01*
X98690Y12119D01*
X98479Y11879D01*
X98310Y11625D01*
X98169Y11371D01*
X98056Y11146D01*
X98013Y11033D01*
X97985Y10948D01*
X97957Y10878D01*
X97929Y10822D01*
X97915Y10793D01*
Y10779D01*
X96646Y11075D01*
X96731Y11329D01*
X96815Y11555D01*
X96928Y11766D01*
X97027Y11978D01*
X97140Y12161D01*
X97266Y12330D01*
X97379Y12499D01*
X97492Y12640D01*
X97605Y12753D01*
X97703Y12866D01*
X97802Y12964D01*
X97873Y13035D01*
X97943Y13105D01*
X97999Y13148D01*
X98028Y13162D01*
X98042Y13176D01*
X98239Y13303D01*
X98436Y13430D01*
X98634Y13528D01*
X98845Y13613D01*
X99268Y13740D01*
X99649Y13824D01*
X99832Y13867D01*
X99987Y13881D01*
X100142Y13895D01*
X100269Y13909D01*
X100368Y13923D01*
X100509D01*
X100974Y13895D01*
D02*
G37*
G36*
X185105Y3999D02*
X179001D01*
Y5155D01*
X183808D01*
Y13754D01*
X185105D01*
Y3999D01*
D02*
G37*
G36*
X160858D02*
X154754D01*
Y5155D01*
X159561D01*
Y13754D01*
X160858D01*
Y3999D01*
D02*
G37*
G36*
X136611D02*
X130507D01*
Y5155D01*
X135314D01*
Y13754D01*
X136611D01*
Y3999D01*
D02*
G37*
G36*
X112364Y3999D02*
X106260D01*
Y5155D01*
X111067D01*
Y13754D01*
X112364D01*
Y3999D01*
D02*
G37*
G36*
X188460Y7030D02*
Y6733D01*
X188488Y6480D01*
X188502Y6268D01*
X188530Y6099D01*
X188559Y5972D01*
X188573Y5874D01*
X188601Y5817D01*
Y5803D01*
X188657Y5662D01*
X188728Y5549D01*
X188812Y5451D01*
X188883Y5352D01*
X188967Y5296D01*
X189024Y5239D01*
X189066Y5211D01*
X189080Y5197D01*
X189221Y5127D01*
X189362Y5070D01*
X189503Y5042D01*
X189630Y5014D01*
X189757Y5000D01*
X189841Y4985D01*
X189926D01*
X190152Y5000D01*
X190363Y5056D01*
X190532Y5112D01*
X190687Y5197D01*
X190800Y5268D01*
X190885Y5338D01*
X190941Y5380D01*
X190955Y5394D01*
X191026Y5479D01*
X191082Y5578D01*
X191166Y5803D01*
X191251Y6057D01*
X191293Y6311D01*
X191336Y6550D01*
Y6649D01*
X191350Y6733D01*
X191364Y6818D01*
Y6874D01*
Y6903D01*
Y6917D01*
X192534Y6748D01*
Y6480D01*
X192520Y6240D01*
X192477Y6000D01*
X192449Y5789D01*
X192393Y5592D01*
X192337Y5422D01*
X192280Y5253D01*
X192224Y5112D01*
X192153Y4985D01*
X192097Y4873D01*
X192041Y4774D01*
X191984Y4704D01*
X191942Y4647D01*
X191914Y4591D01*
X191900Y4577D01*
X191885Y4563D01*
X191744Y4436D01*
X191604Y4323D01*
X191448Y4224D01*
X191279Y4140D01*
X190955Y4013D01*
X190645Y3928D01*
X190349Y3872D01*
X190236Y3858D01*
X190123Y3844D01*
X190039Y3830D01*
X189912D01*
X189602Y3844D01*
X189320Y3886D01*
X189066Y3942D01*
X188841Y4013D01*
X188657Y4069D01*
X188530Y4126D01*
X188446Y4168D01*
X188418Y4182D01*
X188192Y4323D01*
X187995Y4492D01*
X187840Y4661D01*
X187699Y4816D01*
X187600Y4971D01*
X187530Y5084D01*
X187487Y5169D01*
X187473Y5183D01*
Y5197D01*
X187374Y5479D01*
X187290Y5775D01*
X187233Y6099D01*
X187205Y6409D01*
X187177Y6677D01*
Y6790D01*
X187163Y6903D01*
Y6987D01*
Y7044D01*
Y7086D01*
Y7100D01*
Y13754D01*
X188460D01*
Y7030D01*
D02*
G37*
G36*
X164213D02*
Y6733D01*
X164241Y6480D01*
X164255Y6268D01*
X164284Y6099D01*
X164312Y5972D01*
X164326Y5874D01*
X164354Y5817D01*
Y5803D01*
X164410Y5662D01*
X164481Y5549D01*
X164566Y5451D01*
X164636Y5352D01*
X164720Y5296D01*
X164777Y5239D01*
X164819Y5211D01*
X164833Y5197D01*
X164974Y5127D01*
X165115Y5070D01*
X165256Y5042D01*
X165383Y5014D01*
X165510Y5000D01*
X165595Y4985D01*
X165679D01*
X165905Y5000D01*
X166116Y5056D01*
X166285Y5112D01*
X166440Y5197D01*
X166553Y5268D01*
X166638Y5338D01*
X166694Y5380D01*
X166708Y5394D01*
X166779Y5479D01*
X166835Y5578D01*
X166920Y5803D01*
X167004Y6057D01*
X167047Y6311D01*
X167089Y6550D01*
Y6649D01*
X167103Y6733D01*
X167117Y6818D01*
Y6874D01*
Y6903D01*
Y6917D01*
X168287Y6748D01*
Y6480D01*
X168273Y6240D01*
X168231Y6000D01*
X168202Y5789D01*
X168146Y5592D01*
X168090Y5422D01*
X168033Y5253D01*
X167977Y5112D01*
X167906Y4985D01*
X167850Y4873D01*
X167794Y4774D01*
X167737Y4704D01*
X167695Y4647D01*
X167667Y4591D01*
X167653Y4577D01*
X167639Y4563D01*
X167498Y4436D01*
X167357Y4323D01*
X167202Y4224D01*
X167032Y4140D01*
X166708Y4013D01*
X166398Y3928D01*
X166102Y3872D01*
X165989Y3858D01*
X165877Y3844D01*
X165792Y3830D01*
X165665D01*
X165355Y3844D01*
X165073Y3886D01*
X164819Y3942D01*
X164594Y4013D01*
X164410Y4069D01*
X164284Y4126D01*
X164199Y4168D01*
X164171Y4182D01*
X163945Y4323D01*
X163748Y4492D01*
X163593Y4661D01*
X163452Y4816D01*
X163353Y4971D01*
X163283Y5084D01*
X163240Y5169D01*
X163226Y5183D01*
Y5197D01*
X163128Y5479D01*
X163043Y5775D01*
X162987Y6099D01*
X162958Y6409D01*
X162930Y6677D01*
Y6790D01*
X162916Y6903D01*
Y6987D01*
Y7044D01*
Y7086D01*
Y7100D01*
Y13754D01*
X164213D01*
Y7030D01*
D02*
G37*
G36*
X139966D02*
Y6733D01*
X139994Y6480D01*
X140008Y6268D01*
X140037Y6099D01*
X140065Y5972D01*
X140079Y5874D01*
X140107Y5817D01*
Y5803D01*
X140163Y5662D01*
X140234Y5549D01*
X140319Y5451D01*
X140389Y5352D01*
X140474Y5296D01*
X140530Y5239D01*
X140572Y5211D01*
X140587Y5197D01*
X140727Y5127D01*
X140868Y5070D01*
X141009Y5042D01*
X141136Y5014D01*
X141263Y5000D01*
X141348Y4985D01*
X141432D01*
X141658Y5000D01*
X141869Y5056D01*
X142038Y5112D01*
X142193Y5197D01*
X142306Y5268D01*
X142391Y5338D01*
X142447Y5380D01*
X142461Y5394D01*
X142532Y5479D01*
X142588Y5578D01*
X142673Y5803D01*
X142757Y6057D01*
X142800Y6311D01*
X142842Y6550D01*
Y6649D01*
X142856Y6733D01*
X142870Y6818D01*
Y6874D01*
Y6903D01*
Y6917D01*
X144040Y6748D01*
Y6480D01*
X144026Y6240D01*
X143984Y6000D01*
X143956Y5789D01*
X143899Y5592D01*
X143843Y5422D01*
X143786Y5253D01*
X143730Y5112D01*
X143660Y4985D01*
X143603Y4873D01*
X143547Y4774D01*
X143490Y4704D01*
X143448Y4647D01*
X143420Y4591D01*
X143406Y4577D01*
X143392Y4563D01*
X143251Y4436D01*
X143110Y4323D01*
X142955Y4224D01*
X142786Y4140D01*
X142461Y4013D01*
X142151Y3928D01*
X141855Y3872D01*
X141742Y3858D01*
X141630Y3844D01*
X141545Y3830D01*
X141418D01*
X141108Y3844D01*
X140826Y3886D01*
X140572Y3942D01*
X140347Y4013D01*
X140163Y4069D01*
X140037Y4126D01*
X139952Y4168D01*
X139924Y4182D01*
X139698Y4323D01*
X139501Y4492D01*
X139346Y4661D01*
X139205Y4816D01*
X139106Y4971D01*
X139036Y5084D01*
X138994Y5169D01*
X138979Y5183D01*
Y5197D01*
X138881Y5479D01*
X138796Y5775D01*
X138740Y6099D01*
X138712Y6409D01*
X138683Y6677D01*
Y6790D01*
X138669Y6903D01*
Y6987D01*
Y7044D01*
Y7086D01*
Y7100D01*
Y13754D01*
X139966D01*
Y7030D01*
D02*
G37*
G36*
X115719Y7030D02*
Y6733D01*
X115747Y6480D01*
X115762Y6268D01*
X115790Y6099D01*
X115818Y5972D01*
X115832Y5874D01*
X115860Y5817D01*
Y5803D01*
X115917Y5662D01*
X115987Y5549D01*
X116072Y5451D01*
X116142Y5352D01*
X116227Y5296D01*
X116283Y5239D01*
X116326Y5211D01*
X116340Y5197D01*
X116481Y5127D01*
X116622Y5070D01*
X116763Y5042D01*
X116889Y5014D01*
X117016Y5000D01*
X117101Y4985D01*
X117185D01*
X117411Y5000D01*
X117622Y5056D01*
X117792Y5112D01*
X117947Y5197D01*
X118060Y5267D01*
X118144Y5338D01*
X118200Y5380D01*
X118215Y5394D01*
X118285Y5479D01*
X118341Y5578D01*
X118426Y5803D01*
X118511Y6057D01*
X118553Y6311D01*
X118595Y6550D01*
Y6649D01*
X118609Y6733D01*
X118623Y6818D01*
Y6874D01*
Y6903D01*
Y6917D01*
X119793Y6748D01*
Y6480D01*
X119779Y6240D01*
X119737Y6000D01*
X119709Y5789D01*
X119652Y5592D01*
X119596Y5422D01*
X119540Y5253D01*
X119483Y5112D01*
X119413Y4985D01*
X119356Y4873D01*
X119300Y4774D01*
X119244Y4703D01*
X119201Y4647D01*
X119173Y4591D01*
X119159Y4577D01*
X119145Y4563D01*
X119004Y4436D01*
X118863Y4323D01*
X118708Y4224D01*
X118539Y4140D01*
X118215Y4013D01*
X117904Y3928D01*
X117608Y3872D01*
X117496Y3858D01*
X117383Y3844D01*
X117298Y3830D01*
X117171D01*
X116861Y3844D01*
X116579Y3886D01*
X116326Y3942D01*
X116100Y4013D01*
X115917Y4069D01*
X115790Y4126D01*
X115705Y4168D01*
X115677Y4182D01*
X115451Y4323D01*
X115254Y4492D01*
X115099Y4661D01*
X114958Y4816D01*
X114859Y4971D01*
X114789Y5084D01*
X114747Y5169D01*
X114733Y5183D01*
Y5197D01*
X114634Y5479D01*
X114549Y5775D01*
X114493Y6099D01*
X114465Y6409D01*
X114437Y6677D01*
Y6790D01*
X114422Y6903D01*
Y6987D01*
Y7044D01*
Y7086D01*
Y7100D01*
Y13754D01*
X115719D01*
Y7030D01*
D02*
G37*
G36*
X329931Y55793D02*
X330258Y55761D01*
X330554Y55708D01*
X330692Y55687D01*
X330808Y55656D01*
X330924Y55624D01*
X331019Y55603D01*
X331104Y55582D01*
X331178Y55550D01*
X331241Y55539D01*
X331283Y55518D01*
X331305Y55508D01*
X331315D01*
X331590Y55392D01*
X331833Y55254D01*
X332044Y55106D01*
X332224Y54969D01*
X332372Y54842D01*
X332477Y54736D01*
X332509Y54694D01*
X332541Y54662D01*
X332551Y54652D01*
X332562Y54641D01*
X332699Y54472D01*
X332805Y54293D01*
X332900Y54113D01*
X332974Y53944D01*
X333027Y53796D01*
X333059Y53680D01*
X333080Y53637D01*
Y53606D01*
X333090Y53585D01*
Y53574D01*
X333122Y53394D01*
X333154Y53183D01*
X333175Y52972D01*
X333185Y52761D01*
X333196Y52570D01*
Y49760D01*
X325884D01*
Y52391D01*
X325895Y52634D01*
X325905Y52856D01*
X325926Y53056D01*
X325947Y53225D01*
X325968Y53373D01*
X325979Y53479D01*
X325990Y53511D01*
X326000Y53542D01*
Y53564D01*
X326053Y53754D01*
X326116Y53923D01*
X326169Y54071D01*
X326233Y54198D01*
X326285Y54303D01*
X326328Y54377D01*
X326359Y54419D01*
X326370Y54441D01*
X326465Y54578D01*
X326581Y54694D01*
X326687Y54810D01*
X326793Y54906D01*
X326888Y54990D01*
X326962Y55053D01*
X327015Y55096D01*
X327036Y55106D01*
X327205Y55212D01*
X327384Y55318D01*
X327553Y55402D01*
X327723Y55465D01*
X327870Y55529D01*
X327987Y55571D01*
X328029Y55582D01*
X328061Y55592D01*
X328082Y55603D01*
X328092D01*
X328346Y55666D01*
X328600Y55719D01*
X328843Y55751D01*
X329075Y55782D01*
X329276Y55793D01*
X329360D01*
X329434Y55804D01*
X329487D01*
X329540D01*
X329561D01*
X329572D01*
X329931Y55793D01*
D02*
G37*
G36*
X329720Y46157D02*
X333196Y48692D01*
Y47636D01*
X331252Y46178D01*
X331093Y46051D01*
X330945Y45945D01*
X330797Y45840D01*
X330681Y45755D01*
X330575Y45681D01*
X330491Y45628D01*
X330449Y45596D01*
X330428Y45586D01*
X330554Y45512D01*
X330692Y45427D01*
X330840Y45332D01*
X330988Y45237D01*
X331114Y45142D01*
X331220Y45079D01*
X331262Y45047D01*
X331294Y45026D01*
X331305Y45005D01*
X331315D01*
X333196Y43673D01*
Y42522D01*
X329667Y45015D01*
X325884Y42194D01*
Y43356D01*
X328420Y45205D01*
X328483Y45248D01*
X328557Y45301D01*
X328726Y45417D01*
X328811Y45470D01*
X328874Y45512D01*
X328917Y45544D01*
X328927Y45554D01*
X328769Y45660D01*
X328621Y45755D01*
X328568Y45797D01*
X328526Y45818D01*
X328494Y45840D01*
X328483Y45850D01*
X325884Y47699D01*
Y48893D01*
X329720Y46157D01*
D02*
G37*
G36*
X327870Y40746D02*
X328082Y40599D01*
X328272Y40461D01*
X328430Y40324D01*
X328578Y40208D01*
X328684Y40102D01*
X328769Y40017D01*
X328821Y39965D01*
X328843Y39943D01*
X328906Y39859D01*
X328980Y39764D01*
X329096Y39574D01*
X329138Y39489D01*
X329181Y39426D01*
X329202Y39383D01*
X329212Y39362D01*
X329244Y39553D01*
X329276Y39732D01*
X329329Y39891D01*
X329371Y40049D01*
X329424Y40187D01*
X329487Y40313D01*
X329540Y40430D01*
X329593Y40535D01*
X329656Y40620D01*
X329709Y40704D01*
X329751Y40768D01*
X329794Y40820D01*
X329825Y40863D01*
X329857Y40894D01*
X329867Y40905D01*
X329878Y40916D01*
X329984Y41000D01*
X330089Y41085D01*
X330311Y41211D01*
X330533Y41296D01*
X330744Y41359D01*
X330924Y41402D01*
X330998Y41412D01*
X331072D01*
X331125Y41423D01*
X331167D01*
X331188D01*
X331199D01*
X331421Y41412D01*
X331622Y41381D01*
X331812Y41328D01*
X331970Y41275D01*
X332108Y41211D01*
X332213Y41169D01*
X332277Y41127D01*
X332287Y41116D01*
X332298D01*
X332467Y40990D01*
X332615Y40863D01*
X332742Y40725D01*
X332837Y40599D01*
X332911Y40482D01*
X332953Y40387D01*
X332985Y40324D01*
X332995Y40313D01*
Y40303D01*
X333027Y40208D01*
X333059Y40091D01*
X333111Y39859D01*
X333143Y39605D01*
X333175Y39373D01*
X333185Y39151D01*
Y39056D01*
X333196Y38971D01*
Y35580D01*
X325884D01*
Y36552D01*
X329128D01*
Y37799D01*
X329117Y37915D01*
Y37999D01*
X329107Y38073D01*
X329096Y38126D01*
Y38168D01*
X329086Y38189D01*
Y38200D01*
X329033Y38369D01*
X329001Y38443D01*
X328969Y38507D01*
X328938Y38570D01*
X328917Y38612D01*
X328906Y38633D01*
X328895Y38644D01*
X328832Y38728D01*
X328758Y38813D01*
X328600Y38971D01*
X328526Y39045D01*
X328462Y39098D01*
X328420Y39130D01*
X328409Y39140D01*
X328261Y39246D01*
X328103Y39362D01*
X327934Y39479D01*
X327775Y39595D01*
X327627Y39690D01*
X327511Y39764D01*
X327469Y39796D01*
X327437Y39817D01*
X327416Y39838D01*
X327406D01*
X325884Y40799D01*
Y42004D01*
X327870Y40746D01*
D02*
G37*
G36*
X305070Y55223D02*
X305398Y55191D01*
X305694Y55138D01*
X305831Y55117D01*
X305947Y55085D01*
X306063Y55053D01*
X306159Y55032D01*
X306243Y55011D01*
X306317Y54980D01*
X306381Y54969D01*
X306423Y54948D01*
X306444Y54937D01*
X306454D01*
X306729Y54821D01*
X306972Y54684D01*
X307183Y54536D01*
X307363Y54398D01*
X307511Y54271D01*
X307617Y54166D01*
X307648Y54124D01*
X307680Y54092D01*
X307691Y54081D01*
X307701Y54071D01*
X307839Y53902D01*
X307944Y53722D01*
X308039Y53542D01*
X308113Y53373D01*
X308166Y53225D01*
X308198Y53109D01*
X308219Y53067D01*
Y53035D01*
X308230Y53014D01*
Y53004D01*
X308261Y52824D01*
X308293Y52613D01*
X308314Y52401D01*
X308325Y52190D01*
X308335Y52000D01*
Y49189D01*
X301023D01*
Y51820D01*
X301034Y52063D01*
X301044Y52285D01*
X301066Y52486D01*
X301087Y52655D01*
X301108Y52803D01*
X301118Y52909D01*
X301129Y52940D01*
X301140Y52972D01*
Y52993D01*
X301192Y53183D01*
X301256Y53352D01*
X301309Y53500D01*
X301372Y53627D01*
X301425Y53733D01*
X301467Y53807D01*
X301499Y53849D01*
X301509Y53870D01*
X301604Y54007D01*
X301721Y54124D01*
X301826Y54240D01*
X301932Y54335D01*
X302027Y54419D01*
X302101Y54483D01*
X302154Y54525D01*
X302175Y54536D01*
X302344Y54641D01*
X302524Y54747D01*
X302693Y54832D01*
X302862Y54895D01*
X303010Y54958D01*
X303126Y55001D01*
X303168Y55011D01*
X303200Y55022D01*
X303221Y55032D01*
X303232D01*
X303485Y55096D01*
X303739Y55149D01*
X303982Y55180D01*
X304214Y55212D01*
X304415Y55223D01*
X304500D01*
X304574Y55233D01*
X304626D01*
X304679D01*
X304700D01*
X304711D01*
X305070Y55223D01*
D02*
G37*
G36*
X304859Y45586D02*
X308335Y48122D01*
Y47065D01*
X306391Y45607D01*
X306232Y45480D01*
X306085Y45375D01*
X305937Y45269D01*
X305820Y45184D01*
X305715Y45111D01*
X305630Y45058D01*
X305588Y45026D01*
X305567Y45015D01*
X305694Y44941D01*
X305831Y44857D01*
X305979Y44762D01*
X306127Y44667D01*
X306254Y44572D01*
X306359Y44508D01*
X306402Y44476D01*
X306433Y44455D01*
X306444Y44434D01*
X306454D01*
X308335Y43103D01*
Y41951D01*
X304806Y44445D01*
X301023Y41624D01*
Y42786D01*
X303559Y44635D01*
X303623Y44677D01*
X303697Y44730D01*
X303866Y44846D01*
X303950Y44899D01*
X304014Y44941D01*
X304056Y44973D01*
X304066Y44984D01*
X303908Y45089D01*
X303760Y45184D01*
X303707Y45227D01*
X303665Y45248D01*
X303633Y45269D01*
X303623Y45279D01*
X301023Y47129D01*
Y48323D01*
X304859Y45586D01*
D02*
G37*
G36*
X308335Y35580D02*
X307469D01*
Y37989D01*
X301023D01*
Y38961D01*
X307469D01*
Y41370D01*
X308335D01*
Y35580D01*
D02*
G37*
G36*
X279956Y57188D02*
X280284Y57156D01*
X280579Y57103D01*
X280717Y57082D01*
X280833Y57050D01*
X280949Y57019D01*
X281044Y56998D01*
X281129Y56976D01*
X281203Y56945D01*
X281266Y56934D01*
X281308Y56913D01*
X281330Y56903D01*
X281340D01*
X281615Y56786D01*
X281858Y56649D01*
X282069Y56501D01*
X282249Y56364D01*
X282397Y56237D01*
X282502Y56131D01*
X282534Y56089D01*
X282566Y56057D01*
X282577Y56047D01*
X282587Y56036D01*
X282724Y55867D01*
X282830Y55687D01*
X282925Y55508D01*
X282999Y55339D01*
X283052Y55191D01*
X283084Y55075D01*
X283105Y55032D01*
Y55001D01*
X283115Y54980D01*
Y54969D01*
X283147Y54789D01*
X283179Y54578D01*
X283200Y54367D01*
X283211Y54155D01*
X283221Y53965D01*
Y51154D01*
X275909D01*
Y53786D01*
X275920Y54029D01*
X275930Y54250D01*
X275951Y54451D01*
X275972Y54620D01*
X275994Y54768D01*
X276004Y54874D01*
X276015Y54906D01*
X276025Y54937D01*
Y54958D01*
X276078Y55149D01*
X276142Y55318D01*
X276194Y55465D01*
X276258Y55592D01*
X276311Y55698D01*
X276353Y55772D01*
X276385Y55814D01*
X276395Y55835D01*
X276490Y55973D01*
X276607Y56089D01*
X276712Y56205D01*
X276818Y56300D01*
X276913Y56385D01*
X276987Y56448D01*
X277040Y56491D01*
X277061Y56501D01*
X277230Y56607D01*
X277409Y56712D01*
X277579Y56797D01*
X277748Y56860D01*
X277896Y56924D01*
X278012Y56966D01*
X278054Y56976D01*
X278086Y56987D01*
X278107Y56998D01*
X278118D01*
X278371Y57061D01*
X278625Y57114D01*
X278868Y57146D01*
X279100Y57177D01*
X279301Y57188D01*
X279385D01*
X279459Y57198D01*
X279512D01*
X279565D01*
X279586D01*
X279597D01*
X279956Y57188D01*
D02*
G37*
G36*
X283221Y48597D02*
X277473D01*
X283221Y44762D01*
Y43769D01*
X275909D01*
Y44698D01*
X281647D01*
X275909Y48523D01*
Y49527D01*
X283221D01*
Y48597D01*
D02*
G37*
G36*
X279639Y39246D02*
X278773D01*
Y41402D01*
X277399D01*
X277293Y41275D01*
X277198Y41127D01*
X277114Y40968D01*
X277040Y40820D01*
X276976Y40694D01*
X276924Y40578D01*
X276902Y40535D01*
X276892Y40514D01*
X276881Y40493D01*
Y40482D01*
X276807Y40261D01*
X276744Y40039D01*
X276702Y39838D01*
X276680Y39648D01*
X276659Y39489D01*
Y39426D01*
X276649Y39362D01*
Y39257D01*
X276659Y38993D01*
X276702Y38739D01*
X276754Y38507D01*
X276807Y38295D01*
X276871Y38126D01*
X276892Y38052D01*
X276913Y37999D01*
X276934Y37946D01*
X276955Y37915D01*
X276966Y37894D01*
Y37883D01*
X277103Y37661D01*
X277251Y37460D01*
X277409Y37291D01*
X277568Y37154D01*
X277716Y37038D01*
X277832Y36964D01*
X277875Y36932D01*
X277906Y36922D01*
X277927Y36900D01*
X277938D01*
X278202Y36795D01*
X278477Y36710D01*
X278752Y36657D01*
X279016Y36615D01*
X279132Y36604D01*
X279237Y36594D01*
X279343Y36583D01*
X279428D01*
X279491Y36573D01*
X279544D01*
X279576D01*
X279586D01*
X279882Y36583D01*
X280146Y36615D01*
X280400Y36657D01*
X280622Y36710D01*
X280717Y36731D01*
X280801Y36763D01*
X280875Y36784D01*
X280939Y36805D01*
X280991Y36826D01*
X281023Y36837D01*
X281044Y36848D01*
X281055D01*
X281203Y36922D01*
X281340Y36995D01*
X281467Y37069D01*
X281573Y37143D01*
X281657Y37207D01*
X281731Y37260D01*
X281773Y37302D01*
X281784Y37312D01*
X281900Y37429D01*
X282006Y37555D01*
X282090Y37693D01*
X282175Y37820D01*
X282228Y37925D01*
X282281Y38010D01*
X282302Y38073D01*
X282312Y38094D01*
X282386Y38285D01*
X282439Y38475D01*
X282471Y38675D01*
X282502Y38855D01*
X282513Y39014D01*
Y39077D01*
X282524Y39130D01*
Y39246D01*
X282513Y39447D01*
X282492Y39637D01*
X282460Y39806D01*
X282429Y39954D01*
X282386Y40081D01*
X282355Y40176D01*
X282334Y40229D01*
X282323Y40250D01*
X282249Y40408D01*
X282164Y40546D01*
X282080Y40673D01*
X281995Y40768D01*
X281921Y40842D01*
X281868Y40905D01*
X281826Y40937D01*
X281816Y40947D01*
X281689Y41042D01*
X281541Y41116D01*
X281404Y41190D01*
X281256Y41254D01*
X281129Y41296D01*
X281034Y41328D01*
X280991Y41338D01*
X280960Y41349D01*
X280949Y41359D01*
X280939D01*
X281171Y42236D01*
X281435Y42162D01*
X281668Y42067D01*
X281879Y41972D01*
X282048Y41888D01*
X282185Y41803D01*
X282281Y41740D01*
X282344Y41698D01*
X282365Y41676D01*
X282534Y41528D01*
X282672Y41370D01*
X282798Y41201D01*
X282904Y41042D01*
X282978Y40894D01*
X283041Y40778D01*
X283063Y40736D01*
X283073Y40704D01*
X283084Y40683D01*
Y40673D01*
X283168Y40430D01*
X283232Y40176D01*
X283284Y39943D01*
X283316Y39722D01*
X283337Y39521D01*
Y39436D01*
X283348Y39373D01*
Y39035D01*
X283327Y38845D01*
X283274Y38475D01*
X283242Y38306D01*
X283200Y38147D01*
X283168Y37999D01*
X283126Y37862D01*
X283084Y37735D01*
X283041Y37629D01*
X282999Y37534D01*
X282967Y37450D01*
X282936Y37386D01*
X282915Y37344D01*
X282904Y37312D01*
X282894Y37302D01*
X282798Y37154D01*
X282703Y37006D01*
X282481Y36752D01*
X282260Y36530D01*
X282027Y36351D01*
X281826Y36203D01*
X281742Y36150D01*
X281657Y36108D01*
X281594Y36066D01*
X281552Y36044D01*
X281520Y36034D01*
X281509Y36023D01*
X281161Y35875D01*
X280812Y35770D01*
X280474Y35685D01*
X280315Y35664D01*
X280167Y35632D01*
X280030Y35622D01*
X279914Y35601D01*
X279797Y35590D01*
X279702D01*
X279629Y35580D01*
X279576D01*
X279533D01*
X279523D01*
X279132Y35601D01*
X278762Y35654D01*
X278593Y35685D01*
X278435Y35717D01*
X278276Y35759D01*
X278139Y35801D01*
X278012Y35844D01*
X277906Y35886D01*
X277801Y35918D01*
X277726Y35949D01*
X277653Y35981D01*
X277610Y36002D01*
X277579Y36023D01*
X277568D01*
X277262Y36214D01*
X276997Y36425D01*
X276765Y36647D01*
X276575Y36858D01*
X276427Y37059D01*
X276374Y37133D01*
X276321Y37207D01*
X276290Y37270D01*
X276258Y37312D01*
X276247Y37344D01*
X276237Y37355D01*
X276152Y37524D01*
X276089Y37693D01*
X275972Y38031D01*
X275898Y38359D01*
X275835Y38665D01*
X275825Y38802D01*
X275803Y38929D01*
X275793Y39045D01*
Y39140D01*
X275782Y39214D01*
Y39320D01*
X275793Y39616D01*
X275825Y39901D01*
X275877Y40165D01*
X275930Y40398D01*
X275951Y40493D01*
X275972Y40588D01*
X276004Y40673D01*
X276025Y40746D01*
X276047Y40799D01*
X276057Y40842D01*
X276068Y40863D01*
Y40873D01*
X276184Y41159D01*
X276321Y41423D01*
X276469Y41676D01*
X276607Y41898D01*
X276670Y41993D01*
X276733Y42088D01*
X276786Y42162D01*
X276828Y42226D01*
X276871Y42279D01*
X276902Y42321D01*
X276913Y42342D01*
X276924Y42353D01*
X279639D01*
Y39246D01*
D02*
G37*
G36*
X255138Y63150D02*
X258107Y66214D01*
Y64893D01*
X254472Y61280D01*
X258107D01*
Y60307D01*
X250795D01*
Y61280D01*
X253331D01*
X254483Y62474D01*
X250795Y65073D01*
Y66351D01*
X255138Y63150D01*
D02*
G37*
G36*
X251661Y55595D02*
X258107D01*
Y54623D01*
X250795D01*
Y59198D01*
X251661D01*
Y55595D01*
D02*
G37*
G36*
X253352Y52499D02*
X253183Y52456D01*
X253024Y52404D01*
X252876Y52351D01*
X252739Y52298D01*
X252612Y52235D01*
X252507Y52171D01*
X252401Y52097D01*
X252306Y52034D01*
X252221Y51981D01*
X252158Y51918D01*
X252095Y51865D01*
X252042Y51823D01*
X252010Y51780D01*
X251978Y51749D01*
X251968Y51738D01*
X251957Y51727D01*
X251873Y51622D01*
X251809Y51506D01*
X251693Y51273D01*
X251609Y51051D01*
X251556Y50829D01*
X251513Y50639D01*
X251503Y50565D01*
Y50491D01*
X251492Y50428D01*
Y50354D01*
X251503Y50111D01*
X251545Y49878D01*
X251598Y49667D01*
X251661Y49477D01*
X251725Y49329D01*
X251756Y49265D01*
X251778Y49213D01*
X251799Y49170D01*
X251820Y49139D01*
X251830Y49118D01*
Y49107D01*
X251978Y48906D01*
X252137Y48737D01*
X252316Y48589D01*
X252486Y48473D01*
X252633Y48378D01*
X252760Y48314D01*
X252813Y48293D01*
X252845Y48272D01*
X252866Y48262D01*
X252876D01*
X253151Y48177D01*
X253426Y48114D01*
X253701Y48061D01*
X253954Y48029D01*
X254070Y48019D01*
X254176Y48008D01*
X254271D01*
X254345Y47997D01*
X254409D01*
X254461D01*
X254493D01*
X254504D01*
X254778Y48008D01*
X255032Y48029D01*
X255264Y48071D01*
X255476Y48114D01*
X255655Y48145D01*
X255729Y48167D01*
X255793Y48188D01*
X255846Y48198D01*
X255877Y48209D01*
X255898Y48219D01*
X255909D01*
X256152Y48325D01*
X256374Y48441D01*
X256554Y48568D01*
X256712Y48706D01*
X256839Y48822D01*
X256923Y48917D01*
X256976Y48991D01*
X256997Y49001D01*
Y49012D01*
X257135Y49234D01*
X257240Y49477D01*
X257314Y49709D01*
X257357Y49931D01*
X257388Y50132D01*
X257399Y50216D01*
Y50290D01*
X257409Y50343D01*
Y50428D01*
X257399Y50692D01*
X257357Y50935D01*
X257293Y51136D01*
X257230Y51315D01*
X257156Y51453D01*
X257103Y51558D01*
X257061Y51622D01*
X257040Y51643D01*
X256881Y51812D01*
X256702Y51971D01*
X256511Y52097D01*
X256321Y52203D01*
X256152Y52288D01*
X256068Y52319D01*
X256004Y52340D01*
X255951Y52361D01*
X255909Y52383D01*
X255888Y52393D01*
X255877D01*
X256099Y53344D01*
X256289Y53281D01*
X256458Y53217D01*
X256617Y53133D01*
X256775Y53059D01*
X256913Y52974D01*
X257040Y52879D01*
X257166Y52795D01*
X257272Y52710D01*
X257357Y52626D01*
X257441Y52552D01*
X257515Y52478D01*
X257568Y52425D01*
X257621Y52372D01*
X257652Y52330D01*
X257663Y52309D01*
X257674Y52298D01*
X257769Y52150D01*
X257864Y52002D01*
X257938Y51854D01*
X258001Y51696D01*
X258096Y51379D01*
X258160Y51094D01*
X258191Y50956D01*
X258202Y50840D01*
X258213Y50724D01*
X258223Y50628D01*
X258234Y50555D01*
Y50449D01*
X258213Y50100D01*
X258160Y49762D01*
X258096Y49466D01*
X258054Y49329D01*
X258012Y49202D01*
X257969Y49086D01*
X257927Y48980D01*
X257896Y48896D01*
X257864Y48811D01*
X257832Y48758D01*
X257811Y48716D01*
X257800Y48684D01*
X257790Y48674D01*
X257610Y48389D01*
X257399Y48145D01*
X257188Y47934D01*
X256976Y47755D01*
X256786Y47617D01*
X256702Y47564D01*
X256628Y47522D01*
X256575Y47480D01*
X256532Y47459D01*
X256501Y47448D01*
X256490Y47438D01*
X256163Y47290D01*
X255825Y47184D01*
X255486Y47110D01*
X255180Y47057D01*
X255043Y47036D01*
X254905Y47025D01*
X254800Y47015D01*
X254694D01*
X254620Y47004D01*
X254557D01*
X254514D01*
X254504D01*
X254123Y47025D01*
X253754Y47068D01*
X253426Y47120D01*
X253267Y47163D01*
X253130Y47194D01*
X253003Y47226D01*
X252887Y47268D01*
X252781Y47300D01*
X252697Y47321D01*
X252633Y47353D01*
X252581Y47364D01*
X252549Y47385D01*
X252538D01*
X252221Y47543D01*
X251936Y47723D01*
X251693Y47913D01*
X251598Y48008D01*
X251503Y48093D01*
X251418Y48177D01*
X251344Y48262D01*
X251281Y48336D01*
X251239Y48399D01*
X251196Y48441D01*
X251165Y48484D01*
X251154Y48505D01*
X251144Y48515D01*
X251059Y48663D01*
X250985Y48811D01*
X250869Y49128D01*
X250784Y49445D01*
X250732Y49752D01*
X250710Y49900D01*
X250689Y50026D01*
X250679Y50142D01*
Y50238D01*
X250668Y50322D01*
Y50438D01*
X250679Y50650D01*
X250700Y50850D01*
X250721Y51041D01*
X250763Y51220D01*
X250816Y51389D01*
X250869Y51548D01*
X250922Y51696D01*
X250985Y51833D01*
X251038Y51949D01*
X251091Y52066D01*
X251144Y52150D01*
X251196Y52235D01*
X251239Y52288D01*
X251260Y52340D01*
X251281Y52361D01*
X251292Y52372D01*
X251418Y52520D01*
X251545Y52647D01*
X251693Y52763D01*
X251841Y52879D01*
X252137Y53069D01*
X252433Y53217D01*
X252570Y53281D01*
X252697Y53334D01*
X252813Y53376D01*
X252908Y53408D01*
X252993Y53439D01*
X253056Y53460D01*
X253098Y53471D01*
X253109D01*
X253352Y52499D01*
D02*
G37*
G36*
X258107Y45398D02*
X253405Y44257D01*
X253077Y44173D01*
X252781Y44109D01*
X252507Y44046D01*
X252274Y43993D01*
X252169Y43961D01*
X252073Y43951D01*
X251999Y43930D01*
X251936Y43919D01*
X251883Y43898D01*
X251841D01*
X251820Y43887D01*
X251809D01*
X252274Y43813D01*
X252729Y43718D01*
X253162Y43623D01*
X253363Y43581D01*
X253563Y43528D01*
X253743Y43486D01*
X253901Y43443D01*
X254039Y43401D01*
X254166Y43369D01*
X254261Y43348D01*
X254335Y43327D01*
X254387Y43306D01*
X254398D01*
X258107Y42270D01*
Y41098D01*
X253162Y39713D01*
X253120Y39703D01*
X253056Y39682D01*
X252972Y39661D01*
X252876Y39639D01*
X252771Y39608D01*
X252655Y39587D01*
X252422Y39523D01*
X252190Y39470D01*
X252084Y39439D01*
X251999Y39418D01*
X251915Y39407D01*
X251862Y39386D01*
X251820Y39375D01*
X251809D01*
X252084Y39323D01*
X252359Y39270D01*
X252612Y39217D01*
X252834Y39164D01*
X252940Y39143D01*
X253035Y39122D01*
X253109Y39101D01*
X253183Y39090D01*
X253236Y39079D01*
X253278Y39069D01*
X253299Y39058D01*
X253310D01*
X258107Y37970D01*
Y36966D01*
X250795Y38879D01*
Y39893D01*
X256363Y41436D01*
X256501Y41478D01*
X256649Y41510D01*
X256797Y41552D01*
X256923Y41584D01*
X257040Y41615D01*
X257135Y41637D01*
X257198Y41647D01*
X257209Y41658D01*
X257219D01*
X257188Y41668D01*
X257135Y41679D01*
X257019Y41711D01*
X256881Y41753D01*
X256733Y41795D01*
X256596Y41827D01*
X256480Y41858D01*
X256427Y41869D01*
X256395Y41880D01*
X256374Y41890D01*
X256363D01*
X250795Y43422D01*
Y44373D01*
X258107Y46381D01*
Y45398D01*
D02*
G37*
G36*
X253056Y36300D02*
X253257Y36269D01*
X253437Y36216D01*
X253584Y36163D01*
X253711Y36100D01*
X253806Y36058D01*
X253859Y36015D01*
X253880Y36005D01*
X254039Y35878D01*
X254187Y35730D01*
X254314Y35571D01*
X254430Y35413D01*
X254514Y35276D01*
X254578Y35159D01*
X254599Y35117D01*
X254620Y35085D01*
X254631Y35064D01*
Y35054D01*
X254673Y34969D01*
X254704Y34864D01*
X254747Y34747D01*
X254789Y34620D01*
X254863Y34356D01*
X254937Y34082D01*
X254969Y33955D01*
X255000Y33839D01*
X255032Y33722D01*
X255053Y33627D01*
X255074Y33553D01*
X255085Y33490D01*
X255095Y33448D01*
Y33437D01*
X255148Y33226D01*
X255191Y33036D01*
X255243Y32866D01*
X255286Y32719D01*
X255338Y32581D01*
X255381Y32465D01*
X255423Y32359D01*
X255455Y32264D01*
X255497Y32190D01*
X255529Y32127D01*
X255550Y32085D01*
X255581Y32042D01*
X255613Y31989D01*
X255624Y31979D01*
X255729Y31884D01*
X255835Y31820D01*
X255941Y31767D01*
X256046Y31736D01*
X256131Y31715D01*
X256205Y31704D01*
X256247D01*
X256268D01*
X256437Y31725D01*
X256585Y31767D01*
X256712Y31831D01*
X256828Y31905D01*
X256913Y31968D01*
X256987Y32032D01*
X257029Y32074D01*
X257040Y32095D01*
X257092Y32180D01*
X257145Y32264D01*
X257230Y32465D01*
X257283Y32676D01*
X257325Y32888D01*
X257346Y33078D01*
X257357Y33162D01*
X257367Y33226D01*
Y33374D01*
X257357Y33670D01*
X257314Y33934D01*
X257251Y34145D01*
X257188Y34325D01*
X257124Y34462D01*
X257061Y34568D01*
X257019Y34620D01*
X257008Y34642D01*
X256860Y34790D01*
X256702Y34906D01*
X256532Y35001D01*
X256363Y35064D01*
X256205Y35106D01*
X256089Y35138D01*
X256036Y35149D01*
X256004Y35159D01*
X255983D01*
X255972D01*
X256046Y36089D01*
X256279Y36068D01*
X256490Y36015D01*
X256691Y35962D01*
X256860Y35888D01*
X256997Y35825D01*
X257103Y35772D01*
X257135Y35751D01*
X257166Y35730D01*
X257177Y35719D01*
X257188D01*
X257367Y35582D01*
X257526Y35434D01*
X257663Y35276D01*
X257769Y35117D01*
X257864Y34980D01*
X257917Y34874D01*
X257938Y34832D01*
X257959Y34800D01*
X257969Y34779D01*
Y34768D01*
X258054Y34536D01*
X258117Y34282D01*
X258170Y34050D01*
X258202Y33828D01*
X258223Y33627D01*
Y33553D01*
X258234Y33479D01*
Y33342D01*
X258223Y33067D01*
X258191Y32824D01*
X258149Y32592D01*
X258107Y32391D01*
X258065Y32232D01*
X258043Y32159D01*
X258022Y32106D01*
X258001Y32063D01*
X257991Y32032D01*
X257980Y32011D01*
Y32000D01*
X257874Y31789D01*
X257758Y31598D01*
X257631Y31440D01*
X257515Y31313D01*
X257409Y31218D01*
X257325Y31144D01*
X257262Y31091D01*
X257251Y31081D01*
X257240D01*
X257061Y30975D01*
X256881Y30901D01*
X256702Y30848D01*
X256543Y30817D01*
X256406Y30795D01*
X256300Y30774D01*
X256258D01*
X256226D01*
X256215D01*
X256205D01*
X256025Y30785D01*
X255856Y30817D01*
X255698Y30859D01*
X255560Y30901D01*
X255455Y30943D01*
X255370Y30986D01*
X255317Y31017D01*
X255296Y31028D01*
X255148Y31133D01*
X255011Y31260D01*
X254895Y31387D01*
X254800Y31514D01*
X254715Y31620D01*
X254662Y31715D01*
X254620Y31778D01*
X254609Y31789D01*
Y31799D01*
X254567Y31884D01*
X254525Y31979D01*
X254451Y32190D01*
X254377Y32433D01*
X254303Y32666D01*
X254240Y32877D01*
X254218Y32972D01*
X254197Y33057D01*
X254176Y33120D01*
X254166Y33173D01*
X254155Y33205D01*
Y33215D01*
X254113Y33395D01*
X254070Y33564D01*
X254028Y33712D01*
X253997Y33839D01*
X253965Y33965D01*
X253933Y34071D01*
X253912Y34166D01*
X253880Y34240D01*
X253859Y34314D01*
X253849Y34367D01*
X253817Y34451D01*
X253806Y34504D01*
X253796Y34515D01*
X253732Y34673D01*
X253658Y34811D01*
X253584Y34927D01*
X253521Y35011D01*
X253458Y35085D01*
X253415Y35128D01*
X253384Y35159D01*
X253373Y35170D01*
X253278Y35244D01*
X253172Y35297D01*
X253067Y35328D01*
X252982Y35360D01*
X252898Y35371D01*
X252834Y35381D01*
X252781D01*
X252771D01*
X252644Y35371D01*
X252528Y35350D01*
X252422Y35318D01*
X252338Y35276D01*
X252253Y35233D01*
X252200Y35202D01*
X252158Y35180D01*
X252147Y35170D01*
X252042Y35085D01*
X251957Y34980D01*
X251883Y34874D01*
X251809Y34779D01*
X251767Y34684D01*
X251725Y34610D01*
X251704Y34557D01*
X251693Y34536D01*
X251640Y34377D01*
X251598Y34208D01*
X251577Y34039D01*
X251556Y33891D01*
X251545Y33765D01*
X251535Y33659D01*
Y33564D01*
X251545Y33331D01*
X251566Y33120D01*
X251598Y32930D01*
X251640Y32761D01*
X251682Y32623D01*
X251714Y32518D01*
X251725Y32486D01*
X251735Y32454D01*
X251746Y32444D01*
Y32433D01*
X251830Y32264D01*
X251926Y32106D01*
X252021Y31989D01*
X252116Y31884D01*
X252190Y31799D01*
X252264Y31746D01*
X252306Y31715D01*
X252316Y31704D01*
X252454Y31630D01*
X252602Y31556D01*
X252760Y31514D01*
X252898Y31472D01*
X253035Y31440D01*
X253130Y31419D01*
X253172D01*
X253204Y31408D01*
X253215D01*
X253225D01*
X253141Y30500D01*
X252876Y30521D01*
X252623Y30563D01*
X252401Y30626D01*
X252200Y30700D01*
X252042Y30774D01*
X251978Y30806D01*
X251926Y30827D01*
X251883Y30859D01*
X251852Y30869D01*
X251830Y30891D01*
X251820D01*
X251619Y31049D01*
X251439Y31218D01*
X251292Y31398D01*
X251165Y31567D01*
X251070Y31715D01*
X251006Y31841D01*
X250985Y31884D01*
X250964Y31916D01*
X250953Y31937D01*
Y31947D01*
X250858Y32211D01*
X250784Y32486D01*
X250742Y32761D01*
X250700Y33025D01*
X250689Y33152D01*
X250679Y33257D01*
Y33352D01*
X250668Y33437D01*
Y33606D01*
X250679Y33891D01*
X250710Y34155D01*
X250763Y34399D01*
X250816Y34599D01*
X250858Y34768D01*
X250890Y34842D01*
X250911Y34906D01*
X250932Y34948D01*
X250943Y34980D01*
X250953Y35001D01*
Y35011D01*
X251070Y35233D01*
X251196Y35424D01*
X251334Y35593D01*
X251461Y35730D01*
X251566Y35836D01*
X251661Y35910D01*
X251725Y35962D01*
X251735Y35973D01*
X251746D01*
X251947Y36089D01*
X252137Y36174D01*
X252316Y36226D01*
X252486Y36269D01*
X252633Y36290D01*
X252750Y36311D01*
X252792D01*
X252824D01*
X252834D01*
X252845D01*
X253056Y36300D01*
D02*
G37*
G36*
X229717Y64185D02*
X230087Y64143D01*
X230256Y64111D01*
X230425Y64069D01*
X230573Y64027D01*
X230710Y63995D01*
X230837Y63953D01*
X230953Y63910D01*
X231048Y63879D01*
X231133Y63836D01*
X231196Y63815D01*
X231239Y63794D01*
X231270Y63773D01*
X231281D01*
X231587Y63604D01*
X231862Y63403D01*
X232094Y63192D01*
X232285Y63002D01*
X232433Y62822D01*
X232496Y62738D01*
X232549Y62674D01*
X232581Y62611D01*
X232612Y62569D01*
X232623Y62547D01*
X232633Y62537D01*
X232718Y62378D01*
X232792Y62220D01*
X232919Y61913D01*
X233003Y61596D01*
X233056Y61322D01*
X233077Y61195D01*
X233098Y61068D01*
X233109Y60973D01*
Y60878D01*
X233119Y60804D01*
Y60709D01*
X233109Y60424D01*
X233077Y60159D01*
X233024Y59906D01*
X232961Y59663D01*
X232876Y59441D01*
X232792Y59230D01*
X232697Y59039D01*
X232602Y58870D01*
X232507Y58712D01*
X232411Y58575D01*
X232327Y58458D01*
X232242Y58363D01*
X232179Y58289D01*
X232126Y58226D01*
X232094Y58194D01*
X232084Y58183D01*
X231883Y58014D01*
X231672Y57867D01*
X231439Y57729D01*
X231207Y57624D01*
X230964Y57528D01*
X230731Y57444D01*
X230499Y57380D01*
X230277Y57338D01*
X230066Y57296D01*
X229865Y57264D01*
X229685Y57243D01*
X229537Y57222D01*
X229411D01*
X229315Y57211D01*
X229252D01*
X229242D01*
X229231D01*
X228872Y57233D01*
X228544Y57275D01*
X228227Y57338D01*
X228090Y57380D01*
X227952Y57423D01*
X227836Y57454D01*
X227731Y57497D01*
X227635Y57528D01*
X227551Y57560D01*
X227488Y57581D01*
X227445Y57602D01*
X227414Y57624D01*
X227403D01*
X227097Y57803D01*
X226832Y57993D01*
X226600Y58205D01*
X226410Y58405D01*
X226251Y58585D01*
X226188Y58659D01*
X226146Y58722D01*
X226103Y58786D01*
X226072Y58828D01*
X226061Y58849D01*
X226050Y58860D01*
X225966Y59018D01*
X225892Y59177D01*
X225765Y59494D01*
X225681Y59800D01*
X225617Y60086D01*
X225596Y60223D01*
X225586Y60339D01*
X225564Y60445D01*
Y60540D01*
X225554Y60603D01*
Y60709D01*
X225575Y61058D01*
X225628Y61385D01*
X225691Y61692D01*
X225734Y61829D01*
X225776Y61956D01*
X225818Y62072D01*
X225860Y62178D01*
X225892Y62262D01*
X225924Y62336D01*
X225955Y62400D01*
X225977Y62452D01*
X225998Y62474D01*
Y62484D01*
X226188Y62780D01*
X226399Y63033D01*
X226621Y63245D01*
X226832Y63425D01*
X227033Y63572D01*
X227107Y63625D01*
X227181Y63667D01*
X227244Y63710D01*
X227287Y63731D01*
X227318Y63752D01*
X227329D01*
X227498Y63836D01*
X227667Y63900D01*
X228005Y64016D01*
X228343Y64101D01*
X228650Y64153D01*
X228787Y64164D01*
X228914Y64185D01*
X229030Y64196D01*
X229125D01*
X229210Y64206D01*
X229263D01*
X229305D01*
X229315D01*
X229717Y64185D01*
D02*
G37*
G36*
X232993Y54823D02*
X225681D01*
Y55795D01*
X232993D01*
Y54823D01*
D02*
G37*
G36*
X229728Y53323D02*
X230055Y53291D01*
X230351Y53239D01*
X230488Y53217D01*
X230605Y53186D01*
X230721Y53154D01*
X230816Y53133D01*
X230900Y53112D01*
X230975Y53080D01*
X231038Y53069D01*
X231080Y53048D01*
X231101Y53038D01*
X231112D01*
X231387Y52922D01*
X231630Y52784D01*
X231841Y52636D01*
X232020Y52499D01*
X232169Y52372D01*
X232274Y52266D01*
X232306Y52224D01*
X232337Y52192D01*
X232348Y52182D01*
X232359Y52171D01*
X232496Y52002D01*
X232602Y51823D01*
X232697Y51643D01*
X232771Y51474D01*
X232824Y51326D01*
X232855Y51210D01*
X232876Y51167D01*
Y51136D01*
X232887Y51115D01*
Y51104D01*
X232919Y50924D01*
X232950Y50713D01*
X232971Y50502D01*
X232982Y50290D01*
X232993Y50100D01*
Y47290D01*
X225681D01*
Y49921D01*
X225691Y50164D01*
X225702Y50385D01*
X225723Y50586D01*
X225744Y50755D01*
X225765Y50903D01*
X225776Y51009D01*
X225786Y51041D01*
X225797Y51072D01*
Y51094D01*
X225850Y51284D01*
X225913Y51453D01*
X225966Y51601D01*
X226029Y51727D01*
X226082Y51833D01*
X226124Y51907D01*
X226156Y51949D01*
X226167Y51971D01*
X226262Y52108D01*
X226378Y52224D01*
X226484Y52340D01*
X226589Y52435D01*
X226684Y52520D01*
X226758Y52583D01*
X226811Y52626D01*
X226832Y52636D01*
X227001Y52742D01*
X227181Y52847D01*
X227350Y52932D01*
X227519Y52995D01*
X227667Y53059D01*
X227783Y53101D01*
X227826Y53112D01*
X227857Y53122D01*
X227878Y53133D01*
X227889D01*
X228143Y53196D01*
X228396Y53249D01*
X228639Y53281D01*
X228872Y53312D01*
X229072Y53323D01*
X229157D01*
X229231Y53334D01*
X229284D01*
X229337D01*
X229358D01*
X229368D01*
X229728Y53323D01*
D02*
G37*
G36*
X232993Y45398D02*
X228291Y44257D01*
X227963Y44173D01*
X227667Y44109D01*
X227393Y44046D01*
X227160Y43993D01*
X227054Y43961D01*
X226959Y43951D01*
X226885Y43930D01*
X226822Y43919D01*
X226769Y43898D01*
X226727D01*
X226706Y43887D01*
X226695D01*
X227160Y43813D01*
X227614Y43718D01*
X228048Y43623D01*
X228248Y43581D01*
X228449Y43528D01*
X228629Y43486D01*
X228787Y43443D01*
X228925Y43401D01*
X229051Y43369D01*
X229146Y43348D01*
X229220Y43327D01*
X229273Y43306D01*
X229284D01*
X232993Y42270D01*
Y41098D01*
X228048Y39713D01*
X228005Y39703D01*
X227942Y39682D01*
X227857Y39661D01*
X227762Y39639D01*
X227657Y39608D01*
X227540Y39587D01*
X227308Y39523D01*
X227076Y39470D01*
X226970Y39439D01*
X226885Y39418D01*
X226801Y39407D01*
X226748Y39386D01*
X226706Y39375D01*
X226695D01*
X226970Y39323D01*
X227244Y39270D01*
X227498Y39217D01*
X227720Y39164D01*
X227826Y39143D01*
X227921Y39122D01*
X227995Y39101D01*
X228069Y39090D01*
X228121Y39079D01*
X228164Y39069D01*
X228185Y39058D01*
X228195D01*
X232993Y37970D01*
Y36966D01*
X225681Y38879D01*
Y39893D01*
X231249Y41436D01*
X231387Y41478D01*
X231535Y41510D01*
X231682Y41552D01*
X231809Y41584D01*
X231925Y41615D01*
X232020Y41637D01*
X232084Y41647D01*
X232094Y41658D01*
X232105D01*
X232073Y41668D01*
X232020Y41679D01*
X231904Y41711D01*
X231767Y41753D01*
X231619Y41795D01*
X231482Y41827D01*
X231365Y41858D01*
X231313Y41869D01*
X231281Y41880D01*
X231260Y41890D01*
X231249D01*
X225681Y43422D01*
Y44373D01*
X232993Y46381D01*
Y45398D01*
D02*
G37*
G36*
X227942Y36300D02*
X228143Y36269D01*
X228322Y36216D01*
X228470Y36163D01*
X228597Y36100D01*
X228692Y36058D01*
X228745Y36015D01*
X228766Y36005D01*
X228925Y35878D01*
X229072Y35730D01*
X229199Y35571D01*
X229315Y35413D01*
X229400Y35276D01*
X229464Y35159D01*
X229485Y35117D01*
X229506Y35085D01*
X229516Y35064D01*
Y35054D01*
X229559Y34969D01*
X229590Y34864D01*
X229632Y34747D01*
X229675Y34620D01*
X229749Y34356D01*
X229823Y34082D01*
X229854Y33955D01*
X229886Y33839D01*
X229918Y33722D01*
X229939Y33627D01*
X229960Y33553D01*
X229971Y33490D01*
X229981Y33448D01*
Y33437D01*
X230034Y33226D01*
X230076Y33036D01*
X230129Y32866D01*
X230171Y32719D01*
X230224Y32581D01*
X230266Y32465D01*
X230309Y32359D01*
X230340Y32264D01*
X230383Y32190D01*
X230414Y32127D01*
X230436Y32085D01*
X230467Y32042D01*
X230499Y31989D01*
X230509Y31979D01*
X230615Y31884D01*
X230721Y31820D01*
X230826Y31767D01*
X230932Y31736D01*
X231017Y31715D01*
X231091Y31704D01*
X231133D01*
X231154D01*
X231323Y31725D01*
X231471Y31767D01*
X231598Y31831D01*
X231714Y31905D01*
X231799Y31968D01*
X231873Y32032D01*
X231915Y32074D01*
X231925Y32095D01*
X231978Y32180D01*
X232031Y32264D01*
X232116Y32465D01*
X232169Y32676D01*
X232211Y32888D01*
X232232Y33078D01*
X232242Y33162D01*
X232253Y33226D01*
Y33374D01*
X232242Y33670D01*
X232200Y33934D01*
X232137Y34145D01*
X232073Y34325D01*
X232010Y34462D01*
X231947Y34568D01*
X231904Y34620D01*
X231894Y34642D01*
X231746Y34790D01*
X231587Y34906D01*
X231418Y35001D01*
X231249Y35064D01*
X231091Y35106D01*
X230975Y35138D01*
X230922Y35149D01*
X230890Y35159D01*
X230869D01*
X230858D01*
X230932Y36089D01*
X231165Y36068D01*
X231376Y36015D01*
X231577Y35962D01*
X231746Y35888D01*
X231883Y35825D01*
X231989Y35772D01*
X232020Y35751D01*
X232052Y35730D01*
X232063Y35719D01*
X232073D01*
X232253Y35582D01*
X232411Y35434D01*
X232549Y35276D01*
X232654Y35117D01*
X232750Y34980D01*
X232803Y34874D01*
X232824Y34832D01*
X232845Y34800D01*
X232855Y34779D01*
Y34768D01*
X232940Y34536D01*
X233003Y34282D01*
X233056Y34050D01*
X233088Y33828D01*
X233109Y33627D01*
Y33553D01*
X233119Y33479D01*
Y33342D01*
X233109Y33067D01*
X233077Y32824D01*
X233035Y32592D01*
X232993Y32391D01*
X232950Y32232D01*
X232929Y32159D01*
X232908Y32106D01*
X232887Y32063D01*
X232876Y32032D01*
X232866Y32011D01*
Y32000D01*
X232760Y31789D01*
X232644Y31598D01*
X232517Y31440D01*
X232401Y31313D01*
X232295Y31218D01*
X232211Y31144D01*
X232147Y31091D01*
X232137Y31081D01*
X232126D01*
X231947Y30975D01*
X231767Y30901D01*
X231587Y30848D01*
X231429Y30817D01*
X231292Y30795D01*
X231186Y30774D01*
X231143D01*
X231112D01*
X231101D01*
X231091D01*
X230911Y30785D01*
X230742Y30817D01*
X230583Y30859D01*
X230446Y30901D01*
X230340Y30943D01*
X230256Y30986D01*
X230203Y31017D01*
X230182Y31028D01*
X230034Y31133D01*
X229897Y31260D01*
X229781Y31387D01*
X229685Y31514D01*
X229601Y31620D01*
X229548Y31715D01*
X229506Y31778D01*
X229495Y31789D01*
Y31799D01*
X229453Y31884D01*
X229411Y31979D01*
X229337Y32190D01*
X229263Y32433D01*
X229189Y32666D01*
X229125Y32877D01*
X229104Y32972D01*
X229083Y33057D01*
X229062Y33120D01*
X229051Y33173D01*
X229041Y33205D01*
Y33215D01*
X228999Y33395D01*
X228956Y33564D01*
X228914Y33712D01*
X228882Y33839D01*
X228851Y33965D01*
X228819Y34071D01*
X228798Y34166D01*
X228766Y34240D01*
X228745Y34314D01*
X228734Y34367D01*
X228703Y34451D01*
X228692Y34504D01*
X228682Y34515D01*
X228618Y34673D01*
X228544Y34811D01*
X228470Y34927D01*
X228407Y35011D01*
X228343Y35085D01*
X228301Y35128D01*
X228270Y35159D01*
X228259Y35170D01*
X228164Y35244D01*
X228058Y35297D01*
X227952Y35328D01*
X227868Y35360D01*
X227783Y35371D01*
X227720Y35381D01*
X227667D01*
X227657D01*
X227530Y35371D01*
X227414Y35350D01*
X227308Y35318D01*
X227223Y35276D01*
X227139Y35233D01*
X227086Y35202D01*
X227044Y35180D01*
X227033Y35170D01*
X226928Y35085D01*
X226843Y34980D01*
X226769Y34874D01*
X226695Y34779D01*
X226653Y34684D01*
X226611Y34610D01*
X226589Y34557D01*
X226579Y34536D01*
X226526Y34377D01*
X226484Y34208D01*
X226463Y34039D01*
X226441Y33891D01*
X226431Y33765D01*
X226420Y33659D01*
Y33564D01*
X226431Y33331D01*
X226452Y33120D01*
X226484Y32930D01*
X226526Y32761D01*
X226568Y32623D01*
X226600Y32518D01*
X226611Y32486D01*
X226621Y32454D01*
X226632Y32444D01*
Y32433D01*
X226716Y32264D01*
X226811Y32106D01*
X226906Y31989D01*
X227001Y31884D01*
X227076Y31799D01*
X227149Y31746D01*
X227192Y31715D01*
X227202Y31704D01*
X227340Y31630D01*
X227488Y31556D01*
X227646Y31514D01*
X227783Y31472D01*
X227921Y31440D01*
X228016Y31419D01*
X228058D01*
X228090Y31408D01*
X228100D01*
X228111D01*
X228026Y30500D01*
X227762Y30521D01*
X227509Y30563D01*
X227287Y30626D01*
X227086Y30700D01*
X226928Y30774D01*
X226864Y30806D01*
X226811Y30827D01*
X226769Y30859D01*
X226737Y30869D01*
X226716Y30891D01*
X226706D01*
X226505Y31049D01*
X226325Y31218D01*
X226177Y31398D01*
X226050Y31567D01*
X225955Y31715D01*
X225892Y31841D01*
X225871Y31884D01*
X225850Y31916D01*
X225839Y31937D01*
Y31947D01*
X225744Y32211D01*
X225670Y32486D01*
X225628Y32761D01*
X225586Y33025D01*
X225575Y33152D01*
X225564Y33257D01*
Y33352D01*
X225554Y33437D01*
Y33606D01*
X225564Y33891D01*
X225596Y34155D01*
X225649Y34399D01*
X225702Y34599D01*
X225744Y34768D01*
X225776Y34842D01*
X225797Y34906D01*
X225818Y34948D01*
X225829Y34980D01*
X225839Y35001D01*
Y35011D01*
X225955Y35233D01*
X226082Y35424D01*
X226220Y35593D01*
X226346Y35730D01*
X226452Y35836D01*
X226547Y35910D01*
X226611Y35962D01*
X226621Y35973D01*
X226632D01*
X226832Y36089D01*
X227023Y36174D01*
X227202Y36226D01*
X227371Y36269D01*
X227519Y36290D01*
X227635Y36311D01*
X227678D01*
X227710D01*
X227720D01*
X227731D01*
X227942Y36300D01*
D02*
G37*
G36*
X295551Y203832D02*
X295831Y203816D01*
X296095Y203767D01*
X296341Y203717D01*
X296572Y203651D01*
X296786Y203585D01*
X296983Y203503D01*
X297164Y203421D01*
X297329Y203339D01*
X297461Y203256D01*
X297576Y203190D01*
X297675Y203125D01*
X297757Y203075D01*
X297806Y203026D01*
X297839Y203009D01*
X297856Y202993D01*
X298020Y202828D01*
X298168Y202647D01*
X298317Y202450D01*
X298432Y202252D01*
X298629Y201857D01*
X298761Y201462D01*
X298810Y201281D01*
X298860Y201100D01*
X298893Y200952D01*
X298926Y200820D01*
X298942Y200705D01*
Y200623D01*
X298958Y200574D01*
Y200557D01*
X297526Y200409D01*
X297494Y200788D01*
X297428Y201117D01*
X297329Y201413D01*
X297214Y201643D01*
X297115Y201841D01*
X297016Y201973D01*
X296950Y202055D01*
X296917Y202088D01*
X296671Y202285D01*
X296407Y202433D01*
X296127Y202549D01*
X295881Y202614D01*
X295650Y202664D01*
X295453Y202680D01*
X295387Y202697D01*
X295288D01*
X294942Y202680D01*
X294630Y202614D01*
X294366Y202516D01*
X294136Y202417D01*
X293955Y202302D01*
X293840Y202219D01*
X293757Y202154D01*
X293724Y202121D01*
X293527Y201890D01*
X293379Y201660D01*
X293264Y201429D01*
X293198Y201199D01*
X293148Y201018D01*
X293132Y200853D01*
X293116Y200755D01*
Y200738D01*
Y200722D01*
X293148Y200425D01*
X293214Y200113D01*
X293329Y199833D01*
X293445Y199569D01*
X293576Y199356D01*
X293692Y199174D01*
X293724Y199109D01*
X293757Y199059D01*
X293790Y199043D01*
Y199026D01*
X293922Y198845D01*
X294087Y198664D01*
X294268Y198467D01*
X294465Y198269D01*
X294877Y197874D01*
X295288Y197479D01*
X295502Y197298D01*
X295683Y197134D01*
X295864Y196985D01*
X296012Y196854D01*
X296127Y196755D01*
X296226Y196673D01*
X296292Y196623D01*
X296309Y196607D01*
X296720Y196261D01*
X297099Y195932D01*
X297411Y195636D01*
X297658Y195389D01*
X297872Y195175D01*
X298020Y195027D01*
X298103Y194928D01*
X298136Y194911D01*
Y194895D01*
X298366Y194615D01*
X298547Y194352D01*
X298712Y194089D01*
X298843Y193858D01*
X298942Y193661D01*
X299008Y193512D01*
X299041Y193414D01*
X299057Y193397D01*
Y193381D01*
X299123Y193200D01*
X299156Y193035D01*
X299189Y192871D01*
X299205Y192722D01*
X299222Y192591D01*
Y192492D01*
Y192426D01*
Y192410D01*
X291667D01*
Y193759D01*
X297280D01*
X297082Y194039D01*
X296983Y194154D01*
X296901Y194270D01*
X296819Y194368D01*
X296753Y194434D01*
X296704Y194484D01*
X296687Y194500D01*
X296605Y194582D01*
X296506Y194665D01*
X296276Y194879D01*
X296012Y195126D01*
X295732Y195372D01*
X295469Y195586D01*
X295354Y195685D01*
X295255Y195784D01*
X295173Y195850D01*
X295107Y195899D01*
X295074Y195932D01*
X295058Y195949D01*
X294794Y196179D01*
X294531Y196393D01*
X294300Y196607D01*
X294087Y196788D01*
X293889Y196969D01*
X293724Y197134D01*
X293560Y197282D01*
X293428Y197413D01*
X293297Y197545D01*
X293198Y197644D01*
X293116Y197726D01*
X293033Y197808D01*
X292951Y197907D01*
X292918Y197940D01*
X292687Y198220D01*
X292490Y198467D01*
X292325Y198714D01*
X292194Y198911D01*
X292095Y199092D01*
X292029Y199224D01*
X291996Y199306D01*
X291980Y199339D01*
X291881Y199586D01*
X291815Y199833D01*
X291749Y200063D01*
X291716Y200261D01*
X291700Y200442D01*
X291684Y200574D01*
Y200656D01*
Y200689D01*
X291700Y200936D01*
X291733Y201166D01*
X291766Y201396D01*
X291832Y201594D01*
X291996Y201989D01*
X292161Y202302D01*
X292260Y202450D01*
X292342Y202565D01*
X292424Y202680D01*
X292507Y202763D01*
X292572Y202828D01*
X292605Y202894D01*
X292638Y202911D01*
X292655Y202927D01*
X292836Y203092D01*
X293033Y203240D01*
X293247Y203355D01*
X293461Y203454D01*
X293889Y203618D01*
X294317Y203734D01*
X294498Y203767D01*
X294679Y203799D01*
X294844Y203816D01*
X294975Y203832D01*
X295091Y203849D01*
X295255D01*
X295551Y203832D01*
D02*
G37*
G36*
X277841D02*
X278121Y203816D01*
X278384Y203767D01*
X278631Y203717D01*
X278862Y203651D01*
X279076Y203585D01*
X279273Y203503D01*
X279454Y203421D01*
X279619Y203339D01*
X279751Y203256D01*
X279866Y203190D01*
X279965Y203125D01*
X280047Y203075D01*
X280096Y203026D01*
X280129Y203009D01*
X280146Y202993D01*
X280310Y202828D01*
X280458Y202647D01*
X280606Y202450D01*
X280722Y202252D01*
X280919Y201857D01*
X281051Y201462D01*
X281100Y201281D01*
X281150Y201100D01*
X281182Y200952D01*
X281215Y200820D01*
X281232Y200705D01*
Y200623D01*
X281248Y200574D01*
Y200557D01*
X279816Y200409D01*
X279783Y200788D01*
X279718Y201117D01*
X279619Y201413D01*
X279504Y201643D01*
X279405Y201841D01*
X279306Y201973D01*
X279240Y202055D01*
X279207Y202088D01*
X278961Y202285D01*
X278697Y202433D01*
X278417Y202549D01*
X278171Y202614D01*
X277940Y202664D01*
X277743Y202680D01*
X277677Y202697D01*
X277578D01*
X277232Y202680D01*
X276920Y202614D01*
X276656Y202516D01*
X276426Y202417D01*
X276245Y202302D01*
X276130Y202219D01*
X276047Y202154D01*
X276014Y202121D01*
X275817Y201890D01*
X275669Y201660D01*
X275553Y201429D01*
X275488Y201199D01*
X275438Y201018D01*
X275422Y200853D01*
X275405Y200755D01*
Y200738D01*
Y200722D01*
X275438Y200425D01*
X275504Y200113D01*
X275619Y199833D01*
X275735Y199569D01*
X275866Y199356D01*
X275981Y199174D01*
X276014Y199109D01*
X276047Y199059D01*
X276080Y199043D01*
Y199026D01*
X276212Y198845D01*
X276376Y198664D01*
X276558Y198467D01*
X276755Y198269D01*
X277167Y197874D01*
X277578Y197479D01*
X277792Y197298D01*
X277973Y197134D01*
X278154Y196985D01*
X278302Y196854D01*
X278417Y196755D01*
X278516Y196673D01*
X278582Y196623D01*
X278598Y196607D01*
X279010Y196261D01*
X279389Y195932D01*
X279701Y195636D01*
X279948Y195389D01*
X280162Y195175D01*
X280310Y195027D01*
X280392Y194928D01*
X280425Y194911D01*
Y194895D01*
X280656Y194615D01*
X280837Y194352D01*
X281001Y194089D01*
X281133Y193858D01*
X281232Y193661D01*
X281298Y193512D01*
X281331Y193414D01*
X281347Y193397D01*
Y193381D01*
X281413Y193200D01*
X281446Y193035D01*
X281479Y192871D01*
X281495Y192722D01*
X281512Y192591D01*
Y192492D01*
Y192426D01*
Y192410D01*
X273957D01*
Y193759D01*
X279569D01*
X279372Y194039D01*
X279273Y194154D01*
X279191Y194270D01*
X279109Y194368D01*
X279043Y194434D01*
X278993Y194484D01*
X278977Y194500D01*
X278895Y194582D01*
X278796Y194665D01*
X278566Y194879D01*
X278302Y195126D01*
X278022Y195372D01*
X277759Y195586D01*
X277644Y195685D01*
X277545Y195784D01*
X277463Y195850D01*
X277397Y195899D01*
X277364Y195932D01*
X277348Y195949D01*
X277084Y196179D01*
X276821Y196393D01*
X276590Y196607D01*
X276376Y196788D01*
X276179Y196969D01*
X276014Y197134D01*
X275850Y197282D01*
X275718Y197413D01*
X275586Y197545D01*
X275488Y197644D01*
X275405Y197726D01*
X275323Y197808D01*
X275241Y197907D01*
X275208Y197940D01*
X274977Y198220D01*
X274780Y198467D01*
X274615Y198714D01*
X274484Y198911D01*
X274385Y199092D01*
X274319Y199224D01*
X274286Y199306D01*
X274270Y199339D01*
X274171Y199586D01*
X274105Y199833D01*
X274039Y200063D01*
X274006Y200261D01*
X273990Y200442D01*
X273973Y200574D01*
Y200656D01*
Y200689D01*
X273990Y200936D01*
X274023Y201166D01*
X274056Y201396D01*
X274121Y201594D01*
X274286Y201989D01*
X274451Y202302D01*
X274550Y202450D01*
X274632Y202565D01*
X274714Y202680D01*
X274796Y202763D01*
X274862Y202828D01*
X274895Y202894D01*
X274928Y202911D01*
X274944Y202927D01*
X275126Y203092D01*
X275323Y203240D01*
X275537Y203355D01*
X275751Y203454D01*
X276179Y203618D01*
X276607Y203734D01*
X276788Y203767D01*
X276969Y203799D01*
X277134Y203816D01*
X277265Y203832D01*
X277381Y203849D01*
X277545D01*
X277841Y203832D01*
D02*
G37*
G36*
X231821D02*
X232101Y203816D01*
X232365Y203767D01*
X232611Y203717D01*
X232842Y203651D01*
X233056Y203585D01*
X233253Y203503D01*
X233434Y203421D01*
X233599Y203339D01*
X233731Y203256D01*
X233846Y203190D01*
X233945Y203125D01*
X234027Y203075D01*
X234076Y203026D01*
X234109Y203009D01*
X234126Y202993D01*
X234290Y202828D01*
X234438Y202647D01*
X234587Y202450D01*
X234702Y202252D01*
X234899Y201857D01*
X235031Y201462D01*
X235080Y201281D01*
X235130Y201100D01*
X235163Y200952D01*
X235196Y200820D01*
X235212Y200705D01*
Y200623D01*
X235229Y200574D01*
Y200557D01*
X233797Y200409D01*
X233764Y200788D01*
X233698Y201117D01*
X233599Y201413D01*
X233484Y201643D01*
X233385Y201841D01*
X233286Y201973D01*
X233220Y202055D01*
X233188Y202088D01*
X232941Y202285D01*
X232677Y202433D01*
X232397Y202549D01*
X232151Y202614D01*
X231920Y202664D01*
X231723Y202680D01*
X231657Y202697D01*
X231558D01*
X231212Y202680D01*
X230900Y202614D01*
X230636Y202516D01*
X230406Y202417D01*
X230225Y202302D01*
X230110Y202219D01*
X230027Y202153D01*
X229994Y202121D01*
X229797Y201890D01*
X229649Y201660D01*
X229534Y201429D01*
X229468Y201199D01*
X229418Y201018D01*
X229402Y200853D01*
X229385Y200755D01*
Y200738D01*
Y200722D01*
X229418Y200425D01*
X229484Y200113D01*
X229599Y199833D01*
X229715Y199569D01*
X229846Y199356D01*
X229961Y199174D01*
X229994Y199109D01*
X230027Y199059D01*
X230060Y199043D01*
Y199026D01*
X230192Y198845D01*
X230357Y198664D01*
X230538Y198467D01*
X230735Y198269D01*
X231147Y197874D01*
X231558Y197479D01*
X231772Y197298D01*
X231953Y197134D01*
X232134Y196985D01*
X232282Y196854D01*
X232397Y196755D01*
X232496Y196673D01*
X232562Y196623D01*
X232579Y196607D01*
X232990Y196261D01*
X233369Y195932D01*
X233681Y195636D01*
X233928Y195389D01*
X234142Y195175D01*
X234290Y195027D01*
X234373Y194928D01*
X234405Y194911D01*
Y194895D01*
X234636Y194615D01*
X234817Y194352D01*
X234982Y194089D01*
X235113Y193858D01*
X235212Y193661D01*
X235278Y193512D01*
X235311Y193414D01*
X235327Y193397D01*
Y193381D01*
X235393Y193200D01*
X235426Y193035D01*
X235459Y192871D01*
X235475Y192722D01*
X235492Y192591D01*
Y192492D01*
Y192426D01*
Y192410D01*
X227937Y192410D01*
Y193759D01*
X233550Y193759D01*
X233352Y194039D01*
X233253Y194154D01*
X233171Y194270D01*
X233089Y194368D01*
X233023Y194434D01*
X232973Y194484D01*
X232957Y194500D01*
X232875Y194582D01*
X232776Y194665D01*
X232546Y194879D01*
X232282Y195126D01*
X232003Y195372D01*
X231739Y195586D01*
X231624Y195685D01*
X231525Y195784D01*
X231443Y195850D01*
X231377Y195899D01*
X231344Y195932D01*
X231328Y195949D01*
X231064Y196179D01*
X230801Y196393D01*
X230571Y196607D01*
X230357Y196788D01*
X230159Y196969D01*
X229994Y197134D01*
X229830Y197282D01*
X229698Y197413D01*
X229566Y197545D01*
X229468Y197644D01*
X229385Y197726D01*
X229303Y197808D01*
X229221Y197907D01*
X229188Y197940D01*
X228958Y198220D01*
X228760Y198467D01*
X228595Y198714D01*
X228464Y198911D01*
X228365Y199092D01*
X228299Y199224D01*
X228266Y199306D01*
X228250Y199339D01*
X228151Y199586D01*
X228085Y199833D01*
X228019Y200063D01*
X227986Y200261D01*
X227970Y200442D01*
X227953Y200574D01*
Y200656D01*
Y200689D01*
X227970Y200936D01*
X228003Y201166D01*
X228036Y201396D01*
X228102Y201594D01*
X228266Y201989D01*
X228431Y202302D01*
X228530Y202450D01*
X228612Y202565D01*
X228694Y202680D01*
X228776Y202763D01*
X228842Y202828D01*
X228875Y202894D01*
X228908Y202911D01*
X228925Y202927D01*
X229106Y203092D01*
X229303Y203240D01*
X229517Y203355D01*
X229731Y203454D01*
X230159Y203618D01*
X230587Y203734D01*
X230768Y203767D01*
X230949Y203799D01*
X231114Y203816D01*
X231245Y203832D01*
X231360Y203849D01*
X231525D01*
X231821Y203832D01*
D02*
G37*
G36*
X268262Y203569D02*
X268443Y203306D01*
X268657Y203042D01*
X268855Y202812D01*
X269052Y202614D01*
X269200Y202450D01*
X269266Y202400D01*
X269315Y202351D01*
X269332Y202335D01*
X269348Y202318D01*
X269694Y202038D01*
X270040Y201775D01*
X270369Y201545D01*
X270698Y201364D01*
X270978Y201199D01*
X271093Y201133D01*
X271192Y201084D01*
X271274Y201034D01*
X271340Y201018D01*
X271373Y200985D01*
X271389D01*
Y199635D01*
X271142Y199734D01*
X270896Y199849D01*
X270649Y199965D01*
X270418Y200080D01*
X270221Y200179D01*
X270056Y200261D01*
X269957Y200327D01*
X269941Y200343D01*
X269925D01*
X269628Y200524D01*
X269365Y200705D01*
X269134Y200870D01*
X268953Y201018D01*
X268789Y201133D01*
X268690Y201232D01*
X268608Y201298D01*
X268591Y201314D01*
Y192410D01*
X267192D01*
Y203849D01*
X268097D01*
X268262Y203569D01*
D02*
G37*
G36*
X254107D02*
X254288Y203306D01*
X254502Y203042D01*
X254700Y202812D01*
X254897Y202614D01*
X255045Y202450D01*
X255111Y202400D01*
X255161Y202351D01*
X255177Y202335D01*
X255194Y202318D01*
X255539Y202038D01*
X255885Y201775D01*
X256214Y201545D01*
X256543Y201364D01*
X256823Y201199D01*
X256938Y201133D01*
X257037Y201084D01*
X257119Y201034D01*
X257185Y201018D01*
X257218Y200985D01*
X257234D01*
Y199635D01*
X256987Y199734D01*
X256741Y199849D01*
X256494Y199965D01*
X256263Y200080D01*
X256066Y200179D01*
X255901Y200261D01*
X255802Y200327D01*
X255786Y200343D01*
X255770D01*
X255473Y200524D01*
X255210Y200705D01*
X254979Y200870D01*
X254798Y201018D01*
X254634Y201133D01*
X254535Y201232D01*
X254453Y201298D01*
X254436Y201314D01*
Y192410D01*
X253037D01*
Y203849D01*
X253943D01*
X254107Y203569D01*
D02*
G37*
G36*
X245252D02*
X245433Y203306D01*
X245647Y203042D01*
X245845Y202812D01*
X246042Y202614D01*
X246190Y202450D01*
X246256Y202400D01*
X246306Y202351D01*
X246322Y202335D01*
X246338Y202318D01*
X246684Y202038D01*
X247030Y201775D01*
X247359Y201545D01*
X247688Y201364D01*
X247968Y201199D01*
X248083Y201133D01*
X248182Y201084D01*
X248264Y201034D01*
X248330Y201018D01*
X248363Y200985D01*
X248379D01*
Y199635D01*
X248132Y199734D01*
X247886Y199849D01*
X247639Y199965D01*
X247408Y200080D01*
X247211Y200179D01*
X247046Y200261D01*
X246947Y200327D01*
X246931Y200343D01*
X246915D01*
X246618Y200524D01*
X246355Y200705D01*
X246124Y200870D01*
X245943Y201018D01*
X245779Y201133D01*
X245680Y201232D01*
X245598Y201298D01*
X245581Y201314D01*
Y192410D01*
X244182D01*
Y203849D01*
X245088D01*
X245252Y203569D01*
D02*
G37*
G36*
X263769Y195833D02*
X259440D01*
Y197232D01*
X263769D01*
Y195833D01*
D02*
G37*
G36*
X240759D02*
X236430D01*
Y197232D01*
X240759D01*
Y195833D01*
D02*
G37*
G36*
X226917Y196426D02*
Y195142D01*
X221962D01*
Y192410D01*
X220563D01*
Y195142D01*
X219016D01*
Y196426D01*
X220563D01*
Y203799D01*
X221699D01*
X226917Y196426D01*
D02*
G37*
G36*
X286894Y203816D02*
X287305Y203750D01*
X287651Y203635D01*
X287947Y203520D01*
X288194Y203388D01*
X288293Y203339D01*
X288375Y203273D01*
X288441Y203240D01*
X288490Y203207D01*
X288507Y203174D01*
X288523D01*
X288820Y202911D01*
X289067Y202598D01*
X289280Y202285D01*
X289445Y201989D01*
X289577Y201709D01*
X289643Y201594D01*
X289676Y201479D01*
X289708Y201396D01*
X289741Y201331D01*
X289758Y201298D01*
Y201281D01*
X289824Y201034D01*
X289890Y200788D01*
X289988Y200244D01*
X290070Y199701D01*
X290120Y199191D01*
X290136Y198944D01*
X290153Y198730D01*
Y198533D01*
X290169Y198351D01*
Y198220D01*
Y198105D01*
Y198039D01*
Y198022D01*
X290153Y197446D01*
X290120Y196903D01*
X290070Y196409D01*
X289988Y195949D01*
X289906Y195520D01*
X289807Y195142D01*
X289708Y194796D01*
X289610Y194500D01*
X289511Y194237D01*
X289396Y194006D01*
X289313Y193809D01*
X289231Y193661D01*
X289149Y193529D01*
X289099Y193447D01*
X289067Y193397D01*
X289050Y193381D01*
X288869Y193183D01*
X288671Y193002D01*
X288458Y192838D01*
X288244Y192706D01*
X288030Y192591D01*
X287816Y192492D01*
X287602Y192426D01*
X287404Y192360D01*
X287207Y192311D01*
X287026Y192278D01*
X286861Y192245D01*
X286729Y192229D01*
X286614Y192212D01*
X286450D01*
X286005Y192245D01*
X285594Y192311D01*
X285248Y192426D01*
X284952Y192541D01*
X284705Y192657D01*
X284622Y192722D01*
X284540Y192772D01*
X284474Y192805D01*
X284425Y192838D01*
X284408Y192871D01*
X284392D01*
X284096Y193150D01*
X283849Y193447D01*
X283635Y193776D01*
X283470Y194072D01*
X283339Y194352D01*
X283273Y194467D01*
X283240Y194582D01*
X283207Y194665D01*
X283174Y194730D01*
X283158Y194763D01*
Y194780D01*
X283075Y195027D01*
X283009Y195274D01*
X282911Y195800D01*
X282829Y196343D01*
X282779Y196870D01*
X282763Y197101D01*
X282746Y197315D01*
Y197512D01*
X282730Y197693D01*
Y197825D01*
Y197940D01*
Y198006D01*
Y198022D01*
Y198335D01*
X282746Y198631D01*
Y198895D01*
X282763Y199158D01*
X282796Y199388D01*
X282812Y199619D01*
X282829Y199816D01*
X282861Y199997D01*
X282878Y200162D01*
X282911Y200310D01*
X282927Y200425D01*
X282944Y200524D01*
X282960Y200606D01*
X282977Y200656D01*
X282993Y200689D01*
Y200705D01*
X283092Y201067D01*
X283207Y201396D01*
X283339Y201676D01*
X283438Y201923D01*
X283553Y202137D01*
X283619Y202285D01*
X283684Y202367D01*
X283701Y202400D01*
X283882Y202647D01*
X284063Y202861D01*
X284260Y203042D01*
X284442Y203207D01*
X284606Y203322D01*
X284738Y203405D01*
X284820Y203454D01*
X284837Y203470D01*
X284853D01*
X285116Y203602D01*
X285396Y203684D01*
X285659Y203750D01*
X285906Y203799D01*
X286120Y203832D01*
X286301Y203849D01*
X286450D01*
X286894Y203816D01*
D02*
G37*
G36*
X303024Y189250D02*
X299946D01*
Y190402D01*
X301625D01*
Y202647D01*
X299946D01*
Y203799D01*
X303024D01*
Y189250D01*
D02*
G37*
G36*
X217930Y202647D02*
X216251D01*
Y190402D01*
X217930D01*
Y189249D01*
X214852D01*
Y203799D01*
X217930D01*
Y202647D01*
D02*
G37*
G36*
X252975Y175094D02*
X251576D01*
Y176690D01*
X252975D01*
Y175094D01*
D02*
G37*
G36*
X262983Y165301D02*
X261501D01*
X259839Y171654D01*
X259510Y170238D01*
X258193Y165301D01*
X256761D01*
X254160Y173563D01*
X255527D01*
X256942Y168773D01*
X257419Y167177D01*
X257831Y168757D01*
X259065Y173563D01*
X260497D01*
X261814Y168708D01*
X261880Y168428D01*
X261946Y168181D01*
X261995Y167967D01*
X262044Y167786D01*
X262094Y167621D01*
X262127Y167490D01*
X262160Y167374D01*
X262176Y167276D01*
X262192Y167193D01*
X262209Y167144D01*
X262225Y167062D01*
X262242Y167029D01*
Y167012D01*
X262703Y168790D01*
X264020Y173563D01*
X265484D01*
X262983Y165301D01*
D02*
G37*
G36*
X240351Y175604D02*
Y173563D01*
X241388D01*
Y172477D01*
X240351D01*
Y167704D01*
Y167473D01*
Y167276D01*
X240335Y167095D01*
X240318Y166914D01*
Y166765D01*
X240302Y166634D01*
X240269Y166420D01*
X240236Y166255D01*
X240219Y166140D01*
X240187Y166074D01*
Y166058D01*
X240121Y165910D01*
X240022Y165794D01*
X239923Y165679D01*
X239841Y165597D01*
X239742Y165515D01*
X239676Y165465D01*
X239627Y165432D01*
X239611Y165416D01*
X239429Y165333D01*
X239248Y165284D01*
X239051Y165235D01*
X238853Y165218D01*
X238689Y165202D01*
X238557Y165185D01*
X238425D01*
X238063Y165202D01*
X237882Y165218D01*
X237718Y165251D01*
X237570Y165268D01*
X237454Y165284D01*
X237388Y165301D01*
X237356D01*
X237537Y166535D01*
X237668Y166519D01*
X237800Y166502D01*
X237915D01*
X237997Y166486D01*
X238162D01*
X238376Y166502D01*
X238524Y166535D01*
X238606Y166568D01*
X238639Y166584D01*
X238755Y166667D01*
X238820Y166749D01*
X238870Y166815D01*
X238886Y166848D01*
X238903Y166930D01*
X238919Y167045D01*
X238936Y167309D01*
X238952Y167424D01*
Y167523D01*
Y167588D01*
Y167621D01*
Y172477D01*
X237537D01*
Y173563D01*
X238952D01*
Y176444D01*
X240351Y175604D01*
D02*
G37*
G36*
X233093Y173728D02*
X233389Y173695D01*
X233669Y173645D01*
X233932Y173563D01*
X234179Y173481D01*
X234409Y173382D01*
X234623Y173283D01*
X234804Y173168D01*
X234985Y173069D01*
X235134Y172954D01*
X235265Y172855D01*
X235364Y172773D01*
X235446Y172691D01*
X235512Y172641D01*
X235545Y172609D01*
X235562Y172592D01*
X235743Y172362D01*
X235907Y172115D01*
X236055Y171868D01*
X236187Y171604D01*
X236286Y171325D01*
X236368Y171061D01*
X236500Y170535D01*
X236549Y170304D01*
X236582Y170074D01*
X236598Y169876D01*
X236615Y169695D01*
X236631Y169547D01*
Y169448D01*
Y169366D01*
Y169350D01*
X236615Y168988D01*
X236582Y168642D01*
X236533Y168313D01*
X236467Y168016D01*
X236385Y167737D01*
X236302Y167473D01*
X236203Y167243D01*
X236105Y167029D01*
X236006Y166848D01*
X235907Y166683D01*
X235825Y166551D01*
X235743Y166436D01*
X235677Y166338D01*
X235627Y166272D01*
X235594Y166239D01*
X235578Y166222D01*
X235364Y166025D01*
X235150Y165860D01*
X234920Y165712D01*
X234673Y165580D01*
X234442Y165482D01*
X234195Y165383D01*
X233734Y165251D01*
X233521Y165218D01*
X233323Y165185D01*
X233142Y165152D01*
X232994Y165136D01*
X232879Y165120D01*
X232698D01*
X232187Y165152D01*
X231726Y165235D01*
X231315Y165333D01*
X231150Y165399D01*
X230986Y165465D01*
X230838Y165531D01*
X230706Y165597D01*
X230607Y165646D01*
X230508Y165696D01*
X230443Y165745D01*
X230393Y165778D01*
X230360Y165811D01*
X230344D01*
X230015Y166107D01*
X229751Y166420D01*
X229521Y166749D01*
X229356Y167062D01*
X229225Y167341D01*
X229175Y167473D01*
X229126Y167572D01*
X229093Y167671D01*
X229077Y167737D01*
X229060Y167770D01*
Y167786D01*
X230508Y167967D01*
X230640Y167654D01*
X230788Y167391D01*
X230937Y167160D01*
X231068Y166979D01*
X231183Y166848D01*
X231282Y166749D01*
X231364Y166683D01*
X231381Y166667D01*
X231595Y166535D01*
X231809Y166436D01*
X232039Y166371D01*
X232237Y166321D01*
X232418Y166288D01*
X232566Y166272D01*
X232698D01*
X232895Y166288D01*
X233076Y166305D01*
X233405Y166387D01*
X233702Y166502D01*
X233965Y166634D01*
X234163Y166749D01*
X234311Y166864D01*
X234409Y166947D01*
X234426Y166979D01*
X234442D01*
X234673Y167276D01*
X234854Y167605D01*
X234985Y167967D01*
X235084Y168296D01*
X235134Y168592D01*
X235166Y168724D01*
X235183Y168839D01*
Y168938D01*
X235199Y169004D01*
Y169053D01*
Y169070D01*
X229027D01*
X229011Y169234D01*
Y169350D01*
Y169415D01*
Y169432D01*
X229027Y169810D01*
X229060Y170156D01*
X229109Y170485D01*
X229175Y170798D01*
X229258Y171078D01*
X229340Y171341D01*
X229439Y171572D01*
X229537Y171786D01*
X229636Y171983D01*
X229735Y172148D01*
X229817Y172279D01*
X229900Y172395D01*
X229965Y172493D01*
X230015Y172559D01*
X230048Y172592D01*
X230064Y172609D01*
X230262Y172806D01*
X230476Y172987D01*
X230706Y173135D01*
X230937Y173267D01*
X231167Y173382D01*
X231381Y173464D01*
X231611Y173547D01*
X231809Y173596D01*
X232023Y173645D01*
X232204Y173678D01*
X232368Y173711D01*
X232500Y173728D01*
X232615Y173744D01*
X232780D01*
X233093Y173728D01*
D02*
G37*
G36*
X289054Y165301D02*
X287540D01*
Y169926D01*
X284626D01*
X284198Y169942D01*
X283787Y169975D01*
X283425Y170024D01*
X283096Y170090D01*
X282783Y170156D01*
X282520Y170238D01*
X282273Y170337D01*
X282059Y170436D01*
X281878Y170518D01*
X281713Y170617D01*
X281581Y170699D01*
X281483Y170781D01*
X281400Y170831D01*
X281351Y170880D01*
X281318Y170913D01*
X281302Y170930D01*
X281137Y171127D01*
X280989Y171325D01*
X280874Y171522D01*
X280758Y171736D01*
X280660Y171950D01*
X280594Y172148D01*
X280479Y172526D01*
X280446Y172707D01*
X280413Y172872D01*
X280396Y173020D01*
X280380Y173135D01*
X280363Y173250D01*
Y173316D01*
Y173366D01*
Y173382D01*
X280380Y173695D01*
X280413Y173991D01*
X280479Y174254D01*
X280528Y174485D01*
X280594Y174682D01*
X280660Y174830D01*
X280693Y174913D01*
X280709Y174946D01*
X280841Y175193D01*
X281005Y175407D01*
X281154Y175604D01*
X281302Y175752D01*
X281433Y175867D01*
X281532Y175966D01*
X281598Y176015D01*
X281631Y176032D01*
X281845Y176164D01*
X282092Y176279D01*
X282322Y176378D01*
X282536Y176460D01*
X282734Y176509D01*
X282882Y176542D01*
X282997Y176575D01*
X283030D01*
X283277Y176608D01*
X283556Y176641D01*
X283853Y176658D01*
X284133Y176674D01*
X284380Y176690D01*
X289054D01*
Y165301D01*
D02*
G37*
G36*
X275771Y173728D02*
X275936Y173695D01*
X276101Y173645D01*
X276232Y173596D01*
X276331Y173547D01*
X276430Y173497D01*
X276479Y173464D01*
X276495Y173448D01*
X276644Y173316D01*
X276792Y173152D01*
X276940Y172954D01*
X277072Y172773D01*
X277203Y172592D01*
X277286Y172444D01*
X277351Y172329D01*
X277368Y172312D01*
Y173563D01*
X278635D01*
Y165301D01*
X277236D01*
Y169613D01*
X277220Y169942D01*
X277203Y170238D01*
X277170Y170518D01*
X277121Y170765D01*
X277072Y170963D01*
X277039Y171111D01*
X277022Y171210D01*
X277006Y171242D01*
X276940Y171423D01*
X276858Y171572D01*
X276775Y171703D01*
X276693Y171819D01*
X276611Y171901D01*
X276561Y171967D01*
X276512Y171999D01*
X276495Y172016D01*
X276364Y172115D01*
X276216Y172181D01*
X276068Y172230D01*
X275952Y172263D01*
X275837Y172279D01*
X275755Y172296D01*
X275673D01*
X275492Y172279D01*
X275310Y172246D01*
X275129Y172197D01*
X274981Y172148D01*
X274850Y172098D01*
X274751Y172049D01*
X274685Y172016D01*
X274669Y171999D01*
X274158Y173283D01*
X274438Y173431D01*
X274701Y173547D01*
X274932Y173629D01*
X275146Y173695D01*
X275327Y173728D01*
X275475Y173744D01*
X275590D01*
X275771Y173728D01*
D02*
G37*
G36*
X252975Y165301D02*
X251576D01*
Y173563D01*
X252975D01*
Y165301D01*
D02*
G37*
G36*
X245881Y173728D02*
X246178Y173678D01*
X246441Y173612D01*
X246704Y173530D01*
X246935Y173431D01*
X247149Y173316D01*
X247346Y173185D01*
X247511Y173069D01*
X247675Y172938D01*
X247807Y172806D01*
X247922Y172691D01*
X248021Y172592D01*
X248087Y172510D01*
X248136Y172444D01*
X248169Y172395D01*
X248186Y172378D01*
Y173563D01*
X249437D01*
Y165301D01*
X248038D01*
Y169794D01*
Y170074D01*
X248005Y170354D01*
X247972Y170584D01*
X247939Y170798D01*
X247889Y170996D01*
X247840Y171176D01*
X247774Y171341D01*
X247708Y171473D01*
X247659Y171588D01*
X247593Y171687D01*
X247544Y171769D01*
X247494Y171835D01*
X247429Y171917D01*
X247396Y171950D01*
X247149Y172148D01*
X246885Y172279D01*
X246622Y172378D01*
X246392Y172460D01*
X246178Y172493D01*
X246013Y172510D01*
X245947Y172526D01*
X245865D01*
X245667Y172510D01*
X245470Y172493D01*
X245305Y172444D01*
X245174Y172395D01*
X245058Y172345D01*
X244960Y172312D01*
X244910Y172279D01*
X244894Y172263D01*
X244746Y172164D01*
X244614Y172049D01*
X244515Y171934D01*
X244433Y171835D01*
X244384Y171736D01*
X244334Y171654D01*
X244301Y171604D01*
Y171588D01*
X244252Y171407D01*
X244203Y171210D01*
X244170Y170996D01*
X244153Y170781D01*
X244137Y170600D01*
Y170452D01*
Y170337D01*
Y170321D01*
Y170304D01*
Y165301D01*
X242738D01*
Y170370D01*
Y170716D01*
X242754Y170996D01*
X242771Y171226D01*
Y171423D01*
X242787Y171555D01*
X242804Y171654D01*
X242820Y171720D01*
Y171736D01*
X242869Y171950D01*
X242952Y172148D01*
X243018Y172312D01*
X243083Y172477D01*
X243166Y172592D01*
X243215Y172674D01*
X243248Y172740D01*
X243264Y172757D01*
X243396Y172921D01*
X243544Y173053D01*
X243692Y173185D01*
X243857Y173283D01*
X243989Y173366D01*
X244104Y173415D01*
X244170Y173448D01*
X244203Y173464D01*
X244433Y173563D01*
X244680Y173629D01*
X244910Y173678D01*
X245124Y173711D01*
X245305Y173728D01*
X245437Y173744D01*
X245569D01*
X245881Y173728D01*
D02*
G37*
G36*
X224452D02*
X224616Y173695D01*
X224781Y173645D01*
X224912Y173596D01*
X225011Y173547D01*
X225110Y173497D01*
X225159Y173464D01*
X225176Y173448D01*
X225324Y173316D01*
X225472Y173152D01*
X225620Y172954D01*
X225752Y172773D01*
X225884Y172592D01*
X225966Y172444D01*
X226032Y172329D01*
X226048Y172312D01*
Y173563D01*
X227315D01*
Y165301D01*
X225916D01*
Y169613D01*
X225900Y169942D01*
X225884Y170238D01*
X225851Y170518D01*
X225801Y170765D01*
X225752Y170963D01*
X225719Y171111D01*
X225702Y171210D01*
X225686Y171242D01*
X225620Y171423D01*
X225538Y171572D01*
X225456Y171703D01*
X225373Y171819D01*
X225291Y171901D01*
X225242Y171967D01*
X225192Y171999D01*
X225176Y172016D01*
X225044Y172115D01*
X224896Y172181D01*
X224748Y172230D01*
X224633Y172263D01*
X224517Y172279D01*
X224435Y172296D01*
X224353D01*
X224172Y172279D01*
X223991Y172246D01*
X223810Y172197D01*
X223661Y172148D01*
X223530Y172098D01*
X223431Y172049D01*
X223365Y172016D01*
X223349Y171999D01*
X222838Y173283D01*
X223118Y173431D01*
X223382Y173547D01*
X223612Y173629D01*
X223826Y173695D01*
X224007Y173728D01*
X224155Y173744D01*
X224270D01*
X224452Y173728D01*
D02*
G37*
G36*
X270257D02*
X270521Y173711D01*
X271031Y173596D01*
X271476Y173448D01*
X271673Y173366D01*
X271854Y173283D01*
X272019Y173201D01*
X272150Y173119D01*
X272282Y173036D01*
X272381Y172971D01*
X272463Y172905D01*
X272529Y172855D01*
X272562Y172839D01*
X272578Y172822D01*
X272809Y172609D01*
X272990Y172362D01*
X273171Y172098D01*
X273302Y171835D01*
X273434Y171555D01*
X273533Y171259D01*
X273615Y170979D01*
X273681Y170716D01*
X273747Y170452D01*
X273780Y170222D01*
X273813Y169991D01*
X273829Y169810D01*
Y169646D01*
X273846Y169531D01*
Y169465D01*
Y169432D01*
X273829Y169053D01*
X273796Y168691D01*
X273747Y168362D01*
X273681Y168049D01*
X273599Y167770D01*
X273516Y167506D01*
X273418Y167259D01*
X273319Y167045D01*
X273220Y166848D01*
X273121Y166683D01*
X273039Y166551D01*
X272957Y166436D01*
X272891Y166338D01*
X272842Y166272D01*
X272809Y166239D01*
X272792Y166222D01*
X272578Y166025D01*
X272364Y165860D01*
X272134Y165712D01*
X271903Y165580D01*
X271673Y165482D01*
X271426Y165383D01*
X270982Y165251D01*
X270784Y165218D01*
X270587Y165185D01*
X270422Y165152D01*
X270274Y165136D01*
X270142Y165120D01*
X269978D01*
X269583Y165136D01*
X269221Y165202D01*
X268875Y165284D01*
X268595Y165366D01*
X268348Y165465D01*
X268249Y165498D01*
X268167Y165531D01*
X268085Y165564D01*
X268036Y165597D01*
X268019Y165613D01*
X268003D01*
X267673Y165827D01*
X267394Y166058D01*
X267147Y166288D01*
X266949Y166519D01*
X266801Y166716D01*
X266686Y166881D01*
X266653Y166947D01*
X266620Y166996D01*
X266604Y167012D01*
Y167029D01*
X266439Y167407D01*
X266324Y167819D01*
X266225Y168230D01*
X266176Y168642D01*
X266143Y168823D01*
Y168988D01*
X266126Y169152D01*
X266110Y169284D01*
Y169399D01*
Y169481D01*
Y169531D01*
Y169547D01*
X266126Y169909D01*
X266159Y170238D01*
X266208Y170551D01*
X266274Y170847D01*
X266357Y171127D01*
X266455Y171374D01*
X266554Y171621D01*
X266653Y171819D01*
X266752Y171999D01*
X266850Y172164D01*
X266949Y172312D01*
X267031Y172427D01*
X267097Y172510D01*
X267147Y172576D01*
X267180Y172609D01*
X267196Y172625D01*
X267410Y172822D01*
X267624Y172987D01*
X267854Y173152D01*
X268085Y173267D01*
X268315Y173382D01*
X268546Y173464D01*
X268990Y173612D01*
X269204Y173645D01*
X269385Y173678D01*
X269550Y173711D01*
X269698Y173728D01*
X269813Y173744D01*
X269978D01*
X270257Y173728D01*
D02*
G37*
%LPC*%
G36*
X320539Y240625D02*
X310351D01*
Y227618D01*
X312080D01*
Y233745D01*
X318810D01*
Y227618D01*
X320539D01*
Y240625D01*
D02*
G37*
G36*
X307475D02*
X296724D01*
D01*
X302476D01*
X302137Y240606D01*
X301761Y240587D01*
X301386Y240549D01*
X301010Y240493D01*
X300690Y240437D01*
X300671D01*
X300634Y240418D01*
X300577D01*
X300502Y240380D01*
X300295Y240324D01*
X300032Y240230D01*
X299732Y240098D01*
X299412Y239929D01*
X299093Y239741D01*
X298792Y239497D01*
X298773Y239478D01*
X298754Y239459D01*
X298698Y239403D01*
X298623Y239347D01*
X298435Y239158D01*
X298209Y238895D01*
X297965Y238576D01*
X297702Y238200D01*
X297457Y237768D01*
X297250Y237279D01*
Y237260D01*
X297232Y237222D01*
X297194Y237147D01*
X297175Y237035D01*
X297119Y236903D01*
X297081Y236753D01*
X297044Y236583D01*
X296987Y236377D01*
X296931Y236170D01*
X296893Y235926D01*
X296799Y235399D01*
X296743Y234817D01*
X296724Y234178D01*
Y233933D01*
X296743Y233802D01*
Y233651D01*
X296762Y233294D01*
X296818Y232881D01*
X296875Y232448D01*
X296968Y231997D01*
X297081Y231546D01*
Y231527D01*
X297100Y231490D01*
X297119Y231433D01*
X297138Y231358D01*
X297213Y231151D01*
X297326Y230888D01*
X297438Y230588D01*
X297589Y230287D01*
X297777Y229967D01*
X297965Y229667D01*
X297983Y229629D01*
X298059Y229535D01*
X298172Y229403D01*
X298322Y229234D01*
X298491Y229046D01*
X298698Y228858D01*
X298904Y228652D01*
X299149Y228482D01*
X299186Y228464D01*
X299262Y228407D01*
X299393Y228332D01*
X299581Y228238D01*
X299807Y228125D01*
X300070Y228031D01*
X300371Y227918D01*
X300709Y227824D01*
X300746D01*
X300803Y227806D01*
X300859Y227787D01*
X301047Y227768D01*
X301310Y227731D01*
X301611Y227693D01*
X301968Y227655D01*
X302363Y227637D01*
X302795Y227618D01*
X307475D01*
Y240625D01*
D02*
G37*
G36*
X294412D02*
X282007D01*
Y227618D01*
X285153D01*
X283661D01*
Y238501D01*
X287458Y227618D01*
X289805D01*
X288999D01*
X292758Y238689D01*
Y227618D01*
X294412D01*
Y240625D01*
D02*
G37*
G36*
X278924D02*
X277195D01*
Y227618D01*
X278924D01*
Y240625D01*
D02*
G37*
G36*
X270072D02*
X259771Y240625D01*
Y227618D01*
X270072Y227618D01*
D01*
X265786D01*
Y239083D01*
X270072D01*
Y240625D01*
D02*
G37*
G36*
X238851Y240625D02*
X226446D01*
Y227618D01*
X229592D01*
X228100D01*
Y238501D01*
X231897Y227618D01*
X234244D01*
X233438D01*
X237197Y238689D01*
Y227618D01*
X238851D01*
Y240625D01*
D02*
G37*
G36*
X223363D02*
X221634D01*
Y227618D01*
X223363D01*
Y240625D01*
D02*
G37*
G36*
X218589D02*
X208665D01*
X213251D01*
X212969Y240606D01*
X212650Y240587D01*
X212311Y240568D01*
X211992Y240531D01*
X211710Y240493D01*
X211672D01*
X211541Y240455D01*
X211372Y240418D01*
X211146Y240361D01*
X210902Y240268D01*
X210639Y240155D01*
X210357Y240023D01*
X210112Y239873D01*
X210075Y239854D01*
X210000Y239798D01*
X209887Y239685D01*
X209736Y239553D01*
X209567Y239384D01*
X209398Y239158D01*
X209210Y238914D01*
X209060Y238632D01*
X209041Y238595D01*
X209003Y238501D01*
X208928Y238332D01*
X208853Y238106D01*
X208797Y237843D01*
X208721Y237542D01*
X208684Y237204D01*
X208665Y236847D01*
Y227618D01*
D01*
Y236696D01*
X208684Y236565D01*
X208703Y236433D01*
X208721Y236264D01*
X208759Y236076D01*
X208797Y235869D01*
X208928Y235437D01*
X209003Y235211D01*
X209116Y234967D01*
X209248Y234723D01*
X209379Y234497D01*
X209548Y234272D01*
X209736Y234046D01*
X209755Y234027D01*
X209793Y233990D01*
X209849Y233933D01*
X209943Y233877D01*
X210056Y233783D01*
X210206Y233689D01*
X210394Y233576D01*
X210601Y233482D01*
X210845Y233369D01*
X211127Y233257D01*
X211428Y233163D01*
X211785Y233087D01*
X212161Y233012D01*
X212575Y232956D01*
X213044Y232918D01*
X213533Y232899D01*
X216860D01*
Y227618D01*
X218589D01*
Y240625D01*
D02*
G37*
G36*
X206184D02*
X204455D01*
Y227618D01*
X206184D01*
Y240625D01*
D02*
G37*
G36*
X258512Y240850D02*
X246069D01*
Y227392D01*
D01*
Y233896D01*
X246088Y233745D01*
Y233576D01*
X246107Y233369D01*
X246144Y233144D01*
X246163Y232899D01*
X246257Y232354D01*
X246407Y231753D01*
X246614Y231151D01*
X246727Y230851D01*
X246877Y230550D01*
Y230531D01*
X246915Y230475D01*
X246952Y230400D01*
X247028Y230287D01*
X247103Y230155D01*
X247197Y230024D01*
X247460Y229667D01*
X247779Y229291D01*
X248155Y228896D01*
X248606Y228520D01*
X249133Y228182D01*
X249151D01*
X249189Y228144D01*
X249283Y228106D01*
X249396Y228050D01*
X249527Y227994D01*
X249678Y227937D01*
X249866Y227862D01*
X250072Y227787D01*
X250298Y227712D01*
X250542Y227637D01*
X251087Y227524D01*
X251670Y227430D01*
X252290Y227392D01*
X252478D01*
X252591Y227411D01*
X252760D01*
X252948Y227449D01*
X253155Y227467D01*
X253399Y227505D01*
X253907Y227618D01*
X254452Y227768D01*
X255016Y227994D01*
X255298Y228125D01*
X255580Y228276D01*
X255599Y228294D01*
X255636Y228313D01*
X255711Y228370D01*
X255824Y228445D01*
X255937Y228520D01*
X256068Y228633D01*
X256388Y228915D01*
X256745Y229253D01*
X257121Y229667D01*
X257459Y230136D01*
X257779Y230681D01*
Y230700D01*
X257817Y230757D01*
X257854Y230832D01*
X257892Y230945D01*
X257948Y231095D01*
X258004Y231264D01*
X258080Y231452D01*
X258136Y231659D01*
X258211Y231903D01*
X258286Y232148D01*
X258399Y232712D01*
X258474Y233294D01*
X258512Y233933D01*
Y234084D01*
X258493Y234253D01*
Y234478D01*
X258456Y234741D01*
X258418Y235061D01*
X258362Y235418D01*
X258286Y235794D01*
X258211Y236189D01*
X258098Y236602D01*
X257948Y237016D01*
X257779Y237448D01*
X257591Y237862D01*
X257347Y238275D01*
X257083Y238651D01*
X256783Y239008D01*
X256764Y239027D01*
X256707Y239083D01*
X256595Y239177D01*
X256463Y239290D01*
X256294Y239440D01*
X256087Y239591D01*
X255843Y239760D01*
X255561Y239929D01*
X255260Y240098D01*
X254922Y240268D01*
X254546Y240418D01*
X254151Y240568D01*
X253719Y240681D01*
X253268Y240775D01*
X252798Y240831D01*
X252290Y240850D01*
X258512D01*
D02*
G37*
G36*
X325820Y240625D02*
X322306D01*
Y239309D01*
X324223D01*
Y225325D01*
X322306D01*
Y224009D01*
X325820D01*
Y240625D01*
D02*
G37*
G36*
X202462Y240625D02*
X198947D01*
Y224009D01*
X202462D01*
Y225325D01*
X200545D01*
Y239309D01*
X202462D01*
Y240625D01*
D02*
G37*
%LPD*%
G36*
X318810Y235287D02*
X312080D01*
Y240625D01*
X318810D01*
Y235287D01*
D02*
G37*
G36*
X305746Y229159D02*
X302664D01*
X302532Y229178D01*
X302250Y229197D01*
X301931Y229215D01*
X301592Y229253D01*
X301254Y229309D01*
X300972Y229385D01*
X300935Y229403D01*
X300840Y229422D01*
X300709Y229479D01*
X300540Y229554D01*
X300352Y229667D01*
X300164Y229779D01*
X299976Y229911D01*
X299788Y230061D01*
X299769Y230099D01*
X299694Y230174D01*
X299581Y230306D01*
X299450Y230494D01*
X299299Y230738D01*
X299130Y231020D01*
X298980Y231339D01*
X298848Y231696D01*
Y231715D01*
X298829Y231753D01*
X298811Y231809D01*
X298792Y231884D01*
X298773Y231978D01*
X298735Y232110D01*
X298698Y232242D01*
X298660Y232392D01*
X298604Y232768D01*
X298547Y233200D01*
X298510Y233689D01*
X298491Y234215D01*
Y234234D01*
Y234309D01*
Y234403D01*
X298510Y234554D01*
Y234723D01*
X298529Y234911D01*
X298547Y235136D01*
X298566Y235362D01*
X298660Y235869D01*
X298773Y236395D01*
X298942Y236884D01*
X299055Y237129D01*
X299168Y237335D01*
Y237354D01*
X299205Y237392D01*
X299243Y237448D01*
X299280Y237523D01*
X299431Y237711D01*
X299619Y237937D01*
X299863Y238181D01*
X300145Y238426D01*
X300465Y238632D01*
X300803Y238801D01*
X300840Y238820D01*
X300935Y238839D01*
X301104Y238895D01*
X301348Y238952D01*
X301649Y238989D01*
X302025Y239046D01*
X302250Y239065D01*
X302495D01*
X302739Y239083D01*
X305746D01*
Y229159D01*
D02*
G37*
G36*
X288755Y231396D02*
Y231377D01*
X288736Y231339D01*
X288717Y231283D01*
X288680Y231189D01*
X288604Y230963D01*
X288510Y230681D01*
X288416Y230362D01*
X288304Y230042D01*
X288210Y229742D01*
X288134Y229479D01*
X288116Y229516D01*
X288097Y229610D01*
X288040Y229779D01*
X287965Y230005D01*
X287871Y230306D01*
X287740Y230663D01*
X287608Y231076D01*
X287439Y231565D01*
X284319Y240625D01*
X291837D01*
X288755Y231396D01*
D02*
G37*
G36*
X264057Y227618D02*
X259771Y227618D01*
Y239083D01*
X264057Y239083D01*
Y227618D01*
D02*
G37*
G36*
X233194Y231396D02*
Y231377D01*
X233175Y231339D01*
X233156Y231283D01*
X233118Y231189D01*
X233043Y230963D01*
X232949Y230681D01*
X232855Y230362D01*
X232743Y230042D01*
X232649Y229742D01*
X232573Y229479D01*
X232555Y229516D01*
X232536Y229610D01*
X232479Y229779D01*
X232404Y230005D01*
X232310Y230306D01*
X232179Y230663D01*
X232047Y231076D01*
X231878Y231565D01*
X228758Y240625D01*
X236276D01*
X233194Y231396D01*
D02*
G37*
G36*
X216860Y234441D02*
X213364D01*
X213232Y234459D01*
X213101D01*
X212950Y234478D01*
X212593Y234516D01*
X212199Y234591D01*
X211804Y234704D01*
X211447Y234854D01*
X211278Y234948D01*
X211146Y235061D01*
X211108Y235099D01*
X211033Y235174D01*
X210921Y235324D01*
X210789Y235512D01*
X210657Y235756D01*
X210544Y236057D01*
X210469Y236395D01*
X210432Y236790D01*
Y236809D01*
Y236828D01*
Y236922D01*
X210451Y237091D01*
X210488Y237279D01*
X210526Y237486D01*
X210601Y237730D01*
X210714Y237956D01*
X210845Y238181D01*
X210864Y238200D01*
X210921Y238275D01*
X211014Y238369D01*
X211127Y238501D01*
X211296Y238632D01*
X211484Y238745D01*
X211691Y238858D01*
X211935Y238952D01*
X211954D01*
X212029Y238971D01*
X212142Y238989D01*
X212293Y239027D01*
X212518Y239046D01*
X212800Y239065D01*
X213138Y239083D01*
X216860D01*
Y234441D01*
D02*
G37*
G36*
X251990Y240831D02*
X251821D01*
X251651Y240812D01*
X251426Y240775D01*
X251200Y240737D01*
X250712Y240643D01*
X250148Y240493D01*
X249603Y240268D01*
X249321Y240136D01*
X249039Y239986D01*
X249020Y239967D01*
X248982Y239948D01*
X248907Y239891D01*
X248794Y239835D01*
X248682Y239741D01*
X248531Y239628D01*
X248212Y239365D01*
X247873Y239027D01*
X247498Y238613D01*
X247140Y238125D01*
X246840Y237580D01*
Y237561D01*
X246802Y237505D01*
X246764Y237429D01*
X246727Y237316D01*
X246652Y237166D01*
X246595Y236997D01*
X246520Y236790D01*
X246445Y236565D01*
X246388Y236320D01*
X246313Y236057D01*
X246238Y235756D01*
X246182Y235456D01*
X246107Y234798D01*
X246069Y234084D01*
Y240850D01*
X252121D01*
X251990Y240831D01*
D02*
G37*
G36*
X252591Y239347D02*
X252760Y239328D01*
X252929Y239290D01*
X253136Y239252D01*
X253362Y239215D01*
X253850Y239065D01*
X254114Y238952D01*
X254377Y238839D01*
X254659Y238689D01*
X254922Y238519D01*
X255185Y238332D01*
X255429Y238106D01*
X255448Y238087D01*
X255486Y238050D01*
X255542Y237974D01*
X255636Y237862D01*
X255730Y237730D01*
X255843Y237561D01*
X255956Y237354D01*
X256087Y237110D01*
X256200Y236847D01*
X256332Y236527D01*
X256444Y236189D01*
X256538Y235813D01*
X256632Y235399D01*
X256689Y234929D01*
X256726Y234441D01*
X256745Y233914D01*
Y233896D01*
Y233820D01*
Y233689D01*
X256726Y233520D01*
X256707Y233332D01*
X256670Y233106D01*
X256632Y232843D01*
X256595Y232580D01*
X256444Y231978D01*
X256332Y231678D01*
X256219Y231358D01*
X256068Y231057D01*
X255899Y230757D01*
X255711Y230475D01*
X255486Y230212D01*
X255467Y230193D01*
X255429Y230155D01*
X255354Y230080D01*
X255260Y230005D01*
X255129Y229892D01*
X254978Y229779D01*
X254809Y229667D01*
X254621Y229535D01*
X254396Y229403D01*
X254151Y229291D01*
X253888Y229178D01*
X253606Y229065D01*
X253305Y228990D01*
X253005Y228915D01*
X252666Y228877D01*
X252309Y228858D01*
X252215D01*
X252121Y228877D01*
X251990D01*
X251821Y228896D01*
X251633Y228934D01*
X251407Y228971D01*
X251182Y229028D01*
X250918Y229103D01*
X250674Y229197D01*
X250392Y229291D01*
X250129Y229422D01*
X249866Y229591D01*
X249603Y229760D01*
X249340Y229967D01*
X249095Y230212D01*
X249076Y230230D01*
X249039Y230268D01*
X248982Y230362D01*
X248888Y230475D01*
X248794Y230606D01*
X248700Y230776D01*
X248588Y230982D01*
X248456Y231208D01*
X248343Y231471D01*
X248230Y231772D01*
X248137Y232091D01*
X248024Y232430D01*
X247949Y232806D01*
X247892Y233219D01*
X247855Y233651D01*
X247836Y234102D01*
Y234121D01*
Y234178D01*
Y234253D01*
Y234366D01*
X247855Y234497D01*
Y234666D01*
X247873Y234835D01*
X247911Y235042D01*
X247967Y235474D01*
X248061Y235926D01*
X248193Y236414D01*
X248381Y236865D01*
Y236884D01*
X248400Y236922D01*
X248437Y236978D01*
X248475Y237053D01*
X248606Y237279D01*
X248776Y237542D01*
X249001Y237843D01*
X249283Y238144D01*
X249603Y238444D01*
X249960Y238707D01*
X249979D01*
X249997Y238745D01*
X250054Y238764D01*
X250148Y238820D01*
X250242Y238858D01*
X250354Y238914D01*
X250636Y239046D01*
X250975Y239158D01*
X251369Y239271D01*
X251821Y239347D01*
X252290Y239365D01*
X252460D01*
X252591Y239347D01*
D02*
G37*
%LPC*%
G36*
X244976Y147976D02*
X244877D01*
X244680Y147960D01*
X244499Y147943D01*
X244153Y147844D01*
X243857Y147713D01*
X243610Y147565D01*
X243412Y147416D01*
X243264Y147285D01*
X243182Y147186D01*
X243149Y147170D01*
Y147153D01*
X243001Y146939D01*
X242869Y146692D01*
X242787Y146446D01*
X242705Y146182D01*
X242655Y145968D01*
X242622Y145771D01*
Y145705D01*
X242606Y145655D01*
Y145623D01*
Y145606D01*
X247231D01*
X247181Y145985D01*
X247083Y146330D01*
X246968Y146627D01*
X246836Y146857D01*
X246721Y147054D01*
X246605Y147203D01*
X246540Y147285D01*
X246507Y147318D01*
X246243Y147532D01*
X245980Y147696D01*
X245700Y147812D01*
X245437Y147894D01*
X245223Y147943D01*
X245042Y147960D01*
X244976Y147976D01*
D02*
G37*
G36*
X282190Y147976D02*
X282092D01*
X281894Y147960D01*
X281713Y147943D01*
X281384Y147861D01*
X281087Y147729D01*
X280841Y147581D01*
X280643Y147433D01*
X280495Y147318D01*
X280396Y147219D01*
X280363Y147203D01*
Y147186D01*
X280232Y147038D01*
X280133Y146857D01*
X279952Y146495D01*
X279820Y146100D01*
X279738Y145738D01*
X279688Y145392D01*
X279672Y145244D01*
Y145112D01*
X279655Y145014D01*
Y144931D01*
Y144882D01*
Y144865D01*
Y144569D01*
X279688Y144289D01*
X279721Y144042D01*
X279771Y143795D01*
X279820Y143582D01*
X279886Y143384D01*
X279935Y143203D01*
X280001Y143038D01*
X280067Y142907D01*
X280133Y142775D01*
X280199Y142676D01*
X280248Y142594D01*
X280297Y142528D01*
X280330Y142479D01*
X280347Y142462D01*
X280363Y142446D01*
X280495Y142314D01*
X280643Y142183D01*
X280923Y141985D01*
X281219Y141853D01*
X281483Y141755D01*
X281729Y141705D01*
X281910Y141672D01*
X281993Y141656D01*
X282092D01*
X282289Y141672D01*
X282470Y141689D01*
X282816Y141771D01*
X283112Y141903D01*
X283359Y142051D01*
X283556Y142183D01*
X283704Y142314D01*
X283803Y142396D01*
X283820Y142429D01*
X283836D01*
X283951Y142594D01*
X284067Y142759D01*
X284231Y143137D01*
X284363Y143532D01*
X284445Y143927D01*
X284494Y144273D01*
X284511Y144421D01*
Y144553D01*
X284527Y144668D01*
Y144750D01*
Y144800D01*
Y144816D01*
X284511Y145096D01*
X284494Y145376D01*
X284462Y145623D01*
X284412Y145853D01*
X284363Y146067D01*
X284314Y146264D01*
X284248Y146429D01*
X284182Y146594D01*
X284116Y146725D01*
X284050Y146857D01*
X284001Y146956D01*
X283951Y147038D01*
X283902Y147104D01*
X283869Y147153D01*
X283836Y147170D01*
Y147186D01*
X283704Y147318D01*
X283556Y147450D01*
X283277Y147647D01*
X282980Y147779D01*
X282701Y147877D01*
X282454Y147943D01*
X282272Y147960D01*
X282190Y147976D01*
D02*
G37*
G36*
X296148Y148026D02*
X296065D01*
X295901Y148009D01*
X295736Y147993D01*
X295440Y147910D01*
X295177Y147779D01*
X294946Y147631D01*
X294765Y147482D01*
X294633Y147367D01*
X294551Y147268D01*
X294518Y147252D01*
Y147235D01*
X294403Y147087D01*
X294304Y146906D01*
X294140Y146528D01*
X294024Y146149D01*
X293942Y145771D01*
X293893Y145425D01*
X293876Y145277D01*
Y145145D01*
X293860Y145030D01*
Y144948D01*
Y144898D01*
Y144882D01*
Y144586D01*
X293893Y144306D01*
X293926Y144042D01*
X293958Y143795D01*
X294008Y143582D01*
X294074Y143384D01*
X294140Y143187D01*
X294189Y143038D01*
X294255Y142890D01*
X294321Y142775D01*
X294370Y142660D01*
X294436Y142578D01*
X294469Y142512D01*
X294502Y142462D01*
X294535Y142446D01*
Y142429D01*
X294666Y142298D01*
X294798Y142183D01*
X295061Y141985D01*
X295325Y141853D01*
X295571Y141755D01*
X295802Y141705D01*
X295967Y141672D01*
X296032Y141656D01*
X296131D01*
X296296Y141672D01*
X296460Y141689D01*
X296757Y141771D01*
X297020Y141903D01*
X297250Y142034D01*
X297431Y142166D01*
X297563Y142298D01*
X297645Y142380D01*
X297678Y142413D01*
X297794Y142561D01*
X297892Y142726D01*
X298057Y143104D01*
X298156Y143483D01*
X298238Y143878D01*
X298287Y144223D01*
X298304Y144372D01*
Y144503D01*
X298320Y144619D01*
Y144701D01*
Y144750D01*
Y144767D01*
Y145063D01*
X298287Y145326D01*
X298254Y145573D01*
X298221Y145820D01*
X298156Y146034D01*
X298106Y146231D01*
X298040Y146413D01*
X297975Y146577D01*
X297925Y146709D01*
X297859Y146840D01*
X297794Y146939D01*
X297744Y147038D01*
X297711Y147104D01*
X297678Y147153D01*
X297645Y147170D01*
Y147186D01*
X297514Y147334D01*
X297382Y147466D01*
X297250Y147581D01*
X297102Y147680D01*
X296839Y147828D01*
X296592Y147927D01*
X296378Y147976D01*
X296213Y148009D01*
X296148Y148026D01*
D02*
G37*
G36*
X329698Y54810D02*
X329646D01*
X329603D01*
X329593D01*
X329297Y54800D01*
X329022Y54779D01*
X328779Y54747D01*
X328568Y54715D01*
X328483Y54694D01*
X328409Y54673D01*
X328335Y54652D01*
X328283Y54641D01*
X328240Y54631D01*
X328209Y54620D01*
X328187Y54610D01*
X328177D01*
X327976Y54536D01*
X327796Y54451D01*
X327638Y54356D01*
X327501Y54271D01*
X327395Y54198D01*
X327321Y54134D01*
X327279Y54092D01*
X327257Y54081D01*
X327173Y53976D01*
X327099Y53870D01*
X327036Y53764D01*
X326972Y53659D01*
X326930Y53564D01*
X326898Y53490D01*
X326888Y53437D01*
X326877Y53416D01*
X326835Y53257D01*
X326803Y53067D01*
X326782Y52877D01*
X326772Y52697D01*
X326761Y52539D01*
X326750Y52465D01*
Y50732D01*
X332329D01*
Y52422D01*
X332319Y52560D01*
Y52697D01*
X332308Y52824D01*
X332277Y53035D01*
X332255Y53204D01*
X332224Y53342D01*
X332192Y53437D01*
X332182Y53490D01*
X332171Y53511D01*
X332076Y53701D01*
X331960Y53881D01*
X331822Y54039D01*
X331685Y54176D01*
X331558Y54282D01*
X331452Y54367D01*
X331410Y54388D01*
X331378Y54409D01*
X331357Y54430D01*
X331347D01*
X331231Y54493D01*
X331093Y54557D01*
X330818Y54652D01*
X330523Y54715D01*
X330237Y54768D01*
X330111Y54779D01*
X329984Y54789D01*
X329878Y54800D01*
X329783D01*
X329698Y54810D01*
D02*
G37*
G36*
X331209Y40430D02*
X331199D01*
X331188D01*
X331061Y40419D01*
X330935Y40398D01*
X330829Y40366D01*
X330734Y40334D01*
X330649Y40292D01*
X330586Y40261D01*
X330544Y40239D01*
X330533Y40229D01*
X330428Y40155D01*
X330332Y40060D01*
X330258Y39965D01*
X330195Y39869D01*
X330153Y39785D01*
X330121Y39722D01*
X330100Y39679D01*
X330089Y39658D01*
X330047Y39510D01*
X330015Y39341D01*
X329994Y39172D01*
X329984Y39003D01*
X329973Y38855D01*
X329963Y38728D01*
Y36552D01*
X332382D01*
Y38855D01*
X332372Y39140D01*
X332329Y39383D01*
X332277Y39595D01*
X332213Y39753D01*
X332150Y39891D01*
X332097Y39975D01*
X332055Y40028D01*
X332044Y40049D01*
X331907Y40176D01*
X331769Y40271D01*
X331622Y40334D01*
X331495Y40387D01*
X331368Y40408D01*
X331273Y40419D01*
X331209Y40430D01*
D02*
G37*
G36*
X304838Y54240D02*
X304785D01*
X304743D01*
X304732D01*
X304436Y54229D01*
X304161Y54208D01*
X303918Y54176D01*
X303707Y54145D01*
X303623Y54124D01*
X303549Y54103D01*
X303475Y54081D01*
X303422Y54071D01*
X303380Y54060D01*
X303348Y54050D01*
X303327Y54039D01*
X303316D01*
X303115Y53965D01*
X302936Y53881D01*
X302777Y53786D01*
X302640Y53701D01*
X302534Y53627D01*
X302460Y53564D01*
X302418Y53521D01*
X302397Y53511D01*
X302312Y53405D01*
X302238Y53299D01*
X302175Y53194D01*
X302112Y53088D01*
X302069Y52993D01*
X302038Y52919D01*
X302027Y52866D01*
X302017Y52845D01*
X301974Y52687D01*
X301943Y52496D01*
X301921Y52306D01*
X301911Y52126D01*
X301900Y51968D01*
X301890Y51894D01*
Y50161D01*
X307469D01*
Y51852D01*
X307458Y51989D01*
Y52126D01*
X307448Y52253D01*
X307416Y52465D01*
X307395Y52634D01*
X307363Y52771D01*
X307331Y52866D01*
X307321Y52919D01*
X307310Y52940D01*
X307215Y53130D01*
X307099Y53310D01*
X306962Y53468D01*
X306824Y53606D01*
X306698Y53712D01*
X306592Y53796D01*
X306549Y53817D01*
X306518Y53838D01*
X306497Y53859D01*
X306486D01*
X306370Y53923D01*
X306232Y53986D01*
X305958Y54081D01*
X305662Y54145D01*
X305377Y54198D01*
X305250Y54208D01*
X305123Y54219D01*
X305017Y54229D01*
X304922D01*
X304838Y54240D01*
D02*
G37*
G36*
X279724Y56205D02*
X279671D01*
X279629D01*
X279618D01*
X279322Y56195D01*
X279047Y56174D01*
X278804Y56142D01*
X278593Y56110D01*
X278508Y56089D01*
X278435Y56068D01*
X278361Y56047D01*
X278308Y56036D01*
X278265Y56026D01*
X278234Y56015D01*
X278213Y56004D01*
X278202D01*
X278001Y55930D01*
X277822Y55846D01*
X277663Y55751D01*
X277526Y55666D01*
X277420Y55592D01*
X277346Y55529D01*
X277304Y55487D01*
X277283Y55476D01*
X277198Y55370D01*
X277124Y55265D01*
X277061Y55159D01*
X276997Y55053D01*
X276955Y54958D01*
X276924Y54884D01*
X276913Y54832D01*
X276902Y54810D01*
X276860Y54652D01*
X276828Y54462D01*
X276807Y54271D01*
X276797Y54092D01*
X276786Y53933D01*
X276775Y53859D01*
Y52126D01*
X282355D01*
Y53817D01*
X282344Y53955D01*
Y54092D01*
X282334Y54219D01*
X282302Y54430D01*
X282281Y54599D01*
X282249Y54736D01*
X282217Y54832D01*
X282207Y54884D01*
X282196Y54906D01*
X282101Y55096D01*
X281985Y55275D01*
X281847Y55434D01*
X281710Y55571D01*
X281583Y55677D01*
X281478Y55761D01*
X281435Y55782D01*
X281404Y55804D01*
X281383Y55825D01*
X281372D01*
X281256Y55888D01*
X281118Y55952D01*
X280844Y56047D01*
X280548Y56110D01*
X280263Y56163D01*
X280136Y56174D01*
X280009Y56184D01*
X279903Y56195D01*
X279808D01*
X279724Y56205D01*
D02*
G37*
G36*
X229474Y63213D02*
X229411D01*
X229368D01*
X229337D01*
X229326D01*
X229072Y63203D01*
X228829Y63181D01*
X228597Y63150D01*
X228386Y63108D01*
X228195Y63044D01*
X228016Y62991D01*
X227847Y62928D01*
X227699Y62864D01*
X227572Y62790D01*
X227456Y62727D01*
X227361Y62674D01*
X227287Y62621D01*
X227223Y62569D01*
X227171Y62537D01*
X227149Y62516D01*
X227139Y62505D01*
X227001Y62368D01*
X226885Y62220D01*
X226790Y62072D01*
X226695Y61924D01*
X226621Y61776D01*
X226568Y61618D01*
X226515Y61480D01*
X226473Y61332D01*
X226441Y61206D01*
X226420Y61079D01*
X226399Y60973D01*
X226389Y60878D01*
Y60804D01*
X226378Y60751D01*
Y60698D01*
X226389Y60498D01*
X226410Y60307D01*
X226452Y60138D01*
X226494Y59969D01*
X226558Y59811D01*
X226621Y59663D01*
X226684Y59525D01*
X226758Y59399D01*
X226832Y59293D01*
X226896Y59198D01*
X226959Y59113D01*
X227023Y59039D01*
X227065Y58987D01*
X227107Y58944D01*
X227128Y58923D01*
X227139Y58913D01*
X227287Y58786D01*
X227445Y58680D01*
X227614Y58585D01*
X227783Y58500D01*
X227963Y58437D01*
X228132Y58374D01*
X228470Y58289D01*
X228618Y58268D01*
X228766Y58247D01*
X228893Y58226D01*
X228999Y58215D01*
X229094Y58205D01*
X229168D01*
X229210D01*
X229220D01*
X229516Y58215D01*
X229791Y58236D01*
X230055Y58268D01*
X230288Y58321D01*
X230499Y58374D01*
X230689Y58437D01*
X230869Y58511D01*
X231017Y58575D01*
X231154Y58648D01*
X231270Y58712D01*
X231365Y58775D01*
X231439Y58828D01*
X231503Y58881D01*
X231545Y58913D01*
X231566Y58934D01*
X231577Y58944D01*
X231703Y59082D01*
X231809Y59230D01*
X231904Y59377D01*
X231989Y59536D01*
X232052Y59684D01*
X232116Y59832D01*
X232200Y60107D01*
X232221Y60233D01*
X232242Y60350D01*
X232264Y60445D01*
X232274Y60540D01*
X232285Y60614D01*
Y60709D01*
X232274Y60973D01*
X232232Y61227D01*
X232169Y61448D01*
X232105Y61639D01*
X232031Y61797D01*
X231999Y61861D01*
X231978Y61913D01*
X231947Y61966D01*
X231936Y61998D01*
X231915Y62009D01*
Y62019D01*
X231767Y62220D01*
X231598Y62400D01*
X231429Y62558D01*
X231260Y62685D01*
X231112Y62780D01*
X230985Y62854D01*
X230943Y62875D01*
X230911Y62896D01*
X230890Y62907D01*
X230879D01*
X230626Y63012D01*
X230351Y63086D01*
X230098Y63139D01*
X229854Y63171D01*
X229738Y63192D01*
X229643Y63203D01*
X229548D01*
X229474Y63213D01*
D02*
G37*
G36*
X229495Y52340D02*
X229442D01*
X229400D01*
X229389D01*
X229094Y52330D01*
X228819Y52309D01*
X228576Y52277D01*
X228365Y52245D01*
X228280Y52224D01*
X228206Y52203D01*
X228132Y52182D01*
X228079Y52171D01*
X228037Y52161D01*
X228005Y52150D01*
X227984Y52140D01*
X227974D01*
X227773Y52066D01*
X227593Y51981D01*
X227435Y51886D01*
X227297Y51801D01*
X227192Y51727D01*
X227118Y51664D01*
X227076Y51622D01*
X227054Y51611D01*
X226970Y51506D01*
X226896Y51400D01*
X226832Y51294D01*
X226769Y51189D01*
X226727Y51094D01*
X226695Y51020D01*
X226684Y50967D01*
X226674Y50946D01*
X226632Y50787D01*
X226600Y50597D01*
X226579Y50407D01*
X226568Y50227D01*
X226558Y50068D01*
X226547Y49995D01*
Y48262D01*
X232126D01*
Y49952D01*
X232116Y50090D01*
Y50227D01*
X232105Y50354D01*
X232073Y50565D01*
X232052Y50734D01*
X232020Y50872D01*
X231989Y50967D01*
X231978Y51020D01*
X231968Y51041D01*
X231873Y51231D01*
X231756Y51410D01*
X231619Y51569D01*
X231482Y51706D01*
X231355Y51812D01*
X231249Y51897D01*
X231207Y51918D01*
X231175Y51939D01*
X231154Y51960D01*
X231143D01*
X231027Y52023D01*
X230890Y52087D01*
X230615Y52182D01*
X230319Y52245D01*
X230034Y52298D01*
X229907Y52309D01*
X229781Y52319D01*
X229675Y52330D01*
X229580D01*
X229495Y52340D01*
D02*
G37*
G36*
X221962Y201528D02*
Y196426D01*
X225550D01*
X221962Y201528D01*
D02*
G37*
G36*
X286565Y202697D02*
X286466D01*
X286285Y202680D01*
X286104Y202664D01*
X285939Y202614D01*
X285791Y202549D01*
X285511Y202400D01*
X285264Y202236D01*
X285083Y202055D01*
X284935Y201907D01*
X284886Y201841D01*
X284853Y201791D01*
X284820Y201775D01*
Y201758D01*
X284705Y201561D01*
X284606Y201331D01*
X284507Y201067D01*
X284442Y200788D01*
X284376Y200491D01*
X284326Y200179D01*
X284244Y199553D01*
X284211Y199240D01*
X284195Y198960D01*
X284178Y198697D01*
Y198483D01*
X284162Y198286D01*
Y198137D01*
Y198055D01*
Y198039D01*
Y198022D01*
Y197512D01*
X284195Y197051D01*
X284228Y196640D01*
X284260Y196245D01*
X284310Y195916D01*
X284376Y195603D01*
X284442Y195340D01*
X284491Y195093D01*
X284557Y194895D01*
X284622Y194730D01*
X284672Y194582D01*
X284738Y194467D01*
X284771Y194385D01*
X284804Y194335D01*
X284837Y194303D01*
Y194286D01*
X284968Y194121D01*
X285100Y193990D01*
X285231Y193858D01*
X285363Y193759D01*
X285643Y193595D01*
X285890Y193480D01*
X286120Y193414D01*
X286285Y193381D01*
X286351Y193364D01*
X286450D01*
X286630Y193381D01*
X286795Y193397D01*
X287108Y193512D01*
X287388Y193661D01*
X287635Y193825D01*
X287816Y193990D01*
X287964Y194138D01*
X288046Y194253D01*
X288079Y194270D01*
Y194286D01*
X288194Y194484D01*
X288293Y194714D01*
X288392Y194977D01*
X288458Y195257D01*
X288523Y195553D01*
X288573Y195866D01*
X288655Y196508D01*
X288688Y196804D01*
X288704Y197084D01*
X288721Y197348D01*
Y197561D01*
X288737Y197759D01*
Y197907D01*
Y197989D01*
Y198022D01*
X288721Y198533D01*
X288704Y198993D01*
X288671Y199421D01*
X288622Y199816D01*
X288573Y200162D01*
X288507Y200475D01*
X288441Y200755D01*
X288375Y201001D01*
X288309Y201215D01*
X288260Y201396D01*
X288194Y201545D01*
X288145Y201676D01*
X288095Y201758D01*
X288062Y201824D01*
X288030Y201857D01*
Y201874D01*
X287914Y202022D01*
X287799Y202154D01*
X287668Y202252D01*
X287536Y202351D01*
X287272Y202499D01*
X287026Y202598D01*
X286812Y202647D01*
X286630Y202680D01*
X286565Y202697D01*
D02*
G37*
G36*
X232862Y172592D02*
X232763D01*
X232566Y172576D01*
X232385Y172559D01*
X232039Y172460D01*
X231743Y172329D01*
X231496Y172181D01*
X231299Y172032D01*
X231150Y171901D01*
X231068Y171802D01*
X231035Y171786D01*
Y171769D01*
X230887Y171555D01*
X230755Y171308D01*
X230673Y171061D01*
X230591Y170798D01*
X230541Y170584D01*
X230508Y170387D01*
Y170321D01*
X230492Y170271D01*
Y170238D01*
Y170222D01*
X235117D01*
X235068Y170600D01*
X234969Y170946D01*
X234854Y171242D01*
X234722Y171473D01*
X234607Y171670D01*
X234492Y171819D01*
X234426Y171901D01*
X234393Y171934D01*
X234130Y172148D01*
X233866Y172312D01*
X233586Y172427D01*
X233323Y172510D01*
X233109Y172559D01*
X232928Y172576D01*
X232862Y172592D01*
D02*
G37*
G36*
X287540Y175341D02*
X284281D01*
X283985Y175324D01*
X283738Y175308D01*
X283540Y175291D01*
X283408Y175258D01*
X283310Y175242D01*
X283244Y175226D01*
X283227D01*
X283013Y175143D01*
X282832Y175044D01*
X282668Y174946D01*
X282520Y174830D01*
X282421Y174715D01*
X282339Y174633D01*
X282289Y174567D01*
X282273Y174551D01*
X282157Y174353D01*
X282059Y174156D01*
X281993Y173942D01*
X281960Y173761D01*
X281927Y173596D01*
X281911Y173448D01*
Y173366D01*
Y173349D01*
Y173333D01*
X281943Y172987D01*
X282009Y172691D01*
X282108Y172427D01*
X282223Y172213D01*
X282339Y172049D01*
X282437Y171917D01*
X282503Y171851D01*
X282536Y171819D01*
X282651Y171720D01*
X282799Y171637D01*
X283112Y171506D01*
X283458Y171407D01*
X283803Y171341D01*
X284116Y171308D01*
X284248Y171292D01*
X284363D01*
X284478Y171275D01*
X287540D01*
Y175341D01*
D02*
G37*
G36*
X270076Y172592D02*
X269978D01*
X269780Y172576D01*
X269599Y172559D01*
X269270Y172477D01*
X268974Y172345D01*
X268727Y172197D01*
X268529Y172049D01*
X268381Y171934D01*
X268282Y171835D01*
X268249Y171819D01*
Y171802D01*
X268118Y171654D01*
X268019Y171473D01*
X267838Y171111D01*
X267706Y170716D01*
X267624Y170354D01*
X267575Y170008D01*
X267558Y169860D01*
Y169728D01*
X267542Y169629D01*
Y169547D01*
Y169498D01*
Y169481D01*
Y169185D01*
X267575Y168905D01*
X267608Y168658D01*
X267657Y168411D01*
X267706Y168197D01*
X267772Y168000D01*
X267822Y167819D01*
X267887Y167654D01*
X267953Y167523D01*
X268019Y167391D01*
X268085Y167292D01*
X268134Y167210D01*
X268184Y167144D01*
X268217Y167095D01*
X268233Y167078D01*
X268249Y167062D01*
X268381Y166930D01*
X268529Y166798D01*
X268809Y166601D01*
X269105Y166469D01*
X269369Y166371D01*
X269616Y166321D01*
X269797Y166288D01*
X269879Y166272D01*
X269978D01*
X270175Y166288D01*
X270356Y166305D01*
X270702Y166387D01*
X270998Y166519D01*
X271245Y166667D01*
X271443Y166798D01*
X271591Y166930D01*
X271689Y167012D01*
X271706Y167045D01*
X271722D01*
X271838Y167210D01*
X271953Y167374D01*
X272117Y167753D01*
X272249Y168148D01*
X272331Y168543D01*
X272381Y168889D01*
X272397Y169037D01*
Y169168D01*
X272414Y169284D01*
Y169366D01*
Y169415D01*
Y169432D01*
X272397Y169712D01*
X272381Y169991D01*
X272348Y170238D01*
X272298Y170469D01*
X272249Y170683D01*
X272200Y170880D01*
X272134Y171045D01*
X272068Y171210D01*
X272002Y171341D01*
X271936Y171473D01*
X271887Y171572D01*
X271838Y171654D01*
X271788Y171720D01*
X271755Y171769D01*
X271722Y171786D01*
Y171802D01*
X271591Y171934D01*
X271443Y172065D01*
X271163Y172263D01*
X270867Y172395D01*
X270587Y172493D01*
X270340Y172559D01*
X270159Y172576D01*
X270076Y172592D01*
D02*
G37*
%LPD*%
M02*
