G04*
G04 #@! TF.GenerationSoftware,Altium Limited,Altium Designer,21.3.2 (30)*
G04*
G04 Layer_Color=255*
%FSLAX44Y44*%
%MOMM*%
G71*
G04*
G04 #@! TF.SameCoordinates,B628278F-7F55-4BD0-9F56-58D37DFBE93C*
G04*
G04*
G04 #@! TF.FilePolarity,Positive*
G04*
G01*
G75*
%ADD16R,2.2000X1.8000*%
%ADD17R,1.3000X0.3000*%
%ADD18R,0.7620X0.7620*%
G04:AMPARAMS|DCode=19|XSize=1.016mm|YSize=1.8796mm|CornerRadius=0.254mm|HoleSize=0mm|Usage=FLASHONLY|Rotation=180.000|XOffset=0mm|YOffset=0mm|HoleType=Round|Shape=RoundedRectangle|*
%AMROUNDEDRECTD19*
21,1,1.0160,1.3716,0,0,180.0*
21,1,0.5080,1.8796,0,0,180.0*
1,1,0.5080,-0.2540,0.6858*
1,1,0.5080,0.2540,0.6858*
1,1,0.5080,0.2540,-0.6858*
1,1,0.5080,-0.2540,-0.6858*
%
%ADD19ROUNDEDRECTD19*%
%ADD20R,0.2000X0.2000*%
%ADD21P,0.6788X4X180.0*%
%ADD22R,0.6800X0.2000*%
%ADD23R,0.6800X0.4000*%
%ADD24R,2.7000X2.7000*%
%ADD25R,0.2240X0.6650*%
%ADD26R,0.6650X0.2240*%
%ADD27C,0.3000*%
%ADD28R,2.4000X1.9000*%
G04:AMPARAMS|DCode=29|XSize=2.6mm|YSize=0.254mm|CornerRadius=0.0635mm|HoleSize=0mm|Usage=FLASHONLY|Rotation=180.000|XOffset=0mm|YOffset=0mm|HoleType=Round|Shape=RoundedRectangle|*
%AMROUNDEDRECTD29*
21,1,2.6000,0.1270,0,0,180.0*
21,1,2.4730,0.2540,0,0,180.0*
1,1,0.1270,-1.2365,0.0635*
1,1,0.1270,1.2365,0.0635*
1,1,0.1270,1.2365,-0.0635*
1,1,0.1270,-1.2365,-0.0635*
%
%ADD29ROUNDEDRECTD29*%
%ADD30R,1.1500X0.3000*%
%ADD31R,1.1500X0.6000*%
%ADD32R,0.7500X0.2500*%
%ADD33R,0.2500X0.7500*%
%ADD34R,2.6000X2.6000*%
%ADD35R,0.4000X0.5000*%
%ADD36R,1.2000X1.3000*%
%ADD37R,0.5000X0.4000*%
G04:AMPARAMS|DCode=38|XSize=0.4mm|YSize=0.5mm|CornerRadius=0mm|HoleSize=0mm|Usage=FLASHONLY|Rotation=0.000|XOffset=0mm|YOffset=0mm|HoleType=Round|Shape=Octagon|*
%AMOCTAGOND38*
4,1,8,-0.1000,0.2500,0.1000,0.2500,0.2000,0.1500,0.2000,-0.1500,0.1000,-0.2500,-0.1000,-0.2500,-0.2000,-0.1500,-0.2000,0.1500,-0.1000,0.2500,0.0*
%
%ADD38OCTAGOND38*%

%ADD71O,3.3000X1.5000*%
%ADD72O,2.7000X1.5000*%
%ADD73O,2.1000X1.0000*%
%ADD74O,1.8000X1.0000*%
%ADD75C,0.6500*%
D16*
X391924Y119139D02*
D03*
X391924Y277140D02*
D03*
D17*
X366954Y175639D02*
D03*
Y170639D02*
D03*
Y180639D02*
D03*
Y185639D02*
D03*
Y190639D02*
D03*
Y195639D02*
D03*
Y200639D02*
D03*
Y205639D02*
D03*
Y210639D02*
D03*
Y215639D02*
D03*
Y220639D02*
D03*
Y225639D02*
D03*
Y230639D02*
D03*
Y235639D02*
D03*
Y240639D02*
D03*
Y245639D02*
D03*
Y250639D02*
D03*
Y255639D02*
D03*
Y260639D02*
D03*
Y135639D02*
D03*
Y140639D02*
D03*
Y145639D02*
D03*
Y150639D02*
D03*
Y155639D02*
D03*
Y160639D02*
D03*
Y165639D02*
D03*
D18*
X181825Y12389D02*
D03*
X166285D02*
D03*
X114513Y91130D02*
D03*
X98973D02*
D03*
X181825D02*
D03*
X166285D02*
D03*
X113243Y13659D02*
D03*
X97703D02*
D03*
D19*
X360087Y64460D02*
D03*
X399711D02*
D03*
D20*
X121294Y254580D02*
D03*
Y261080D02*
D03*
X131694Y254580D02*
D03*
Y261081D02*
D03*
D21*
X126494Y257829D02*
D03*
D22*
X119554Y225650D02*
D03*
Y220653D02*
D03*
X119556Y208650D02*
D03*
X119553Y203650D02*
D03*
X128352D02*
D03*
Y208650D02*
D03*
X128354Y220653D02*
D03*
Y225650D02*
D03*
X119554Y192630D02*
D03*
Y187633D02*
D03*
X119556Y175630D02*
D03*
X119553Y170630D02*
D03*
X128352D02*
D03*
Y175630D02*
D03*
X128354Y187633D02*
D03*
Y192630D02*
D03*
D23*
X119554Y214650D02*
D03*
X128353D02*
D03*
X119554Y181630D02*
D03*
X128353D02*
D03*
D24*
X254764Y68600D02*
D03*
D25*
X266764Y49525D02*
D03*
X262764D02*
D03*
X258764D02*
D03*
X254764D02*
D03*
X250764D02*
D03*
X246764D02*
D03*
X242764D02*
D03*
Y87675D02*
D03*
X246764D02*
D03*
X250764D02*
D03*
X254764D02*
D03*
X258764D02*
D03*
X262764D02*
D03*
X266764D02*
D03*
D26*
X235689Y56600D02*
D03*
Y60600D02*
D03*
Y64600D02*
D03*
Y68600D02*
D03*
Y72600D02*
D03*
Y76599D02*
D03*
Y80599D02*
D03*
X273839D02*
D03*
Y76599D02*
D03*
Y72600D02*
D03*
Y68600D02*
D03*
Y64600D02*
D03*
Y60600D02*
D03*
Y56600D02*
D03*
D27*
X218604Y240650D02*
D03*
X225104D02*
D03*
X231604D02*
D03*
X238104D02*
D03*
X244604D02*
D03*
X251104D02*
D03*
X257604D02*
D03*
X264104D02*
D03*
X270604D02*
D03*
X277104D02*
D03*
X218604Y234150D02*
D03*
X225104D02*
D03*
X231604D02*
D03*
X238104D02*
D03*
X244604D02*
D03*
X251104D02*
D03*
X257604D02*
D03*
X264104D02*
D03*
X270604D02*
D03*
X277104D02*
D03*
X218604Y227650D02*
D03*
X225104D02*
D03*
X270604D02*
D03*
X277104D02*
D03*
X218604Y221150D02*
D03*
X225104D02*
D03*
X238104D02*
D03*
X244604D02*
D03*
X251104D02*
D03*
X257604D02*
D03*
X270604D02*
D03*
X277104D02*
D03*
X218604Y214650D02*
D03*
X225104D02*
D03*
X238104D02*
D03*
X244604D02*
D03*
X251104D02*
D03*
X257604D02*
D03*
X270604D02*
D03*
X277104D02*
D03*
X218604Y208150D02*
D03*
X225104D02*
D03*
X238104D02*
D03*
X244604D02*
D03*
X251104D02*
D03*
X257604D02*
D03*
X270604D02*
D03*
X277104D02*
D03*
X218604Y201650D02*
D03*
X225104D02*
D03*
X238104D02*
D03*
X244604D02*
D03*
X251104D02*
D03*
X257604D02*
D03*
X270604D02*
D03*
X277104D02*
D03*
X218604Y195150D02*
D03*
X225104D02*
D03*
X270604D02*
D03*
X277104D02*
D03*
X218604Y188650D02*
D03*
X225104D02*
D03*
X231604D02*
D03*
X238104D02*
D03*
X244604D02*
D03*
X251104D02*
D03*
X257604D02*
D03*
X264104D02*
D03*
X270604D02*
D03*
X277104D02*
D03*
X218604Y182150D02*
D03*
X225104D02*
D03*
X231604D02*
D03*
X238104D02*
D03*
X244604D02*
D03*
X251104D02*
D03*
X257604D02*
D03*
X264104D02*
D03*
X270604D02*
D03*
X277104D02*
D03*
D28*
X315009Y89100D02*
D03*
X315009Y48099D02*
D03*
D29*
X80394Y259862D02*
D03*
Y254782D02*
D03*
Y249702D02*
D03*
Y244876D02*
D03*
Y239796D02*
D03*
Y234716D02*
D03*
Y229890D02*
D03*
Y224810D02*
D03*
Y219730D02*
D03*
Y214650D02*
D03*
Y209650D02*
D03*
Y204650D02*
D03*
Y199650D02*
D03*
Y194650D02*
D03*
Y189650D02*
D03*
Y184650D02*
D03*
Y179650D02*
D03*
Y174650D02*
D03*
Y169650D02*
D03*
D30*
X47248Y60700D02*
D03*
Y55700D02*
D03*
Y50700D02*
D03*
Y45700D02*
D03*
Y40700D02*
D03*
Y35700D02*
D03*
Y30700D02*
D03*
Y25700D02*
D03*
D31*
Y19200D02*
D03*
Y11200D02*
D03*
Y67200D02*
D03*
Y75200D02*
D03*
D32*
X121414Y63439D02*
D03*
Y58440D02*
D03*
Y53440D02*
D03*
Y48440D02*
D03*
Y43440D02*
D03*
Y38440D02*
D03*
X160414D02*
D03*
Y43440D02*
D03*
Y48440D02*
D03*
Y53440D02*
D03*
Y58440D02*
D03*
Y63439D02*
D03*
D33*
X128414Y31440D02*
D03*
X133414D02*
D03*
X138414D02*
D03*
X143414D02*
D03*
X148414D02*
D03*
X153414D02*
D03*
Y70440D02*
D03*
X148414D02*
D03*
X143414D02*
D03*
X138414D02*
D03*
X133414D02*
D03*
X128414D02*
D03*
D34*
X140914Y50939D02*
D03*
D35*
X243104Y33040D02*
D03*
X234604D02*
D03*
X243104Y25090D02*
D03*
X234604D02*
D03*
X130994Y270530D02*
D03*
X121994Y270530D02*
D03*
X106164Y42870D02*
D03*
X97664D02*
D03*
X174884Y55570D02*
D03*
X183384D02*
D03*
X97664Y25090D02*
D03*
X106164D02*
D03*
X183384Y73350D02*
D03*
X174884D02*
D03*
X105914Y60650D02*
D03*
X97414D02*
D03*
X174884Y46680D02*
D03*
X183384D02*
D03*
X97414Y78430D02*
D03*
X105914D02*
D03*
X183384Y28900D02*
D03*
X174884D02*
D03*
X97044Y52210D02*
D03*
X106043Y52209D02*
D03*
X106164Y33980D02*
D03*
X97165Y33980D02*
D03*
X174634Y64460D02*
D03*
X183633Y64459D02*
D03*
X106164Y69540D02*
D03*
X97165Y69540D02*
D03*
X174634Y37790D02*
D03*
X183633Y37789D02*
D03*
X275524Y100350D02*
D03*
X267024D02*
D03*
X283534Y100350D02*
D03*
X292034D02*
D03*
X273374Y40660D02*
D03*
X281874Y40660D02*
D03*
X282123Y256559D02*
D03*
X273124Y256560D02*
D03*
X282123Y265449D02*
D03*
X273124Y265450D02*
D03*
X282123Y274339D02*
D03*
X273124Y274340D02*
D03*
X373314Y20340D02*
D03*
X364814D02*
D03*
X193223Y238779D02*
D03*
X184224Y238780D02*
D03*
X184225Y265450D02*
D03*
X193224Y265450D02*
D03*
X193223Y247669D02*
D03*
X184224Y247670D02*
D03*
X193223Y256559D02*
D03*
X184224Y256560D02*
D03*
X185603Y189249D02*
D03*
X176604Y189250D02*
D03*
X185603Y171469D02*
D03*
X176604Y171470D02*
D03*
X185603Y180359D02*
D03*
X176604Y180359D02*
D03*
X385134Y20340D02*
D03*
X233863Y123209D02*
D03*
X224864Y123210D02*
D03*
X233863Y133369D02*
D03*
X224864Y133370D02*
D03*
X233863Y143529D02*
D03*
X224864Y143530D02*
D03*
X364814Y30500D02*
D03*
X373314Y30499D02*
D03*
X393883Y30499D02*
D03*
X384884Y30500D02*
D03*
X220034Y265450D02*
D03*
X228534D02*
D03*
X220034Y256560D02*
D03*
X228534D02*
D03*
X385134Y8910D02*
D03*
X373314D02*
D03*
X364814Y8910D02*
D03*
X204653Y189249D02*
D03*
X195654Y189250D02*
D03*
X195655Y180360D02*
D03*
X204654Y180360D02*
D03*
X204653Y171469D02*
D03*
X195654Y171470D02*
D03*
D36*
X275574Y128290D02*
D03*
Y149290D02*
D03*
X258574D02*
D03*
Y128290D02*
D03*
D37*
X187454Y160480D02*
D03*
Y151980D02*
D03*
X140464Y253041D02*
D03*
X140464Y262040D02*
D03*
X87694Y41020D02*
D03*
X87693Y32020D02*
D03*
X134684Y10430D02*
D03*
X134685Y19429D02*
D03*
X193104Y59960D02*
D03*
X193105Y68959D02*
D03*
X146115Y91820D02*
D03*
X146114Y82820D02*
D03*
X87694Y59960D02*
D03*
X87695Y68959D02*
D03*
X134685Y91820D02*
D03*
X134684Y82820D02*
D03*
X193104Y42290D02*
D03*
X193103Y33290D02*
D03*
X146114Y10430D02*
D03*
X146115Y19429D02*
D03*
X292150Y65950D02*
D03*
X292150Y74949D02*
D03*
X292150Y90880D02*
D03*
X292149Y81880D02*
D03*
X197614Y160480D02*
D03*
Y151980D02*
D03*
X292150Y57860D02*
D03*
X292149Y48860D02*
D03*
X224284Y71719D02*
D03*
X224285Y80719D02*
D03*
X314455Y239469D02*
D03*
X314454Y230469D02*
D03*
X305563Y248250D02*
D03*
X305564Y257250D02*
D03*
X305565Y239469D02*
D03*
X305564Y230469D02*
D03*
X314455Y257249D02*
D03*
X314454Y248249D02*
D03*
X291593Y264760D02*
D03*
X291594Y273760D02*
D03*
X167135Y188669D02*
D03*
X167134Y179670D02*
D03*
X214123Y123790D02*
D03*
X214124Y132789D02*
D03*
X202694Y246840D02*
D03*
Y238340D02*
D03*
X238254Y272630D02*
D03*
Y281130D02*
D03*
X215395Y80719D02*
D03*
X215394Y71720D02*
D03*
X247144Y272630D02*
D03*
Y281130D02*
D03*
X177294Y151980D02*
D03*
Y160480D02*
D03*
X244604Y154130D02*
D03*
Y145630D02*
D03*
X62994Y53800D02*
D03*
Y45300D02*
D03*
Y28790D02*
D03*
Y37290D02*
D03*
X244605Y134059D02*
D03*
X244604Y125060D02*
D03*
D38*
X393634Y20340D02*
D03*
X393634Y8910D02*
D03*
D71*
X72894Y287150D02*
D03*
Y142150D02*
D03*
D72*
X13294Y287150D02*
D03*
Y142150D02*
D03*
D73*
X41498Y86399D02*
D03*
X41498Y-2D02*
D03*
D74*
X-0Y86401D02*
D03*
X0Y0D02*
D03*
D75*
X36499Y72099D02*
D03*
Y14299D02*
D03*
M02*
