G04*
G04 #@! TF.GenerationSoftware,Altium Limited,Altium Designer,21.3.2 (30)*
G04*
G04 Layer_Color=65535*
%FSLAX44Y44*%
%MOMM*%
G71*
G04*
G04 #@! TF.SameCoordinates,B628278F-7F55-4BD0-9F56-58D37DFBE93C*
G04*
G04*
G04 #@! TF.FilePolarity,Positive*
G04*
G01*
G75*
%ADD10C,0.1000*%
%ADD11C,0.2000*%
%ADD12C,0.2032*%
%ADD13C,0.1500*%
%ADD14C,0.2540*%
%ADD15C,0.1270*%
G36*
X269789Y47838D02*
X275526D01*
Y53574D01*
X269789Y47838D01*
D02*
G37*
G36*
X119164Y72690D02*
Y66941D01*
X124912Y72690D01*
X119164D01*
D02*
G37*
G36*
X220353Y248738D02*
X210516Y238900D01*
Y248738D01*
X220353D01*
D02*
G37*
G36*
X414094Y12274D02*
X414197Y12265D01*
X414320Y12255D01*
X414442Y12236D01*
X414583Y12218D01*
X414883Y12152D01*
X415034Y12105D01*
X415184Y12058D01*
X415335Y11992D01*
X415476Y11917D01*
X415607Y11832D01*
X415729Y11738D01*
X415739Y11729D01*
X415757Y11710D01*
X415786Y11682D01*
X415823Y11644D01*
X415870Y11588D01*
X415927Y11522D01*
X415983Y11447D01*
X416049Y11362D01*
X416105Y11259D01*
X416162Y11156D01*
X416218Y11034D01*
X416265Y10902D01*
X416312Y10770D01*
X416350Y10620D01*
X416378Y10470D01*
X416387Y10301D01*
X415071Y10253D01*
Y10263D01*
Y10272D01*
X415053Y10338D01*
X415034Y10423D01*
X414996Y10526D01*
X414949Y10648D01*
X414883Y10761D01*
X414799Y10874D01*
X414705Y10968D01*
X414696Y10977D01*
X414658Y11005D01*
X414592Y11043D01*
X414498Y11080D01*
X414385Y11118D01*
X414244Y11156D01*
X414075Y11184D01*
X413878Y11193D01*
X413784D01*
X413680Y11184D01*
X413558Y11165D01*
X413417Y11137D01*
X413267Y11090D01*
X413126Y11034D01*
X412994Y10949D01*
X412985Y10940D01*
X412966Y10921D01*
X412929Y10892D01*
X412891Y10846D01*
X412854Y10789D01*
X412816Y10714D01*
X412797Y10639D01*
X412788Y10545D01*
Y10535D01*
Y10507D01*
X412797Y10460D01*
X412816Y10413D01*
X412835Y10347D01*
X412863Y10282D01*
X412910Y10216D01*
X412976Y10150D01*
X412985Y10141D01*
X413032Y10113D01*
X413060Y10094D01*
X413107Y10075D01*
X413154Y10047D01*
X413220Y10019D01*
X413295Y9990D01*
X413380Y9953D01*
X413483Y9915D01*
X413587Y9878D01*
X413718Y9840D01*
X413859Y9802D01*
X414010Y9765D01*
X414179Y9718D01*
X414188D01*
X414226Y9708D01*
X414273Y9699D01*
X414338Y9680D01*
X414414Y9661D01*
X414508Y9633D01*
X414611Y9605D01*
X414714Y9577D01*
X414940Y9502D01*
X415175Y9426D01*
X415400Y9342D01*
X415494Y9295D01*
X415588Y9248D01*
X415598D01*
X415607Y9238D01*
X415663Y9201D01*
X415748Y9144D01*
X415852Y9069D01*
X415964Y8975D01*
X416086Y8863D01*
X416209Y8731D01*
X416312Y8581D01*
X416321Y8562D01*
X416350Y8505D01*
X416397Y8421D01*
X416443Y8299D01*
X416491Y8148D01*
X416538Y7970D01*
X416566Y7772D01*
X416575Y7547D01*
Y7537D01*
Y7519D01*
Y7491D01*
Y7453D01*
X416566Y7406D01*
X416556Y7340D01*
X416538Y7208D01*
X416500Y7039D01*
X416443Y6861D01*
X416359Y6682D01*
X416256Y6494D01*
Y6485D01*
X416237Y6475D01*
X416199Y6419D01*
X416124Y6325D01*
X416030Y6222D01*
X415908Y6100D01*
X415748Y5987D01*
X415579Y5874D01*
X415372Y5771D01*
X415363D01*
X415344Y5761D01*
X415316Y5752D01*
X415269Y5733D01*
X415212Y5714D01*
X415147Y5695D01*
X415071Y5677D01*
X414987Y5658D01*
X414883Y5630D01*
X414780Y5611D01*
X414536Y5573D01*
X414263Y5545D01*
X413963Y5536D01*
X413840D01*
X413756Y5545D01*
X413652Y5555D01*
X413540Y5564D01*
X413408Y5583D01*
X413267Y5611D01*
X412957Y5677D01*
X412797Y5724D01*
X412647Y5771D01*
X412487Y5836D01*
X412337Y5912D01*
X412196Y5996D01*
X412064Y6100D01*
X412055Y6109D01*
X412036Y6128D01*
X411998Y6156D01*
X411961Y6203D01*
X411904Y6269D01*
X411848Y6344D01*
X411782Y6428D01*
X411716Y6522D01*
X411651Y6635D01*
X411585Y6757D01*
X411519Y6898D01*
X411453Y7049D01*
X411406Y7208D01*
X411350Y7387D01*
X411312Y7575D01*
X411284Y7772D01*
X412562Y7895D01*
Y7885D01*
X412572Y7866D01*
Y7829D01*
X412581Y7791D01*
X412619Y7678D01*
X412665Y7537D01*
X412722Y7378D01*
X412807Y7218D01*
X412901Y7077D01*
X413023Y6945D01*
X413041Y6936D01*
X413088Y6898D01*
X413164Y6851D01*
X413276Y6795D01*
X413417Y6739D01*
X413577Y6692D01*
X413765Y6654D01*
X413981Y6645D01*
X414085D01*
X414197Y6663D01*
X414338Y6682D01*
X414489Y6710D01*
X414649Y6757D01*
X414799Y6823D01*
X414930Y6908D01*
X414949Y6917D01*
X414987Y6955D01*
X415034Y7011D01*
X415100Y7086D01*
X415156Y7180D01*
X415212Y7293D01*
X415250Y7406D01*
X415259Y7537D01*
Y7547D01*
Y7575D01*
X415250Y7622D01*
X415241Y7678D01*
X415222Y7735D01*
X415203Y7801D01*
X415165Y7866D01*
X415118Y7932D01*
X415109Y7942D01*
X415090Y7960D01*
X415062Y7989D01*
X415015Y8026D01*
X414949Y8073D01*
X414865Y8120D01*
X414771Y8167D01*
X414649Y8214D01*
X414639D01*
X414602Y8233D01*
X414536Y8252D01*
X414489Y8270D01*
X414432Y8280D01*
X414367Y8299D01*
X414291Y8327D01*
X414207Y8346D01*
X414113Y8374D01*
X414000Y8402D01*
X413878Y8430D01*
X413746Y8468D01*
X413596Y8505D01*
X413587D01*
X413549Y8515D01*
X413493Y8534D01*
X413427Y8552D01*
X413342Y8581D01*
X413239Y8609D01*
X413135Y8646D01*
X413013Y8684D01*
X412769Y8778D01*
X412534Y8891D01*
X412412Y8947D01*
X412308Y9013D01*
X412205Y9079D01*
X412121Y9144D01*
X412111Y9154D01*
X412092Y9173D01*
X412064Y9201D01*
X412026Y9238D01*
X411979Y9295D01*
X411932Y9361D01*
X411876Y9426D01*
X411829Y9511D01*
X411716Y9708D01*
X411622Y9934D01*
X411585Y10056D01*
X411557Y10178D01*
X411538Y10319D01*
X411528Y10460D01*
Y10470D01*
Y10479D01*
Y10507D01*
Y10545D01*
X411547Y10639D01*
X411566Y10761D01*
X411594Y10902D01*
X411641Y11062D01*
X411707Y11231D01*
X411801Y11391D01*
Y11400D01*
X411810Y11409D01*
X411857Y11466D01*
X411914Y11541D01*
X412008Y11635D01*
X412121Y11738D01*
X412261Y11851D01*
X412421Y11954D01*
X412609Y12048D01*
X412619D01*
X412637Y12058D01*
X412665Y12067D01*
X412703Y12086D01*
X412760Y12105D01*
X412816Y12124D01*
X412891Y12142D01*
X412976Y12171D01*
X413164Y12208D01*
X413380Y12246D01*
X413624Y12274D01*
X413897Y12283D01*
X414010D01*
X414094Y12274D01*
D02*
G37*
G36*
X422393Y11062D02*
X420475D01*
Y5658D01*
X419160D01*
Y11062D01*
X417233D01*
Y12161D01*
X422393D01*
Y11062D01*
D02*
G37*
G36*
X410391D02*
X406886D01*
Y9624D01*
X410147D01*
Y8524D01*
X406886D01*
Y6757D01*
X410513D01*
Y5658D01*
X405570D01*
Y12161D01*
X410391D01*
Y11062D01*
D02*
G37*
G36*
X404715D02*
X402798D01*
Y5658D01*
X401482D01*
Y11062D01*
X399555D01*
Y12161D01*
X404715D01*
Y11062D01*
D02*
G37*
G36*
X415289Y17149D02*
X413870D01*
X411539Y23652D01*
X412958D01*
X414612Y18841D01*
X416200Y23652D01*
X417601D01*
X415289Y17149D01*
D02*
G37*
G36*
X410975Y22402D02*
X408616D01*
X408419Y21293D01*
X408428D01*
X408438Y21303D01*
X408494Y21331D01*
X408579Y21359D01*
X408682Y21406D01*
X408814Y21444D01*
X408955Y21472D01*
X409114Y21500D01*
X409274Y21510D01*
X409359D01*
X409415Y21500D01*
X409481Y21491D01*
X409566Y21481D01*
X409660Y21463D01*
X409763Y21434D01*
X409979Y21359D01*
X410101Y21312D01*
X410214Y21256D01*
X410336Y21181D01*
X410458Y21096D01*
X410571Y21002D01*
X410684Y20899D01*
X410693Y20889D01*
X410712Y20870D01*
X410740Y20833D01*
X410778Y20786D01*
X410815Y20730D01*
X410872Y20654D01*
X410919Y20570D01*
X410975Y20476D01*
X411032Y20373D01*
X411079Y20250D01*
X411135Y20119D01*
X411172Y19987D01*
X411210Y19837D01*
X411238Y19677D01*
X411257Y19508D01*
X411267Y19329D01*
Y19320D01*
Y19292D01*
Y19254D01*
X411257Y19198D01*
Y19123D01*
X411238Y19038D01*
X411229Y18944D01*
X411210Y18850D01*
X411154Y18624D01*
X411069Y18380D01*
X411013Y18248D01*
X410956Y18126D01*
X410881Y18004D01*
X410797Y17882D01*
X410787Y17873D01*
X410768Y17844D01*
X410731Y17807D01*
X410684Y17750D01*
X410618Y17685D01*
X410533Y17609D01*
X410439Y17534D01*
X410336Y17459D01*
X410214Y17375D01*
X410082Y17299D01*
X409941Y17224D01*
X409782Y17158D01*
X409613Y17102D01*
X409434Y17064D01*
X409236Y17036D01*
X409030Y17027D01*
X408945D01*
X408879Y17036D01*
X408804Y17046D01*
X408710Y17055D01*
X408616Y17064D01*
X408503Y17083D01*
X408278Y17140D01*
X408024Y17234D01*
X407902Y17280D01*
X407780Y17346D01*
X407667Y17421D01*
X407554Y17506D01*
X407545Y17515D01*
X407526Y17525D01*
X407498Y17553D01*
X407460Y17591D01*
X407423Y17647D01*
X407366Y17703D01*
X407319Y17769D01*
X407263Y17844D01*
X407197Y17938D01*
X407141Y18032D01*
X407037Y18258D01*
X406943Y18512D01*
X406915Y18653D01*
X406887Y18803D01*
X408128Y18935D01*
Y18916D01*
X408137Y18869D01*
X408156Y18784D01*
X408184Y18690D01*
X408222Y18587D01*
X408278Y18474D01*
X408353Y18371D01*
X408438Y18267D01*
X408447Y18258D01*
X408485Y18230D01*
X408541Y18192D01*
X408616Y18145D01*
X408701Y18098D01*
X408804Y18060D01*
X408926Y18032D01*
X409049Y18023D01*
X409067D01*
X409114Y18032D01*
X409190Y18042D01*
X409283Y18060D01*
X409387Y18098D01*
X409500Y18154D01*
X409613Y18239D01*
X409716Y18342D01*
X409725Y18361D01*
X409763Y18399D01*
X409800Y18474D01*
X409857Y18587D01*
X409904Y18718D01*
X409951Y18878D01*
X409979Y19075D01*
X409988Y19301D01*
Y19310D01*
Y19329D01*
Y19358D01*
Y19404D01*
X409979Y19508D01*
X409951Y19639D01*
X409923Y19790D01*
X409876Y19940D01*
X409810Y20081D01*
X409716Y20203D01*
X409706Y20213D01*
X409669Y20250D01*
X409603Y20297D01*
X409528Y20363D01*
X409425Y20419D01*
X409302Y20466D01*
X409161Y20504D01*
X409011Y20513D01*
X408955D01*
X408917Y20504D01*
X408823Y20485D01*
X408691Y20457D01*
X408541Y20401D01*
X408381Y20316D01*
X408297Y20260D01*
X408212Y20194D01*
X408128Y20119D01*
X408043Y20034D01*
X407037Y20175D01*
X407677Y23568D01*
X410975D01*
Y22402D01*
D02*
G37*
G36*
X324614Y2560D02*
X223014D01*
Y17800D01*
X324614D01*
Y2560D01*
D02*
G37*
G36*
X398274Y83840D02*
X360174D01*
Y96540D01*
X398274D01*
Y83840D01*
D02*
G37*
G36*
X124808Y280891D02*
X123511D01*
Y285486D01*
X118465D01*
Y280891D01*
X117168D01*
Y290646D01*
X118465D01*
Y286642D01*
X123511D01*
Y290646D01*
X124808D01*
Y280891D01*
D02*
G37*
G36*
X187737D02*
X186497D01*
Y289053D01*
X183649Y280891D01*
X182493D01*
X179674Y289194D01*
Y280891D01*
X178433D01*
Y290646D01*
X180365D01*
X182677Y283724D01*
Y283710D01*
X182691Y283682D01*
X182705Y283640D01*
X182733Y283569D01*
X182789Y283400D01*
X182860Y283188D01*
X182930Y282949D01*
X183015Y282709D01*
X183085Y282484D01*
X183142Y282286D01*
X183156Y282314D01*
X183170Y282385D01*
X183212Y282512D01*
X183269Y282681D01*
X183339Y282907D01*
X183438Y283174D01*
X183536Y283485D01*
X183663Y283851D01*
X186003Y290646D01*
X187737D01*
Y280891D01*
D02*
G37*
G36*
X146067D02*
X144826D01*
Y289053D01*
X141979Y280891D01*
X140823D01*
X138003Y289194D01*
Y280891D01*
X136763D01*
Y290646D01*
X138694D01*
X141006Y283724D01*
Y283710D01*
X141020Y283682D01*
X141034Y283640D01*
X141062Y283569D01*
X141119Y283400D01*
X141189Y283188D01*
X141260Y282949D01*
X141344Y282709D01*
X141415Y282484D01*
X141471Y282286D01*
X141485Y282314D01*
X141499Y282385D01*
X141542Y282512D01*
X141598Y282681D01*
X141668Y282907D01*
X141767Y283174D01*
X141866Y283485D01*
X141993Y283851D01*
X144333Y290646D01*
X146067D01*
Y280891D01*
D02*
G37*
G36*
X204231D02*
X202934D01*
Y290646D01*
X204231D01*
Y280891D01*
D02*
G37*
G36*
X197845Y290632D02*
X198085Y290618D01*
X198338Y290604D01*
X198578Y290575D01*
X198789Y290547D01*
X198818D01*
X198916Y290519D01*
X199043Y290491D01*
X199212Y290448D01*
X199396Y290378D01*
X199593Y290293D01*
X199804Y290195D01*
X199988Y290082D01*
X200016Y290068D01*
X200072Y290026D01*
X200157Y289941D01*
X200270Y289842D01*
X200396Y289715D01*
X200523Y289546D01*
X200664Y289363D01*
X200777Y289152D01*
X200791Y289123D01*
X200819Y289053D01*
X200876Y288926D01*
X200932Y288757D01*
X200975Y288559D01*
X201031Y288334D01*
X201059Y288080D01*
X201073Y287812D01*
Y287798D01*
Y287756D01*
Y287700D01*
X201059Y287601D01*
X201045Y287502D01*
X201031Y287375D01*
X201003Y287234D01*
X200975Y287079D01*
X200876Y286755D01*
X200819Y286586D01*
X200735Y286403D01*
X200636Y286219D01*
X200537Y286050D01*
X200411Y285881D01*
X200270Y285712D01*
X200256Y285698D01*
X200227Y285670D01*
X200185Y285627D01*
X200114Y285585D01*
X200030Y285515D01*
X199917Y285444D01*
X199776Y285359D01*
X199621Y285289D01*
X199438Y285204D01*
X199226Y285120D01*
X199001Y285049D01*
X198733Y284993D01*
X198451Y284937D01*
X198141Y284894D01*
X197789Y284866D01*
X197422Y284852D01*
X194927D01*
Y280891D01*
X193630D01*
Y290646D01*
X197633D01*
X197845Y290632D01*
D02*
G37*
G36*
X191346Y280891D02*
X190049D01*
Y290646D01*
X191346D01*
Y280891D01*
D02*
G37*
G36*
X162743Y289490D02*
X159529D01*
Y280891D01*
X158232D01*
Y289490D01*
X155018D01*
Y290646D01*
X162743D01*
Y289490D01*
D02*
G37*
G36*
X149676Y280891D02*
X148378D01*
Y290646D01*
X149676D01*
Y280891D01*
D02*
G37*
G36*
X130969Y290632D02*
X131251Y290618D01*
X131533Y290590D01*
X131815Y290547D01*
X132054Y290505D01*
X132068D01*
X132097Y290491D01*
X132139D01*
X132195Y290463D01*
X132350Y290420D01*
X132548Y290350D01*
X132773Y290251D01*
X133013Y290124D01*
X133252Y289983D01*
X133478Y289800D01*
X133492Y289786D01*
X133506Y289772D01*
X133548Y289729D01*
X133605Y289687D01*
X133746Y289546D01*
X133915Y289349D01*
X134098Y289109D01*
X134296Y288827D01*
X134479Y288503D01*
X134634Y288137D01*
Y288123D01*
X134648Y288094D01*
X134676Y288038D01*
X134690Y287953D01*
X134733Y287855D01*
X134761Y287742D01*
X134789Y287615D01*
X134831Y287460D01*
X134874Y287305D01*
X134902Y287122D01*
X134972Y286727D01*
X135015Y286290D01*
X135029Y285811D01*
Y285797D01*
Y285768D01*
Y285698D01*
Y285627D01*
X135015Y285529D01*
Y285416D01*
X135000Y285148D01*
X134958Y284838D01*
X134916Y284514D01*
X134845Y284175D01*
X134761Y283837D01*
Y283823D01*
X134747Y283795D01*
X134733Y283752D01*
X134719Y283696D01*
X134662Y283541D01*
X134578Y283344D01*
X134493Y283118D01*
X134380Y282892D01*
X134239Y282653D01*
X134098Y282427D01*
X134084Y282399D01*
X134028Y282329D01*
X133943Y282230D01*
X133830Y282103D01*
X133704Y281962D01*
X133548Y281821D01*
X133393Y281666D01*
X133210Y281539D01*
X133182Y281525D01*
X133126Y281483D01*
X133027Y281426D01*
X132886Y281356D01*
X132717Y281271D01*
X132519Y281201D01*
X132294Y281116D01*
X132040Y281046D01*
X132012D01*
X131970Y281032D01*
X131927Y281018D01*
X131786Y281003D01*
X131589Y280975D01*
X131363Y280947D01*
X131096Y280919D01*
X130800Y280905D01*
X130475Y280891D01*
X126965D01*
Y290646D01*
X130715D01*
X130969Y290632D01*
D02*
G37*
G36*
X168580Y290801D02*
X168706D01*
X168833Y290787D01*
X169002Y290759D01*
X169172Y290730D01*
X169538Y290660D01*
X169961Y290547D01*
X170370Y290378D01*
X170581Y290279D01*
X170793Y290167D01*
X170807Y290152D01*
X170835Y290138D01*
X170891Y290096D01*
X170976Y290054D01*
X171061Y289983D01*
X171173Y289899D01*
X171413Y289701D01*
X171667Y289448D01*
X171949Y289137D01*
X172217Y288771D01*
X172442Y288362D01*
Y288348D01*
X172470Y288306D01*
X172498Y288249D01*
X172527Y288165D01*
X172583Y288052D01*
X172625Y287925D01*
X172682Y287770D01*
X172738Y287601D01*
X172780Y287418D01*
X172837Y287220D01*
X172893Y286995D01*
X172936Y286769D01*
X172992Y286276D01*
X173020Y285740D01*
Y285726D01*
Y285670D01*
Y285599D01*
X173006Y285486D01*
Y285359D01*
X172992Y285204D01*
X172964Y285035D01*
X172950Y284852D01*
X172879Y284443D01*
X172766Y283992D01*
X172611Y283541D01*
X172527Y283315D01*
X172414Y283090D01*
Y283076D01*
X172386Y283034D01*
X172358Y282977D01*
X172301Y282892D01*
X172245Y282794D01*
X172174Y282695D01*
X171977Y282427D01*
X171737Y282145D01*
X171455Y281849D01*
X171117Y281567D01*
X170722Y281314D01*
X170708D01*
X170680Y281285D01*
X170609Y281257D01*
X170525Y281215D01*
X170426Y281173D01*
X170313Y281130D01*
X170173Y281074D01*
X170017Y281018D01*
X169848Y280961D01*
X169665Y280905D01*
X169256Y280820D01*
X168819Y280750D01*
X168354Y280722D01*
X168213D01*
X168128Y280736D01*
X168002D01*
X167861Y280764D01*
X167705Y280778D01*
X167522Y280806D01*
X167142Y280891D01*
X166733Y281003D01*
X166310Y281173D01*
X166098Y281271D01*
X165887Y281384D01*
X165873Y281398D01*
X165845Y281412D01*
X165788Y281455D01*
X165704Y281511D01*
X165619Y281567D01*
X165520Y281652D01*
X165281Y281863D01*
X165013Y282117D01*
X164731Y282427D01*
X164477Y282780D01*
X164238Y283188D01*
Y283203D01*
X164209Y283245D01*
X164181Y283301D01*
X164153Y283386D01*
X164111Y283499D01*
X164069Y283626D01*
X164012Y283766D01*
X163970Y283922D01*
X163913Y284105D01*
X163857Y284288D01*
X163773Y284711D01*
X163716Y285148D01*
X163688Y285627D01*
Y285641D01*
Y285655D01*
Y285740D01*
X163702Y285867D01*
Y286036D01*
X163730Y286234D01*
X163758Y286473D01*
X163801Y286741D01*
X163857Y287023D01*
X163913Y287319D01*
X163998Y287629D01*
X164111Y287939D01*
X164238Y288263D01*
X164379Y288574D01*
X164562Y288884D01*
X164759Y289166D01*
X164985Y289433D01*
X164999Y289448D01*
X165041Y289490D01*
X165126Y289560D01*
X165224Y289645D01*
X165351Y289758D01*
X165506Y289870D01*
X165690Y289997D01*
X165901Y290124D01*
X166127Y290251D01*
X166380Y290378D01*
X166662Y290491D01*
X166958Y290604D01*
X167283Y290688D01*
X167621Y290759D01*
X167973Y290801D01*
X168354Y290815D01*
X168481D01*
X168580Y290801D01*
D02*
G37*
G36*
X212153Y278184D02*
X209517D01*
Y279171D01*
X210955D01*
Y289659D01*
X209517D01*
Y290646D01*
X212153D01*
Y278184D01*
D02*
G37*
G36*
X112051Y289659D02*
X110613D01*
Y279171D01*
X112051D01*
Y278184D01*
X109414D01*
Y290646D01*
X112051D01*
Y289659D01*
D02*
G37*
%LPC*%
G36*
X269021Y15135D02*
X267823D01*
Y13767D01*
X269021D01*
Y15135D01*
D02*
G37*
G36*
X308394Y12611D02*
X308281D01*
X308013Y12597D01*
X307759Y12555D01*
X307534Y12499D01*
X307308Y12428D01*
X307111Y12343D01*
X306928Y12245D01*
X306759Y12132D01*
X306618Y12033D01*
X306477Y11921D01*
X306364Y11808D01*
X306265Y11709D01*
X306181Y11624D01*
X306124Y11554D01*
X306082Y11498D01*
X306054Y11455D01*
X306040Y11441D01*
Y12456D01*
X304968D01*
Y5379D01*
X306166D01*
Y9228D01*
Y9468D01*
X306195Y9707D01*
X306223Y9905D01*
X306251Y10088D01*
X306293Y10257D01*
X306336Y10412D01*
X306392Y10553D01*
X306448Y10666D01*
X306491Y10765D01*
X306547Y10849D01*
X306589Y10920D01*
X306632Y10976D01*
X306688Y11047D01*
X306716Y11075D01*
X306928Y11244D01*
X307153Y11357D01*
X307379Y11441D01*
X307576Y11512D01*
X307759Y11540D01*
X307901Y11554D01*
X307957Y11568D01*
X308027D01*
X308197Y11554D01*
X308366Y11540D01*
X308507Y11498D01*
X308619Y11455D01*
X308718Y11413D01*
X308803Y11385D01*
X308845Y11357D01*
X308859Y11343D01*
X308986Y11258D01*
X309099Y11159D01*
X309183Y11061D01*
X309254Y10976D01*
X309296Y10891D01*
X309338Y10821D01*
X309366Y10779D01*
Y10765D01*
X309409Y10610D01*
X309451Y10440D01*
X309479Y10257D01*
X309493Y10074D01*
X309508Y9919D01*
Y9792D01*
Y9693D01*
Y9679D01*
Y9665D01*
Y5379D01*
X310706D01*
Y10017D01*
X310692Y10257D01*
X310678Y10454D01*
Y10624D01*
X310664Y10736D01*
X310649Y10821D01*
X310635Y10877D01*
Y10891D01*
X310593Y11075D01*
X310522Y11244D01*
X310466Y11385D01*
X310410Y11526D01*
X310339Y11624D01*
X310297Y11695D01*
X310269Y11751D01*
X310255Y11766D01*
X310142Y11906D01*
X310015Y12019D01*
X309888Y12132D01*
X309747Y12217D01*
X309634Y12287D01*
X309536Y12329D01*
X309479Y12358D01*
X309451Y12372D01*
X309254Y12456D01*
X309042Y12513D01*
X308845Y12555D01*
X308662Y12583D01*
X308507Y12597D01*
X308394Y12611D01*
D02*
G37*
G36*
X274279D02*
X274166D01*
X273899Y12597D01*
X273645Y12555D01*
X273419Y12499D01*
X273194Y12428D01*
X272996Y12343D01*
X272813Y12245D01*
X272644Y12132D01*
X272503Y12033D01*
X272362Y11921D01*
X272249Y11808D01*
X272150Y11709D01*
X272066Y11624D01*
X272010Y11554D01*
X271967Y11498D01*
X271939Y11455D01*
X271925Y11441D01*
Y12456D01*
X270854D01*
Y5379D01*
X272052D01*
Y9228D01*
Y9468D01*
X272080Y9707D01*
X272108Y9905D01*
X272136Y10088D01*
X272179Y10257D01*
X272221Y10412D01*
X272277Y10553D01*
X272334Y10666D01*
X272376Y10765D01*
X272432Y10849D01*
X272475Y10920D01*
X272517Y10976D01*
X272573Y11047D01*
X272602Y11075D01*
X272813Y11244D01*
X273039Y11357D01*
X273264Y11441D01*
X273461Y11512D01*
X273645Y11540D01*
X273786Y11554D01*
X273842Y11568D01*
X273913D01*
X274082Y11554D01*
X274251Y11540D01*
X274392Y11498D01*
X274505Y11455D01*
X274603Y11413D01*
X274688Y11385D01*
X274730Y11357D01*
X274744Y11343D01*
X274871Y11258D01*
X274984Y11159D01*
X275068Y11061D01*
X275139Y10976D01*
X275181Y10891D01*
X275224Y10821D01*
X275252Y10779D01*
Y10765D01*
X275294Y10610D01*
X275336Y10440D01*
X275365Y10257D01*
X275379Y10074D01*
X275393Y9919D01*
Y9792D01*
Y9693D01*
Y9679D01*
Y9665D01*
Y5379D01*
X276591D01*
Y10017D01*
X276577Y10257D01*
X276563Y10454D01*
Y10624D01*
X276549Y10736D01*
X276535Y10821D01*
X276521Y10877D01*
Y10891D01*
X276478Y11075D01*
X276408Y11244D01*
X276351Y11385D01*
X276295Y11526D01*
X276224Y11624D01*
X276182Y11695D01*
X276154Y11751D01*
X276140Y11766D01*
X276027Y11906D01*
X275900Y12019D01*
X275773Y12132D01*
X275632Y12217D01*
X275520Y12287D01*
X275421Y12329D01*
X275365Y12358D01*
X275336Y12372D01*
X275139Y12456D01*
X274928Y12513D01*
X274730Y12555D01*
X274547Y12583D01*
X274392Y12597D01*
X274279Y12611D01*
D02*
G37*
G36*
X292507D02*
X292408D01*
X292253Y12597D01*
X292112Y12569D01*
X291971Y12527D01*
X291858Y12484D01*
X291773Y12442D01*
X291689Y12400D01*
X291647Y12372D01*
X291632Y12358D01*
X291506Y12245D01*
X291379Y12104D01*
X291252Y11935D01*
X291139Y11780D01*
X291026Y11624D01*
X290956Y11498D01*
X290900Y11399D01*
X290885Y11385D01*
Y12456D01*
X289800D01*
Y5379D01*
X290998D01*
Y9073D01*
X291012Y9355D01*
X291026Y9609D01*
X291054Y9848D01*
X291097Y10060D01*
X291139Y10229D01*
X291167Y10356D01*
X291181Y10440D01*
X291196Y10469D01*
X291252Y10624D01*
X291322Y10750D01*
X291393Y10863D01*
X291463Y10962D01*
X291534Y11032D01*
X291576Y11089D01*
X291618Y11117D01*
X291632Y11131D01*
X291745Y11216D01*
X291872Y11272D01*
X291999Y11314D01*
X292098Y11343D01*
X292196Y11357D01*
X292267Y11371D01*
X292337D01*
X292492Y11357D01*
X292647Y11329D01*
X292803Y11286D01*
X292929Y11244D01*
X293042Y11202D01*
X293127Y11159D01*
X293183Y11131D01*
X293197Y11117D01*
X293634Y12217D01*
X293395Y12343D01*
X293169Y12442D01*
X292972Y12513D01*
X292789Y12569D01*
X292633Y12597D01*
X292507Y12611D01*
D02*
G37*
G36*
X248552D02*
X248453D01*
X248298Y12597D01*
X248157Y12569D01*
X248016Y12527D01*
X247904Y12484D01*
X247819Y12442D01*
X247735Y12400D01*
X247692Y12372D01*
X247678Y12358D01*
X247551Y12245D01*
X247424Y12104D01*
X247297Y11935D01*
X247185Y11780D01*
X247072Y11624D01*
X247001Y11498D01*
X246945Y11399D01*
X246931Y11385D01*
Y12456D01*
X245846D01*
Y5379D01*
X247044D01*
Y9073D01*
X247058Y9355D01*
X247072Y9609D01*
X247100Y9848D01*
X247142Y10060D01*
X247185Y10229D01*
X247213Y10356D01*
X247227Y10440D01*
X247241Y10469D01*
X247297Y10624D01*
X247368Y10750D01*
X247438Y10863D01*
X247509Y10962D01*
X247579Y11032D01*
X247622Y11089D01*
X247664Y11117D01*
X247678Y11131D01*
X247791Y11216D01*
X247918Y11272D01*
X248045Y11314D01*
X248143Y11343D01*
X248242Y11357D01*
X248312Y11371D01*
X248383D01*
X248538Y11357D01*
X248693Y11329D01*
X248848Y11286D01*
X248975Y11244D01*
X249088Y11202D01*
X249172Y11159D01*
X249229Y11131D01*
X249243Y11117D01*
X249680Y12217D01*
X249440Y12343D01*
X249215Y12442D01*
X249017Y12513D01*
X248834Y12569D01*
X248679Y12597D01*
X248552Y12611D01*
D02*
G37*
G36*
X301120D02*
X301007D01*
X300669Y12597D01*
X300359Y12541D01*
X300063Y12470D01*
X299823Y12400D01*
X299611Y12315D01*
X299527Y12273D01*
X299456Y12245D01*
X299400Y12217D01*
X299358Y12188D01*
X299329Y12174D01*
X299315D01*
X299048Y12005D01*
X298808Y11794D01*
X298610Y11582D01*
X298441Y11371D01*
X298314Y11187D01*
X298230Y11032D01*
X298202Y10976D01*
X298174Y10934D01*
X298159Y10906D01*
Y10891D01*
X298033Y10553D01*
X297948Y10215D01*
X297878Y9876D01*
X297835Y9566D01*
X297821Y9425D01*
X297807Y9298D01*
Y9186D01*
X297793Y9087D01*
Y8890D01*
X297807Y8565D01*
X297835Y8269D01*
X297878Y7973D01*
X297934Y7720D01*
X297990Y7466D01*
X298075Y7254D01*
X298145Y7043D01*
X298230Y6860D01*
X298314Y6705D01*
X298385Y6564D01*
X298470Y6437D01*
X298526Y6338D01*
X298582Y6268D01*
X298625Y6211D01*
X298653Y6183D01*
X298667Y6169D01*
X298836Y6000D01*
X299019Y5859D01*
X299203Y5732D01*
X299400Y5619D01*
X299597Y5535D01*
X299781Y5450D01*
X300161Y5337D01*
X300330Y5309D01*
X300485Y5281D01*
X300626Y5253D01*
X300753Y5239D01*
X300852Y5224D01*
X300993D01*
X301204Y5239D01*
X301416Y5253D01*
X301782Y5337D01*
X302121Y5436D01*
X302403Y5563D01*
X302515Y5633D01*
X302628Y5690D01*
X302727Y5746D01*
X302797Y5803D01*
X302854Y5845D01*
X302896Y5873D01*
X302924Y5887D01*
X302938Y5901D01*
X303079Y6042D01*
X303206Y6183D01*
X303432Y6493D01*
X303615Y6817D01*
X303742Y7114D01*
X303841Y7395D01*
X303869Y7508D01*
X303897Y7621D01*
X303911Y7706D01*
X303925Y7762D01*
X303939Y7804D01*
Y7818D01*
X302755Y7973D01*
X302699Y7663D01*
X302614Y7381D01*
X302501Y7156D01*
X302403Y6973D01*
X302304Y6817D01*
X302219Y6719D01*
X302177Y6648D01*
X302149Y6634D01*
X301966Y6493D01*
X301768Y6395D01*
X301571Y6310D01*
X301388Y6268D01*
X301233Y6240D01*
X301092Y6225D01*
X301007Y6211D01*
X300979D01*
X300824Y6225D01*
X300669Y6240D01*
X300387Y6310D01*
X300147Y6409D01*
X299936Y6536D01*
X299781Y6648D01*
X299654Y6747D01*
X299583Y6817D01*
X299555Y6846D01*
X299456Y6973D01*
X299372Y7128D01*
X299245Y7438D01*
X299146Y7790D01*
X299090Y8128D01*
X299048Y8439D01*
X299033Y8565D01*
Y8692D01*
X299019Y8777D01*
Y8862D01*
Y8904D01*
Y8918D01*
Y9172D01*
X299048Y9411D01*
X299076Y9637D01*
X299104Y9834D01*
X299146Y10017D01*
X299203Y10187D01*
X299245Y10342D01*
X299301Y10483D01*
X299358Y10595D01*
X299400Y10694D01*
X299456Y10779D01*
X299499Y10849D01*
X299527Y10906D01*
X299555Y10948D01*
X299583Y10962D01*
Y10976D01*
X299696Y11089D01*
X299809Y11187D01*
X300048Y11357D01*
X300302Y11469D01*
X300528Y11540D01*
X300739Y11596D01*
X300894Y11610D01*
X300965Y11624D01*
X301049D01*
X301261Y11610D01*
X301458Y11568D01*
X301627Y11512D01*
X301782Y11441D01*
X301895Y11371D01*
X301994Y11314D01*
X302050Y11272D01*
X302064Y11258D01*
X302205Y11117D01*
X302332Y10948D01*
X302445Y10765D01*
X302515Y10595D01*
X302586Y10440D01*
X302628Y10314D01*
X302642Y10229D01*
X302656Y10215D01*
Y10201D01*
X303826Y10384D01*
X303728Y10765D01*
X303587Y11089D01*
X303432Y11371D01*
X303277Y11596D01*
X303122Y11780D01*
X302995Y11906D01*
X302910Y11991D01*
X302896Y12019D01*
X302882D01*
X302586Y12217D01*
X302276Y12358D01*
X301966Y12470D01*
X301670Y12541D01*
X301402Y12583D01*
X301289Y12597D01*
X301204D01*
X301120Y12611D01*
D02*
G37*
G36*
X266808Y12456D02*
X265638D01*
X264425Y8354D01*
X264016Y6987D01*
X263664Y8340D01*
X262607Y12456D01*
X261380D01*
X260253Y8298D01*
X260196Y8058D01*
X260140Y7847D01*
X260098Y7663D01*
X260055Y7508D01*
X260013Y7367D01*
X259985Y7254D01*
X259957Y7156D01*
X259942Y7071D01*
X259928Y7001D01*
X259914Y6958D01*
X259900Y6888D01*
X259886Y6860D01*
Y6846D01*
X259491Y8368D01*
X258364Y12456D01*
X257109D01*
X259252Y5379D01*
X260520D01*
X261944Y10821D01*
X262226Y9609D01*
X263354Y5379D01*
X264580D01*
X266808Y12456D01*
D02*
G37*
G36*
X296059Y6747D02*
X294692D01*
Y5379D01*
X296059D01*
Y6747D01*
D02*
G37*
G36*
X269021Y12456D02*
X267823D01*
Y5379D01*
X269021D01*
Y12456D01*
D02*
G37*
G36*
X240926Y15135D02*
X236922D01*
Y5379D01*
X238219D01*
Y9341D01*
X240714D01*
X241081Y9355D01*
X241433Y9383D01*
X241743Y9425D01*
X242025Y9482D01*
X242293Y9538D01*
X242519Y9609D01*
X242730Y9693D01*
X242913Y9778D01*
X243068Y9848D01*
X243209Y9933D01*
X243322Y10003D01*
X243407Y10074D01*
X243477Y10116D01*
X243519Y10158D01*
X243548Y10187D01*
X243562Y10201D01*
X243703Y10370D01*
X243830Y10539D01*
X243928Y10708D01*
X244027Y10891D01*
X244111Y11075D01*
X244168Y11244D01*
X244267Y11568D01*
X244295Y11723D01*
X244323Y11864D01*
X244337Y11991D01*
X244351Y12090D01*
X244365Y12188D01*
Y12301D01*
X244351Y12569D01*
X244323Y12823D01*
X244267Y13048D01*
X244224Y13246D01*
X244168Y13415D01*
X244111Y13542D01*
X244083Y13612D01*
X244069Y13640D01*
X243957Y13852D01*
X243815Y14035D01*
X243689Y14204D01*
X243562Y14331D01*
X243449Y14430D01*
X243364Y14514D01*
X243308Y14557D01*
X243280Y14571D01*
X243097Y14684D01*
X242885Y14782D01*
X242688Y14867D01*
X242505Y14937D01*
X242335Y14980D01*
X242208Y15008D01*
X242110Y15036D01*
X242082D01*
X241870Y15064D01*
X241630Y15092D01*
X241377Y15107D01*
X241137Y15121D01*
X240926Y15135D01*
D02*
G37*
G36*
X279833Y14923D02*
X278635Y14204D01*
Y12456D01*
X277747D01*
Y11526D01*
X278635D01*
Y7438D01*
Y7240D01*
Y7071D01*
X278649Y6916D01*
X278663Y6761D01*
Y6634D01*
X278677Y6521D01*
X278706Y6338D01*
X278734Y6197D01*
X278748Y6098D01*
X278776Y6042D01*
Y6028D01*
X278832Y5901D01*
X278917Y5803D01*
X279002Y5704D01*
X279072Y5633D01*
X279157Y5563D01*
X279213Y5520D01*
X279255Y5492D01*
X279269Y5478D01*
X279424Y5408D01*
X279580Y5365D01*
X279749Y5323D01*
X279918Y5309D01*
X280059Y5295D01*
X280172Y5281D01*
X280284D01*
X280595Y5295D01*
X280750Y5309D01*
X280891Y5337D01*
X281017Y5351D01*
X281116Y5365D01*
X281173Y5379D01*
X281201D01*
X281046Y6437D01*
X280933Y6423D01*
X280820Y6409D01*
X280721D01*
X280651Y6395D01*
X280510D01*
X280327Y6409D01*
X280200Y6437D01*
X280129Y6465D01*
X280101Y6479D01*
X280002Y6550D01*
X279946Y6620D01*
X279904Y6676D01*
X279890Y6705D01*
X279876Y6775D01*
X279862Y6874D01*
X279847Y7099D01*
X279833Y7198D01*
Y7283D01*
Y7339D01*
Y7367D01*
Y11526D01*
X281046D01*
Y12456D01*
X279833D01*
Y14923D01*
D02*
G37*
G36*
X285261Y12611D02*
X285120D01*
X284852Y12597D01*
X284598Y12569D01*
X284359Y12527D01*
X284133Y12456D01*
X283922Y12386D01*
X283724Y12301D01*
X283541Y12217D01*
X283386Y12118D01*
X283231Y12033D01*
X283104Y11935D01*
X282991Y11850D01*
X282906Y11780D01*
X282836Y11709D01*
X282780Y11667D01*
X282751Y11639D01*
X282737Y11624D01*
X282582Y11427D01*
X282441Y11216D01*
X282314Y11004D01*
X282202Y10779D01*
X282117Y10539D01*
X282047Y10314D01*
X281934Y9862D01*
X281891Y9665D01*
X281863Y9468D01*
X281849Y9298D01*
X281835Y9143D01*
X281821Y9017D01*
Y8847D01*
X281835Y8537D01*
X281863Y8241D01*
X281906Y7959D01*
X281962Y7706D01*
X282033Y7466D01*
X282103Y7240D01*
X282188Y7043D01*
X282272Y6860D01*
X282357Y6705D01*
X282441Y6564D01*
X282512Y6451D01*
X282582Y6352D01*
X282639Y6268D01*
X282681Y6211D01*
X282709Y6183D01*
X282723Y6169D01*
X282906Y6000D01*
X283090Y5859D01*
X283287Y5732D01*
X283498Y5619D01*
X283696Y5535D01*
X283907Y5450D01*
X284302Y5337D01*
X284485Y5309D01*
X284655Y5281D01*
X284810Y5253D01*
X284936Y5239D01*
X285035Y5224D01*
X285190D01*
X285627Y5253D01*
X286022Y5323D01*
X286374Y5408D01*
X286515Y5464D01*
X286656Y5520D01*
X286783Y5577D01*
X286896Y5633D01*
X286980Y5676D01*
X287065Y5718D01*
X287122Y5760D01*
X287164Y5788D01*
X287192Y5817D01*
X287206D01*
X287488Y6070D01*
X287714Y6338D01*
X287911Y6620D01*
X288052Y6888D01*
X288165Y7128D01*
X288207Y7240D01*
X288249Y7325D01*
X288277Y7409D01*
X288291Y7466D01*
X288306Y7494D01*
Y7508D01*
X287065Y7663D01*
X286952Y7395D01*
X286825Y7170D01*
X286699Y6973D01*
X286586Y6817D01*
X286487Y6705D01*
X286402Y6620D01*
X286332Y6564D01*
X286318Y6550D01*
X286135Y6437D01*
X285951Y6352D01*
X285754Y6296D01*
X285585Y6254D01*
X285430Y6225D01*
X285303Y6211D01*
X285190D01*
X285021Y6225D01*
X284866Y6240D01*
X284584Y6310D01*
X284330Y6409D01*
X284105Y6521D01*
X283936Y6620D01*
X283809Y6719D01*
X283724Y6789D01*
X283710Y6817D01*
X283696D01*
X283498Y7071D01*
X283344Y7353D01*
X283231Y7663D01*
X283146Y7945D01*
X283104Y8199D01*
X283076Y8312D01*
X283062Y8410D01*
Y8495D01*
X283047Y8551D01*
Y8594D01*
Y8608D01*
X288334D01*
X288348Y8749D01*
Y8918D01*
X288334Y9242D01*
X288306Y9538D01*
X288263Y9820D01*
X288207Y10088D01*
X288137Y10328D01*
X288066Y10553D01*
X287981Y10750D01*
X287897Y10934D01*
X287812Y11103D01*
X287728Y11244D01*
X287657Y11357D01*
X287587Y11455D01*
X287530Y11540D01*
X287488Y11596D01*
X287460Y11624D01*
X287446Y11639D01*
X287276Y11808D01*
X287093Y11963D01*
X286896Y12090D01*
X286699Y12203D01*
X286501Y12301D01*
X286318Y12372D01*
X286121Y12442D01*
X285951Y12484D01*
X285768Y12527D01*
X285613Y12555D01*
X285472Y12583D01*
X285359Y12597D01*
X285261Y12611D01*
D02*
G37*
G36*
X253401D02*
X253260D01*
X253021Y12597D01*
X252795Y12583D01*
X252358Y12484D01*
X251978Y12358D01*
X251808Y12287D01*
X251653Y12217D01*
X251513Y12146D01*
X251400Y12076D01*
X251287Y12005D01*
X251202Y11949D01*
X251132Y11892D01*
X251075Y11850D01*
X251047Y11836D01*
X251033Y11822D01*
X250836Y11639D01*
X250681Y11427D01*
X250526Y11202D01*
X250413Y10976D01*
X250300Y10736D01*
X250215Y10483D01*
X250145Y10243D01*
X250089Y10017D01*
X250032Y9792D01*
X250004Y9595D01*
X249976Y9397D01*
X249962Y9242D01*
Y9101D01*
X249948Y9003D01*
Y8918D01*
X249962Y8594D01*
X249990Y8284D01*
X250032Y8002D01*
X250089Y7734D01*
X250159Y7494D01*
X250230Y7268D01*
X250314Y7057D01*
X250399Y6874D01*
X250483Y6705D01*
X250568Y6564D01*
X250638Y6451D01*
X250709Y6352D01*
X250765Y6268D01*
X250808Y6211D01*
X250836Y6183D01*
X250850Y6169D01*
X251033Y6000D01*
X251216Y5859D01*
X251414Y5732D01*
X251611Y5619D01*
X251808Y5535D01*
X252020Y5450D01*
X252401Y5337D01*
X252570Y5309D01*
X252739Y5281D01*
X252880Y5253D01*
X253007Y5239D01*
X253120Y5224D01*
X253260D01*
X253599Y5239D01*
X253909Y5295D01*
X254205Y5365D01*
X254445Y5436D01*
X254656Y5520D01*
X254741Y5549D01*
X254811Y5577D01*
X254882Y5605D01*
X254924Y5633D01*
X254938Y5647D01*
X254952D01*
X255234Y5831D01*
X255474Y6028D01*
X255685Y6225D01*
X255854Y6423D01*
X255981Y6592D01*
X256080Y6733D01*
X256108Y6789D01*
X256136Y6831D01*
X256150Y6846D01*
Y6860D01*
X256291Y7184D01*
X256390Y7536D01*
X256475Y7889D01*
X256517Y8241D01*
X256545Y8396D01*
Y8537D01*
X256559Y8678D01*
X256573Y8791D01*
Y9017D01*
X256559Y9327D01*
X256531Y9609D01*
X256489Y9876D01*
X256432Y10130D01*
X256362Y10370D01*
X256277Y10581D01*
X256193Y10793D01*
X256108Y10962D01*
X256024Y11117D01*
X255939Y11258D01*
X255854Y11385D01*
X255784Y11484D01*
X255728Y11554D01*
X255685Y11610D01*
X255657Y11639D01*
X255643Y11653D01*
X255460Y11822D01*
X255276Y11963D01*
X255079Y12104D01*
X254882Y12203D01*
X254684Y12301D01*
X254487Y12372D01*
X254106Y12499D01*
X253923Y12527D01*
X253768Y12555D01*
X253627Y12583D01*
X253500Y12597D01*
X253401Y12611D01*
D02*
G37*
%LPD*%
G36*
X241264Y13965D02*
X241475Y13951D01*
X241645Y13936D01*
X241757Y13908D01*
X241842Y13894D01*
X241898Y13880D01*
X241912D01*
X242096Y13809D01*
X242251Y13725D01*
X242392Y13640D01*
X242519Y13542D01*
X242603Y13443D01*
X242674Y13372D01*
X242716Y13316D01*
X242730Y13302D01*
X242829Y13133D01*
X242913Y12964D01*
X242970Y12780D01*
X242998Y12625D01*
X243026Y12484D01*
X243040Y12358D01*
Y12287D01*
Y12273D01*
Y12259D01*
X243012Y11963D01*
X242956Y11709D01*
X242871Y11484D01*
X242772Y11300D01*
X242674Y11159D01*
X242589Y11047D01*
X242533Y10990D01*
X242505Y10962D01*
X242406Y10877D01*
X242279Y10807D01*
X242011Y10694D01*
X241715Y10610D01*
X241419Y10553D01*
X241151Y10525D01*
X241038Y10511D01*
X240940D01*
X240841Y10497D01*
X238219D01*
Y13979D01*
X241010D01*
X241264Y13965D01*
D02*
G37*
G36*
X285303Y11610D02*
X285458Y11596D01*
X285754Y11512D01*
X286008Y11399D01*
X286219Y11272D01*
X286388Y11145D01*
X286515Y11032D01*
X286586Y10948D01*
X286614Y10934D01*
Y10920D01*
X286741Y10736D01*
X286854Y10525D01*
X286924Y10314D01*
X286995Y10088D01*
X287037Y9905D01*
X287065Y9736D01*
Y9679D01*
X287079Y9637D01*
Y9609D01*
Y9595D01*
X283118D01*
X283160Y9919D01*
X283245Y10215D01*
X283344Y10469D01*
X283456Y10666D01*
X283555Y10835D01*
X283654Y10962D01*
X283710Y11032D01*
X283738Y11061D01*
X283964Y11244D01*
X284189Y11385D01*
X284429Y11484D01*
X284655Y11554D01*
X284838Y11596D01*
X284993Y11610D01*
X285049Y11624D01*
X285134D01*
X285303Y11610D01*
D02*
G37*
G36*
X253430D02*
X253585Y11596D01*
X253867Y11526D01*
X254120Y11413D01*
X254332Y11286D01*
X254501Y11159D01*
X254628Y11061D01*
X254713Y10976D01*
X254741Y10962D01*
Y10948D01*
X254853Y10821D01*
X254938Y10666D01*
X255093Y10356D01*
X255206Y10017D01*
X255276Y9707D01*
X255319Y9411D01*
X255333Y9284D01*
Y9172D01*
X255347Y9087D01*
Y9017D01*
Y8974D01*
Y8960D01*
Y8706D01*
X255319Y8467D01*
X255290Y8255D01*
X255248Y8044D01*
X255206Y7861D01*
X255149Y7692D01*
X255107Y7536D01*
X255051Y7395D01*
X254994Y7283D01*
X254938Y7170D01*
X254882Y7085D01*
X254839Y7015D01*
X254797Y6958D01*
X254769Y6916D01*
X254755Y6902D01*
X254741Y6888D01*
X254628Y6775D01*
X254501Y6662D01*
X254261Y6493D01*
X254008Y6380D01*
X253782Y6296D01*
X253571Y6254D01*
X253416Y6225D01*
X253345Y6211D01*
X253260D01*
X253091Y6225D01*
X252936Y6240D01*
X252640Y6310D01*
X252386Y6423D01*
X252175Y6550D01*
X252006Y6662D01*
X251879Y6775D01*
X251794Y6846D01*
X251780Y6874D01*
X251766D01*
X251667Y7015D01*
X251569Y7156D01*
X251428Y7480D01*
X251315Y7818D01*
X251245Y8157D01*
X251202Y8453D01*
X251188Y8580D01*
Y8692D01*
X251174Y8791D01*
Y8862D01*
Y8904D01*
Y8918D01*
X251188Y9158D01*
X251202Y9397D01*
X251231Y9609D01*
X251273Y9806D01*
X251315Y9989D01*
X251357Y10158D01*
X251414Y10299D01*
X251470Y10440D01*
X251527Y10553D01*
X251583Y10666D01*
X251625Y10750D01*
X251667Y10821D01*
X251710Y10877D01*
X251738Y10920D01*
X251766Y10934D01*
Y10948D01*
X251879Y11061D01*
X252006Y11173D01*
X252246Y11343D01*
X252499Y11455D01*
X252739Y11540D01*
X252950Y11596D01*
X253105Y11610D01*
X253176Y11624D01*
X253260D01*
X253430Y11610D01*
D02*
G37*
%LPC*%
G36*
X379496Y93554D02*
X379374D01*
X379130Y93545D01*
X378914Y93516D01*
X378707Y93479D01*
X378529Y93441D01*
X378387Y93404D01*
X378322Y93385D01*
X378275Y93366D01*
X378237Y93347D01*
X378209Y93338D01*
X378190Y93329D01*
X378181D01*
X377993Y93235D01*
X377824Y93131D01*
X377683Y93018D01*
X377570Y92915D01*
X377485Y92821D01*
X377420Y92746D01*
X377373Y92689D01*
X377363Y92680D01*
Y92671D01*
X377269Y92511D01*
X377203Y92351D01*
X377156Y92191D01*
X377128Y92050D01*
X377109Y91928D01*
X377091Y91834D01*
Y91797D01*
Y91768D01*
Y91759D01*
Y91750D01*
X377100Y91590D01*
X377128Y91440D01*
X377166Y91299D01*
X377203Y91176D01*
X377241Y91082D01*
X377279Y91007D01*
X377307Y90960D01*
X377316Y90941D01*
X377410Y90810D01*
X377523Y90688D01*
X377636Y90584D01*
X377748Y90500D01*
X377842Y90424D01*
X377927Y90378D01*
X377983Y90340D01*
X377993Y90330D01*
X378002D01*
X378077Y90293D01*
X378162Y90255D01*
X378350Y90190D01*
X378566Y90124D01*
X378773Y90058D01*
X378961Y90002D01*
X379045Y89983D01*
X379120Y89964D01*
X379177Y89945D01*
X379224Y89936D01*
X379252Y89926D01*
X379262D01*
X379421Y89889D01*
X379572Y89851D01*
X379703Y89814D01*
X379816Y89785D01*
X379929Y89757D01*
X380023Y89729D01*
X380107Y89710D01*
X380173Y89682D01*
X380239Y89663D01*
X380286Y89654D01*
X380361Y89626D01*
X380408Y89616D01*
X380418Y89607D01*
X380558Y89551D01*
X380681Y89485D01*
X380784Y89419D01*
X380859Y89362D01*
X380925Y89306D01*
X380962Y89269D01*
X380991Y89240D01*
X381000Y89231D01*
X381066Y89146D01*
X381113Y89052D01*
X381141Y88958D01*
X381169Y88883D01*
X381179Y88808D01*
X381188Y88752D01*
Y88705D01*
Y88695D01*
X381179Y88582D01*
X381160Y88479D01*
X381132Y88385D01*
X381094Y88310D01*
X381057Y88235D01*
X381028Y88188D01*
X381009Y88150D01*
X381000Y88141D01*
X380925Y88047D01*
X380831Y87972D01*
X380737Y87906D01*
X380652Y87840D01*
X380568Y87802D01*
X380502Y87765D01*
X380455Y87746D01*
X380436Y87737D01*
X380295Y87690D01*
X380145Y87652D01*
X379995Y87633D01*
X379863Y87614D01*
X379750Y87605D01*
X379656Y87596D01*
X379572D01*
X379365Y87605D01*
X379177Y87624D01*
X379008Y87652D01*
X378857Y87690D01*
X378735Y87727D01*
X378641Y87755D01*
X378613Y87765D01*
X378585Y87774D01*
X378575Y87784D01*
X378566D01*
X378416Y87859D01*
X378275Y87943D01*
X378171Y88028D01*
X378077Y88113D01*
X378002Y88178D01*
X377955Y88244D01*
X377927Y88282D01*
X377918Y88291D01*
X377852Y88413D01*
X377786Y88545D01*
X377748Y88686D01*
X377711Y88808D01*
X377683Y88930D01*
X377664Y89015D01*
Y89052D01*
X377654Y89081D01*
Y89090D01*
Y89099D01*
X376846Y89024D01*
X376865Y88789D01*
X376903Y88564D01*
X376959Y88366D01*
X377025Y88188D01*
X377091Y88047D01*
X377119Y87990D01*
X377137Y87943D01*
X377166Y87906D01*
X377175Y87878D01*
X377194Y87859D01*
Y87850D01*
X377335Y87671D01*
X377485Y87511D01*
X377645Y87380D01*
X377795Y87267D01*
X377927Y87182D01*
X378040Y87126D01*
X378077Y87107D01*
X378106Y87088D01*
X378124Y87079D01*
X378134D01*
X378369Y86994D01*
X378613Y86929D01*
X378857Y86891D01*
X379092Y86853D01*
X379205Y86844D01*
X379299Y86834D01*
X379384D01*
X379459Y86825D01*
X379609D01*
X379863Y86834D01*
X380098Y86863D01*
X380314Y86910D01*
X380493Y86957D01*
X380643Y86994D01*
X380709Y87022D01*
X380765Y87041D01*
X380803Y87060D01*
X380831Y87069D01*
X380850Y87079D01*
X380859D01*
X381057Y87182D01*
X381226Y87295D01*
X381376Y87417D01*
X381498Y87530D01*
X381592Y87624D01*
X381658Y87709D01*
X381705Y87765D01*
X381714Y87774D01*
Y87784D01*
X381818Y87962D01*
X381893Y88131D01*
X381940Y88291D01*
X381978Y88441D01*
X381996Y88573D01*
X382015Y88677D01*
Y88761D01*
X382006Y88949D01*
X381978Y89128D01*
X381931Y89287D01*
X381884Y89419D01*
X381827Y89532D01*
X381790Y89616D01*
X381752Y89663D01*
X381743Y89682D01*
X381630Y89823D01*
X381498Y89955D01*
X381357Y90067D01*
X381216Y90171D01*
X381094Y90246D01*
X380991Y90302D01*
X380953Y90321D01*
X380925Y90340D01*
X380906Y90349D01*
X380897D01*
X380822Y90387D01*
X380728Y90415D01*
X380624Y90453D01*
X380511Y90490D01*
X380276Y90556D01*
X380032Y90622D01*
X379919Y90650D01*
X379816Y90678D01*
X379713Y90706D01*
X379628Y90725D01*
X379562Y90744D01*
X379506Y90753D01*
X379468Y90763D01*
X379459D01*
X379271Y90810D01*
X379102Y90847D01*
X378951Y90894D01*
X378820Y90932D01*
X378698Y90979D01*
X378594Y91017D01*
X378500Y91054D01*
X378416Y91082D01*
X378350Y91120D01*
X378293Y91148D01*
X378256Y91167D01*
X378218Y91195D01*
X378171Y91223D01*
X378162Y91233D01*
X378077Y91327D01*
X378021Y91421D01*
X377974Y91515D01*
X377946Y91609D01*
X377927Y91684D01*
X377918Y91750D01*
Y91787D01*
Y91806D01*
X377936Y91956D01*
X377974Y92088D01*
X378030Y92201D01*
X378096Y92304D01*
X378153Y92379D01*
X378209Y92445D01*
X378246Y92483D01*
X378265Y92492D01*
X378340Y92539D01*
X378416Y92586D01*
X378594Y92661D01*
X378782Y92708D01*
X378970Y92746D01*
X379139Y92765D01*
X379215Y92774D01*
X379271Y92783D01*
X379403D01*
X379666Y92774D01*
X379901Y92736D01*
X380089Y92680D01*
X380248Y92624D01*
X380370Y92567D01*
X380464Y92511D01*
X380511Y92473D01*
X380530Y92464D01*
X380662Y92332D01*
X380765Y92191D01*
X380850Y92041D01*
X380906Y91891D01*
X380944Y91750D01*
X380972Y91646D01*
X380981Y91599D01*
X380991Y91571D01*
Y91552D01*
Y91543D01*
X381818Y91609D01*
X381799Y91815D01*
X381752Y92003D01*
X381705Y92182D01*
X381639Y92332D01*
X381583Y92455D01*
X381536Y92549D01*
X381517Y92577D01*
X381498Y92605D01*
X381489Y92614D01*
Y92624D01*
X381367Y92783D01*
X381235Y92924D01*
X381094Y93047D01*
X380953Y93140D01*
X380831Y93225D01*
X380737Y93272D01*
X380699Y93291D01*
X380671Y93310D01*
X380652Y93319D01*
X380643D01*
X380436Y93394D01*
X380211Y93451D01*
X380004Y93498D01*
X379807Y93526D01*
X379628Y93545D01*
X379562D01*
X379496Y93554D01*
D02*
G37*
G36*
X393922Y93441D02*
X388772D01*
Y92671D01*
X390915D01*
Y86938D01*
X391780D01*
Y92671D01*
X393922D01*
Y93441D01*
D02*
G37*
G36*
X387917D02*
X383209D01*
Y86938D01*
X388067D01*
Y87709D01*
X384073D01*
Y89917D01*
X387673D01*
Y90688D01*
X384073D01*
Y92671D01*
X387917D01*
Y93441D01*
D02*
G37*
G36*
X375794D02*
X371085D01*
Y86938D01*
X375944D01*
Y87709D01*
X371950D01*
Y89917D01*
X375549D01*
Y90688D01*
X371950D01*
Y92671D01*
X375794D01*
Y93441D01*
D02*
G37*
G36*
X367542D02*
X364525D01*
Y86938D01*
X365390D01*
Y89823D01*
X366499D01*
X366602Y89814D01*
X366678D01*
X366743Y89804D01*
X366790Y89795D01*
X366828D01*
X366847Y89785D01*
X366856D01*
X367006Y89739D01*
X367072Y89710D01*
X367129Y89682D01*
X367185Y89654D01*
X367223Y89635D01*
X367242Y89626D01*
X367251Y89616D01*
X367326Y89560D01*
X367401Y89494D01*
X367542Y89353D01*
X367608Y89287D01*
X367655Y89231D01*
X367683Y89193D01*
X367693Y89184D01*
X367786Y89052D01*
X367890Y88911D01*
X367993Y88761D01*
X368097Y88620D01*
X368181Y88489D01*
X368247Y88385D01*
X368275Y88348D01*
X368294Y88319D01*
X368313Y88301D01*
Y88291D01*
X369168Y86938D01*
X370239D01*
X369121Y88705D01*
X368989Y88893D01*
X368867Y89062D01*
X368745Y89203D01*
X368642Y89334D01*
X368548Y89428D01*
X368473Y89503D01*
X368426Y89551D01*
X368407Y89569D01*
X368332Y89626D01*
X368247Y89691D01*
X368078Y89795D01*
X368003Y89832D01*
X367946Y89870D01*
X367909Y89889D01*
X367890Y89898D01*
X368059Y89926D01*
X368219Y89955D01*
X368360Y90002D01*
X368501Y90039D01*
X368623Y90086D01*
X368736Y90143D01*
X368839Y90190D01*
X368933Y90237D01*
X369008Y90293D01*
X369084Y90340D01*
X369140Y90378D01*
X369187Y90415D01*
X369224Y90443D01*
X369253Y90471D01*
X369262Y90481D01*
X369271Y90490D01*
X369347Y90584D01*
X369422Y90678D01*
X369535Y90876D01*
X369610Y91073D01*
X369666Y91261D01*
X369704Y91421D01*
X369713Y91487D01*
Y91552D01*
X369723Y91599D01*
Y91637D01*
Y91656D01*
Y91665D01*
X369713Y91862D01*
X369685Y92041D01*
X369638Y92210D01*
X369591Y92351D01*
X369535Y92473D01*
X369497Y92567D01*
X369459Y92624D01*
X369450Y92633D01*
Y92642D01*
X369337Y92793D01*
X369224Y92924D01*
X369102Y93037D01*
X368989Y93122D01*
X368886Y93188D01*
X368801Y93225D01*
X368745Y93253D01*
X368736Y93263D01*
X368726D01*
X368642Y93291D01*
X368538Y93319D01*
X368332Y93366D01*
X368106Y93394D01*
X367899Y93422D01*
X367702Y93432D01*
X367617D01*
X367542Y93441D01*
D02*
G37*
%LPD*%
G36*
X367693Y92708D02*
X367909Y92671D01*
X368097Y92624D01*
X368238Y92567D01*
X368360Y92511D01*
X368435Y92464D01*
X368482Y92426D01*
X368501Y92417D01*
X368614Y92295D01*
X368698Y92172D01*
X368755Y92041D01*
X368801Y91928D01*
X368820Y91815D01*
X368830Y91731D01*
X368839Y91674D01*
Y91665D01*
Y91656D01*
X368830Y91543D01*
X368811Y91430D01*
X368783Y91336D01*
X368755Y91251D01*
X368717Y91176D01*
X368689Y91120D01*
X368670Y91082D01*
X368661Y91073D01*
X368595Y90979D01*
X368510Y90894D01*
X368426Y90829D01*
X368341Y90772D01*
X368266Y90735D01*
X368209Y90706D01*
X368172Y90688D01*
X368153Y90678D01*
X368022Y90641D01*
X367871Y90612D01*
X367721Y90594D01*
X367570Y90584D01*
X367439Y90575D01*
X367326Y90566D01*
X365390D01*
Y92718D01*
X367439D01*
X367693Y92708D01*
D02*
G37*
%LPC*%
G36*
X197718Y289490D02*
X194927D01*
Y286008D01*
X197549D01*
X197648Y286022D01*
X197746D01*
X197859Y286036D01*
X198127Y286064D01*
X198423Y286121D01*
X198719Y286205D01*
X198987Y286318D01*
X199114Y286389D01*
X199212Y286473D01*
X199240Y286501D01*
X199297Y286558D01*
X199382Y286670D01*
X199480Y286812D01*
X199579Y286995D01*
X199663Y287220D01*
X199720Y287474D01*
X199748Y287770D01*
Y287784D01*
Y287798D01*
Y287869D01*
X199734Y287996D01*
X199706Y288137D01*
X199678Y288292D01*
X199621Y288475D01*
X199537Y288644D01*
X199438Y288813D01*
X199424Y288827D01*
X199382Y288884D01*
X199311Y288954D01*
X199226Y289053D01*
X199100Y289152D01*
X198959Y289236D01*
X198804Y289321D01*
X198620Y289391D01*
X198606D01*
X198550Y289405D01*
X198465Y289419D01*
X198352Y289448D01*
X198183Y289462D01*
X197972Y289476D01*
X197718Y289490D01*
D02*
G37*
G36*
X130518D02*
X128262D01*
Y282047D01*
X130574D01*
X130673Y282061D01*
X130884Y282075D01*
X131124Y282089D01*
X131378Y282117D01*
X131631Y282160D01*
X131843Y282216D01*
X131871Y282230D01*
X131941Y282244D01*
X132040Y282286D01*
X132167Y282343D01*
X132308Y282427D01*
X132449Y282512D01*
X132590Y282611D01*
X132731Y282723D01*
X132745Y282752D01*
X132801Y282808D01*
X132886Y282907D01*
X132985Y283048D01*
X133097Y283231D01*
X133224Y283442D01*
X133337Y283682D01*
X133436Y283950D01*
Y283964D01*
X133450Y283992D01*
X133464Y284034D01*
X133478Y284091D01*
X133492Y284161D01*
X133520Y284260D01*
X133548Y284359D01*
X133577Y284471D01*
X133619Y284753D01*
X133661Y285077D01*
X133689Y285444D01*
X133704Y285839D01*
Y285853D01*
Y285909D01*
Y285980D01*
X133689Y286092D01*
Y286219D01*
X133675Y286360D01*
X133661Y286530D01*
X133647Y286699D01*
X133577Y287079D01*
X133492Y287474D01*
X133365Y287840D01*
X133281Y288024D01*
X133196Y288179D01*
Y288193D01*
X133168Y288221D01*
X133140Y288263D01*
X133111Y288320D01*
X132999Y288461D01*
X132858Y288630D01*
X132675Y288813D01*
X132463Y288997D01*
X132223Y289152D01*
X131970Y289278D01*
X131941Y289293D01*
X131871Y289307D01*
X131744Y289349D01*
X131561Y289391D01*
X131335Y289419D01*
X131053Y289462D01*
X130884Y289476D01*
X130701D01*
X130518Y289490D01*
D02*
G37*
G36*
X168354Y289701D02*
X168227D01*
X168128Y289687D01*
X168002Y289673D01*
X167875Y289645D01*
X167720Y289617D01*
X167551Y289589D01*
X167184Y289476D01*
X166987Y289391D01*
X166789Y289307D01*
X166578Y289194D01*
X166380Y289067D01*
X166183Y288926D01*
X166000Y288757D01*
X165986Y288743D01*
X165958Y288715D01*
X165915Y288658D01*
X165845Y288574D01*
X165774Y288475D01*
X165690Y288348D01*
X165605Y288193D01*
X165506Y288010D01*
X165422Y287812D01*
X165323Y287573D01*
X165239Y287319D01*
X165168Y287037D01*
X165098Y286727D01*
X165055Y286374D01*
X165027Y286008D01*
X165013Y285613D01*
Y285599D01*
Y285543D01*
Y285444D01*
X165027Y285317D01*
X165041Y285176D01*
X165069Y285007D01*
X165098Y284810D01*
X165126Y284612D01*
X165239Y284161D01*
X165323Y283936D01*
X165408Y283696D01*
X165520Y283470D01*
X165647Y283245D01*
X165788Y283034D01*
X165958Y282836D01*
X165972Y282822D01*
X166000Y282794D01*
X166056Y282737D01*
X166127Y282681D01*
X166225Y282596D01*
X166338Y282512D01*
X166465Y282427D01*
X166606Y282329D01*
X166775Y282230D01*
X166958Y282145D01*
X167156Y282061D01*
X167367Y281976D01*
X167593Y281920D01*
X167818Y281863D01*
X168072Y281835D01*
X168340Y281821D01*
X168410D01*
X168481Y281835D01*
X168580D01*
X168706Y281849D01*
X168847Y281877D01*
X169017Y281906D01*
X169186Y281948D01*
X169383Y282004D01*
X169566Y282075D01*
X169778Y282145D01*
X169975Y282244D01*
X170173Y282371D01*
X170370Y282498D01*
X170567Y282653D01*
X170751Y282836D01*
X170765Y282850D01*
X170793Y282878D01*
X170835Y282949D01*
X170906Y283034D01*
X170976Y283132D01*
X171047Y283259D01*
X171131Y283414D01*
X171230Y283583D01*
X171314Y283781D01*
X171399Y284006D01*
X171469Y284246D01*
X171554Y284500D01*
X171610Y284781D01*
X171653Y285092D01*
X171681Y285416D01*
X171695Y285754D01*
Y285768D01*
Y285811D01*
Y285867D01*
Y285951D01*
X171681Y286050D01*
Y286177D01*
X171667Y286304D01*
X171639Y286459D01*
X171596Y286783D01*
X171526Y287122D01*
X171427Y287488D01*
X171286Y287826D01*
Y287840D01*
X171272Y287869D01*
X171244Y287911D01*
X171216Y287967D01*
X171117Y288137D01*
X170990Y288334D01*
X170821Y288559D01*
X170609Y288785D01*
X170370Y289011D01*
X170102Y289208D01*
X170088D01*
X170074Y289236D01*
X170032Y289250D01*
X169961Y289293D01*
X169891Y289321D01*
X169806Y289363D01*
X169594Y289462D01*
X169341Y289546D01*
X169045Y289631D01*
X168706Y289687D01*
X168354Y289701D01*
D02*
G37*
%LPD*%
D10*
X132216Y249732D02*
G03*
X132216Y249732I-221J0D01*
G01*
X314916Y62425D02*
X314916Y59425D01*
X303915Y63426D02*
X324916D01*
X304916Y70426D02*
X323914Y70426D01*
X304916Y66426D02*
Y70426D01*
Y66426D02*
X323914Y66426D01*
X323914Y70426D01*
X303915Y73426D02*
X324916D01*
X315009Y74442D02*
Y77998D01*
D11*
X115966Y229650D02*
G03*
X115966Y229650I-411J0D01*
G01*
Y196630D02*
G03*
X115966Y196630I-411J0D01*
G01*
X370334Y111390D02*
Y131709D01*
X404624Y284890D02*
X424944D01*
X370334D02*
X379224D01*
X370334Y264570D02*
Y284890D01*
Y111390D02*
X379224D01*
X424944D02*
Y284890D01*
X404624Y111390D02*
X424944D01*
X118454Y228650D02*
X129454D01*
X118454Y200849D02*
X129454D01*
X118454Y195630D02*
X129454D01*
X118454Y167829D02*
X129454D01*
X273170Y118470D02*
X284346D01*
X284600D02*
Y129900D01*
D12*
X174054Y10388D02*
Y14388D01*
X106744Y89131D02*
Y93131D01*
X174054Y89130D02*
Y93130D01*
X105474Y11660D02*
Y15660D01*
D13*
X133495Y262842D02*
Y264431D01*
X133495Y256342D02*
Y259317D01*
Y251231D02*
Y252817D01*
X119495Y251231D02*
X133495D01*
X119495Y256342D02*
Y259317D01*
Y251331D02*
Y252917D01*
Y264431D02*
X133495D01*
X119495Y262842D02*
Y264431D01*
D14*
X-12190Y260878D02*
X27942Y250972D01*
Y241066D02*
Y250972D01*
X-12190Y230906D02*
X27942Y241066D01*
X-12190Y168460D02*
X27942Y178460D01*
Y188460D01*
X-12190Y198459D02*
X27942Y188460D01*
X93514Y269768D02*
Y283738D01*
X88514Y269768D02*
X93514D01*
X88514Y159650D02*
X93514D01*
Y145900D02*
Y159650D01*
X30474Y289834D02*
X51974D01*
X-28446D02*
X-4316D01*
X-28446Y139650D02*
Y289834D01*
Y139650D02*
X-4316D01*
X30474D02*
X51974D01*
X88514Y150650D02*
Y159650D01*
Y165650D01*
Y263672D02*
Y269768D01*
Y278658D01*
X12193Y86380D02*
X27433D01*
X-27177Y20D02*
X-11937D01*
X-27177D02*
Y86380D01*
X-11937D01*
X12193Y20D02*
X27433D01*
D15*
X237929Y31665D02*
X237929Y34438D01*
X239805D02*
X239805Y31665D01*
X237903Y26464D02*
X237903Y23691D01*
X239779D02*
X239779Y26464D01*
X126494Y269006D02*
X126494Y272054D01*
X138940Y257541D02*
X141988Y257541D01*
X100989Y41495D02*
X100989Y44268D01*
X102865D02*
X102865Y41495D01*
X180059Y54171D02*
X180059Y56944D01*
X178183Y56944D02*
X178183Y54171D01*
X102839Y23691D02*
X102839Y26464D01*
X100963Y26464D02*
X100963Y23691D01*
X178209Y71975D02*
X178209Y74748D01*
X180085D02*
X180085Y71975D01*
X100739Y59275D02*
X100739Y62048D01*
X102615D02*
X102615Y59275D01*
X180059Y45281D02*
X180059Y48054D01*
X178183Y48054D02*
X178183Y45281D01*
X102589Y77031D02*
X102589Y79804D01*
X100713Y79804D02*
X100713Y77031D01*
X178209Y27525D02*
X178209Y30298D01*
X180085D02*
X180085Y27525D01*
X101544Y50686D02*
Y53734D01*
X86170Y36520D02*
X89218D01*
X133160Y14930D02*
X136208D01*
X191580Y64460D02*
X194628D01*
X144591Y87320D02*
X147639D01*
X101664Y32456D02*
Y35503D01*
X179134Y62936D02*
Y65984D01*
X86170Y64460D02*
X89218D01*
X133161Y87320D02*
X136209D01*
X191580Y37790D02*
X194628D01*
X144590Y14930D02*
X147638D01*
X101664Y68016D02*
Y71063D01*
X179134Y36266D02*
Y39313D01*
X290625Y70450D02*
X293673D01*
X270349Y98975D02*
X270349Y101748D01*
X272225D02*
X272225Y98975D01*
X288709Y98951D02*
X288709Y101724D01*
X286833Y101724D02*
X286833Y98951D01*
X290625Y86380D02*
X293673D01*
X196215Y155305D02*
X198988Y155304D01*
X196215Y157181D02*
X198988Y157181D01*
X186055Y155305D02*
X188828Y155304D01*
X186055Y157181D02*
X188828Y157181D01*
X290625Y53359D02*
X293673Y53360D01*
X222760Y76220D02*
X225808D01*
X278549Y39261D02*
X278549Y42034D01*
X276673D02*
X276673Y39261D01*
X312930Y234970D02*
X315978Y234970D01*
X303564Y252750D02*
X307564D01*
X304040Y234970D02*
X307088Y234970D01*
X312930Y252750D02*
X315978D01*
X289594Y269260D02*
X293594D01*
X277624Y255036D02*
Y258084D01*
Y266974D02*
X277624Y263926D01*
Y272815D02*
Y275863D01*
X368113Y21714D02*
X368113Y18941D01*
X369989D02*
X369989Y21714D01*
X188724Y237256D02*
Y240303D01*
Y263926D02*
Y266973D01*
Y246146D02*
Y249193D01*
Y254559D02*
Y258559D01*
X181104Y187250D02*
Y191250D01*
Y169946D02*
Y172994D01*
Y178836D02*
Y181884D01*
X165610Y184170D02*
X168658D01*
X389078Y20296D02*
X390514Y20309D01*
X388758Y21579D02*
X388781Y19081D01*
X229364Y121209D02*
Y125210D01*
Y131846D02*
Y134894D01*
Y142006D02*
Y145054D01*
X212600Y128290D02*
X215648D01*
X370015Y31898D02*
X370015Y29125D01*
X368139Y29125D02*
X368139Y31898D01*
X389384Y28976D02*
Y32023D01*
X201320Y241639D02*
X204093Y241639D01*
X201320Y243515D02*
X204093Y243514D01*
X225235Y266848D02*
X225235Y264075D01*
X223359Y264075D02*
X223359Y266848D01*
X225235Y257958D02*
X225235Y255185D01*
X223359Y255185D02*
X223359Y257958D01*
X236855Y277831D02*
X239628Y277831D01*
X236855Y275955D02*
X239628Y275954D01*
X389078Y8866D02*
X390514Y8879D01*
X388758Y10150D02*
X388781Y7651D01*
X368113Y10284D02*
X368113Y7511D01*
X369989D02*
X369989Y10284D01*
X213870Y76220D02*
X216918Y76220D01*
X245745Y277831D02*
X248518Y277831D01*
X245745Y275955D02*
X248518Y275954D01*
X175895Y157181D02*
X178668Y157181D01*
X175895Y155305D02*
X178668Y155304D01*
X243230Y148928D02*
X246003Y148929D01*
X243230Y150805D02*
X246003Y150805D01*
X61620Y48598D02*
X64393Y48599D01*
X61620Y50475D02*
X64393Y50475D01*
X200154Y187726D02*
Y190774D01*
Y178836D02*
Y181884D01*
Y169946D02*
Y172994D01*
X61595Y33990D02*
X64368Y33991D01*
X61595Y32115D02*
X64368Y32115D01*
X243080Y129560D02*
X246128D01*
M02*
