M48
;Layer_Color=9474304
;FILE_FORMAT=4:4
METRIC,LZ
;TYPE=PLATED
T1F00S00C0.3000
T3F00S00C0.7112
;TYPE=NON_PLATED
T5F00S00C0.6500
%
T01
X00344667Y00010329
X00357634Y0000891
X00366973Y00037339
X00404821Y00020337
X00379303Y00131413
X00385929Y00139932
X00346204Y0014099
X00338584
X00332657Y0015115
X00350014
X00354993Y00165693
X00355094Y00172429
Y0017885
Y00187429
Y0019385
Y0020243
X00346418Y00207704
X00344934Y0022608
X00355094Y00225445
Y0023243
X00352554Y002464
X00339854Y0026037
X00325884
X00384169Y00260504
X00381562Y00250897
X00390224Y00250639
X00388153Y00237781
X00378382Y00228466
X00378814Y0021743
Y0020885
X00380494Y001829
X00346204Y001702
X00330964
X00322074Y0018671
X00300484Y0018925
X00283103Y00191656
X00283564Y00199543
X00283641Y00208289
X00285068Y00214459
X00283564Y00224523
X00294134Y0022608
X00319534
X00314454Y0026389
Y0027053
X00276354Y002845
X00267464
X00264586Y0025402
X00282704Y00247864
X00264144Y00221727
Y00214072
Y00207572
Y00201072
Y00194572
X00251783Y00195429
X00230877Y00206592
X00210314Y0020195
X00183644Y0019941
X00167134Y0017274
X00158244Y001702
X00163324Y0015623
Y0014353
Y0013083
X00141734Y00134005
X00123319
X00104904
Y001575
X00123319
X00141734
X00136654Y0018163
X00132225Y00198118
X00134765Y00212419
X00113794Y0021465
Y0019814
X00111307Y00179803
X00097284Y0017401
X00098822Y00189573
X00096707Y00204989
X00098554Y0021973
X00108714Y0023497
X00111254Y0025021
X00100586Y00254782
X00106174Y0026037
X00120144Y0024132
X00126494Y0023497
X00129034Y002464
X00146814Y0023497
X00167696Y00237656
X00176062Y00243155
X00209611Y00235689
X00217934Y0024767
X00227153Y00249966
X00234271Y00264834
X00223844Y0027263
X00228094Y0027942
X00193074Y00273477
X00148806Y00261662
X00122046Y00278842
X00056827Y00254859
X00049532Y00254782
X00015369Y00233065
Y0021465
X00015369Y00196235
X-00008126Y00196235
X-00008126Y0021465
X-00008126Y00233065
X00104904Y0011051
X00123319
X00141734
X00140464Y0009781
X00136654Y0007773
X00145544
X00161684Y0007114
X00166764
Y0006606
Y00035819
Y0003074
X00161684
X00145544Y0002415
X00136654
X00120144Y0003074
X00115064
Y00035819
Y0006606
Y0007114
X00120144
X00087695Y0007986
X00087873Y00091338
X00087694Y00050228
X00079504Y0003177
X00071884
X00084097Y00005524
X00104888Y0000256
X00140596Y00004461
X00201953Y00033295
X00207675
X00228094Y0002542
X00233012Y00040872
X00247875Y00039448
X00258345Y00040471
X00257561Y00033165
X00252824Y0002288
X00268734Y0001907
X00292274Y000094
X00291908Y00041063
X00285244Y0006987
X0028649Y00107945
X00267464Y0010797
X00267838Y00115453
X0026109Y00100325
X00249684Y0009908
X00238716Y00096239
X00244604Y0011686
X00201533Y00123878
X00193572
X0019958Y00133367
X00212854Y0015242
X00215499Y00160991
X00203823Y00164249
X00256295Y00167753
X00276354Y0016893
X00284317Y00165327
X00289174Y00157231
X00297944Y0015115
X00315301
X00298662Y00098673
X00207633Y00080792
X00193105Y00077384
Y00085809
X00193104Y00051125
X00215346Y00064309
X00241365Y00225279
X00248342
X0025532
X00033501Y00032793
X00033421Y00025473
T03
X00379899Y0005557
Y0007335
T05
X00036499Y00014299
Y00072099
M30
