G04*
G04 #@! TF.GenerationSoftware,Altium Limited,Altium Designer,21.3.2 (30)*
G04*
G04 Layer_Color=8388736*
%FSLAX44Y44*%
%MOMM*%
G71*
G04*
G04 #@! TF.SameCoordinates,B628278F-7F55-4BD0-9F56-58D37DFBE93C*
G04*
G04*
G04 #@! TF.FilePolarity,Negative*
G04*
G01*
G75*
%ADD20R,0.2000X0.2000*%
%ADD39R,2.4032X2.0032*%
%ADD40R,1.5032X0.5032*%
%ADD41R,0.9652X0.9652*%
G04:AMPARAMS|DCode=42|XSize=1.2192mm|YSize=2.0828mm|CornerRadius=0.3556mm|HoleSize=0mm|Usage=FLASHONLY|Rotation=180.000|XOffset=0mm|YOffset=0mm|HoleType=Round|Shape=RoundedRectangle|*
%AMROUNDEDRECTD42*
21,1,1.2192,1.3716,0,0,180.0*
21,1,0.5080,2.0828,0,0,180.0*
1,1,0.7112,-0.2540,0.6858*
1,1,0.7112,0.2540,0.6858*
1,1,0.7112,0.2540,-0.6858*
1,1,0.7112,-0.2540,-0.6858*
%
%ADD42ROUNDEDRECTD42*%
%ADD43P,0.9662X4X180.0*%
%ADD44R,0.8832X0.4032*%
%ADD45R,0.8832X0.6032*%
%ADD46R,2.9032X2.9032*%
%ADD47R,0.4272X0.8682*%
%ADD48R,0.8682X0.4272*%
%ADD49C,0.5032*%
%ADD50R,2.6032X2.1032*%
G04:AMPARAMS|DCode=51|XSize=2.8032mm|YSize=0.4572mm|CornerRadius=0.1651mm|HoleSize=0mm|Usage=FLASHONLY|Rotation=180.000|XOffset=0mm|YOffset=0mm|HoleType=Round|Shape=RoundedRectangle|*
%AMROUNDEDRECTD51*
21,1,2.8032,0.1270,0,0,180.0*
21,1,2.4730,0.4572,0,0,180.0*
1,1,0.3302,-1.2365,0.0635*
1,1,0.3302,1.2365,0.0635*
1,1,0.3302,1.2365,-0.0635*
1,1,0.3302,-1.2365,-0.0635*
%
%ADD51ROUNDEDRECTD51*%
%ADD52R,1.3532X0.5032*%
%ADD53R,1.3532X0.8032*%
%ADD54R,0.9532X0.4532*%
%ADD55R,0.4532X0.9532*%
%ADD56R,2.8032X2.8032*%
%ADD57R,0.6032X0.7032*%
%ADD58R,1.4032X1.5032*%
%ADD59R,0.7032X0.6032*%
G04:AMPARAMS|DCode=60|XSize=0.6032mm|YSize=0.7032mm|CornerRadius=0mm|HoleSize=0mm|Usage=FLASHONLY|Rotation=0.000|XOffset=0mm|YOffset=0mm|HoleType=Round|Shape=Octagon|*
%AMOCTAGOND60*
4,1,8,-0.1508,0.3516,0.1508,0.3516,0.3016,0.2008,0.3016,-0.2008,0.1508,-0.3516,-0.1508,-0.3516,-0.3016,-0.2008,-0.3016,0.2008,-0.1508,0.3516,0.0*
%
%ADD60OCTAGOND60*%

%ADD61C,0.2032*%
%ADD62O,3.5032X1.7032*%
%ADD63O,2.9032X1.7032*%
%ADD64O,2.3032X1.2032*%
%ADD65O,2.0032X1.2032*%
%ADD66C,0.8532*%
G36*
X124041Y262579D02*
X124090Y262574D01*
X124090Y262574D01*
X124090Y262574D01*
X124133Y262561D01*
X124185Y262545D01*
X124185Y262545D01*
X124185Y262545D01*
X124213Y262530D01*
X124271Y262499D01*
X124271Y262499D01*
X124272Y262499D01*
X124295Y262479D01*
X124347Y262436D01*
X124348Y262436D01*
X124348Y262436D01*
X124391Y262383D01*
X124410Y262360D01*
X124410Y262360D01*
X124410Y262360D01*
X124442Y262301D01*
X124456Y262273D01*
X124456Y262273D01*
X124457Y262273D01*
X124472Y262221D01*
X124485Y262179D01*
Y262179D01*
X124485Y262179D01*
X124490Y262129D01*
X124495Y262081D01*
Y262081D01*
Y262081D01*
X124494Y261581D01*
X124489Y261525D01*
X124485Y261483D01*
X124485Y261483D01*
X124485Y261483D01*
X124467Y261423D01*
X124456Y261389D01*
X124456Y261388D01*
X124456Y261388D01*
X124438Y261355D01*
X124410Y261302D01*
X124410Y261302D01*
X124410Y261301D01*
X124380Y261266D01*
X124347Y261226D01*
X124347Y261226D01*
X124347Y261225D01*
X124347Y261225D01*
X122847Y259726D01*
X122847Y259725D01*
X122816Y259699D01*
X122771Y259663D01*
X122684Y259617D01*
D01*
X122684Y259617D01*
X122590Y259588D01*
X122548Y259584D01*
X122492Y259578D01*
X122489Y259579D01*
X119992D01*
X119894Y259588D01*
X119800Y259617D01*
X119713Y259663D01*
X119637Y259726D01*
X119574Y259802D01*
X119528Y259889D01*
X119499Y259983D01*
X119490Y260081D01*
Y262081D01*
X119499Y262179D01*
X119528Y262273D01*
X119574Y262360D01*
X119637Y262436D01*
X119713Y262499D01*
X119800Y262545D01*
X119894Y262574D01*
X119992Y262583D01*
X123992D01*
X123992D01*
X123993D01*
X124041Y262579D01*
D02*
G37*
G36*
X133094Y262574D02*
X133188Y262545D01*
X133275Y262499D01*
X133351Y262436D01*
X133413Y262360D01*
X133460Y262273D01*
X133488Y262179D01*
X133498Y262081D01*
Y260081D01*
X133488Y259983D01*
X133460Y259889D01*
X133413Y259802D01*
X133351Y259726D01*
X133275Y259663D01*
X133188Y259617D01*
X133094Y259588D01*
X132996Y259579D01*
X130498D01*
X130495Y259578D01*
X130440Y259584D01*
X130397Y259588D01*
X130303Y259617D01*
X130303Y259617D01*
D01*
X130216Y259663D01*
X130172Y259699D01*
X130140Y259725D01*
X130140Y259726D01*
X128640Y261225D01*
X128640Y261226D01*
X128589Y261288D01*
X128578Y261302D01*
X128556Y261342D01*
X128531Y261389D01*
X128503Y261483D01*
X128493Y261581D01*
Y262081D01*
X128503Y262179D01*
X128531Y262273D01*
X128578Y262360D01*
X128640Y262436D01*
X128716Y262499D01*
X128803Y262545D01*
X128897Y262574D01*
X128996Y262583D01*
X132996D01*
X133094Y262574D01*
D02*
G37*
G36*
X122548Y256075D02*
X122590Y256071D01*
X122684Y256042D01*
X122684Y256042D01*
D01*
X122771Y255996D01*
X122815Y255960D01*
X122847Y255934D01*
X122847Y255933D01*
X124347Y254434D01*
X124347Y254433D01*
X124398Y254371D01*
X124410Y254357D01*
X124431Y254317D01*
X124456Y254270D01*
X124485Y254176D01*
X124494Y254078D01*
Y253578D01*
X124485Y253480D01*
X124456Y253386D01*
X124410Y253299D01*
X124347Y253223D01*
X124271Y253160D01*
X124184Y253114D01*
X124090Y253085D01*
X123992Y253076D01*
X119992D01*
X119894Y253085D01*
X119799Y253114D01*
X119713Y253160D01*
X119636Y253223D01*
X119574Y253299D01*
X119528Y253386D01*
X119499Y253480D01*
X119489Y253578D01*
Y255578D01*
X119499Y255676D01*
X119528Y255770D01*
X119574Y255857D01*
X119636Y255933D01*
X119713Y255996D01*
X119799Y256042D01*
X119894Y256071D01*
X119992Y256080D01*
X122489D01*
X122492Y256081D01*
X122548Y256075D01*
D02*
G37*
G36*
X133094Y256071D02*
X133188Y256042D01*
X133275Y255996D01*
X133351Y255933D01*
X133413Y255857D01*
X133460Y255770D01*
X133488Y255676D01*
X133498Y255578D01*
Y253578D01*
X133488Y253480D01*
X133460Y253386D01*
X133413Y253299D01*
X133351Y253223D01*
X133275Y253160D01*
X133188Y253114D01*
X133094Y253085D01*
X132996Y253076D01*
X128496D01*
X128495Y253076D01*
X128446Y253081D01*
X128397Y253085D01*
X128325Y253107D01*
X128303Y253114D01*
X128216Y253160D01*
X128140Y253223D01*
X128078Y253299D01*
X128031Y253386D01*
X128025Y253408D01*
X128003Y253480D01*
X127998Y253529D01*
X127993Y253578D01*
X127998Y253627D01*
X128003Y253676D01*
X128025Y253748D01*
X128031Y253770D01*
X128078Y253857D01*
X128140Y253933D01*
X128640Y254433D01*
X128640Y254433D01*
X130140Y255933D01*
X130140Y255933D01*
X130216Y255996D01*
X130303Y256042D01*
X130397Y256071D01*
X130495Y256080D01*
X132996D01*
X133094Y256071D01*
D02*
G37*
D20*
X121294Y254580D02*
D03*
Y261080D02*
D03*
X131694Y254580D02*
D03*
Y261081D02*
D03*
D39*
X391924Y119139D02*
D03*
X391924Y277140D02*
D03*
D40*
X366954Y175639D02*
D03*
Y170639D02*
D03*
Y180639D02*
D03*
Y185639D02*
D03*
Y190639D02*
D03*
Y195639D02*
D03*
Y200639D02*
D03*
Y205639D02*
D03*
Y210639D02*
D03*
Y215639D02*
D03*
Y220639D02*
D03*
Y225639D02*
D03*
Y230639D02*
D03*
Y235639D02*
D03*
Y240639D02*
D03*
Y245639D02*
D03*
Y250639D02*
D03*
Y255639D02*
D03*
Y260639D02*
D03*
Y135639D02*
D03*
Y140639D02*
D03*
Y145639D02*
D03*
Y150639D02*
D03*
Y155639D02*
D03*
Y160639D02*
D03*
Y165639D02*
D03*
D41*
X181825Y12389D02*
D03*
X166285D02*
D03*
X114513Y91130D02*
D03*
X98973D02*
D03*
X181825D02*
D03*
X166285D02*
D03*
X113243Y13659D02*
D03*
X97703D02*
D03*
D42*
X360087Y64460D02*
D03*
X399711D02*
D03*
D43*
X126494Y257829D02*
D03*
D44*
X119554Y225650D02*
D03*
Y220653D02*
D03*
X119556Y208650D02*
D03*
X119553Y203650D02*
D03*
X128352D02*
D03*
Y208650D02*
D03*
X128354Y220653D02*
D03*
Y225650D02*
D03*
X119554Y192630D02*
D03*
Y187633D02*
D03*
X119556Y175630D02*
D03*
X119553Y170630D02*
D03*
X128352D02*
D03*
Y175630D02*
D03*
X128354Y187633D02*
D03*
Y192630D02*
D03*
D45*
X119554Y214650D02*
D03*
X128353D02*
D03*
X119554Y181630D02*
D03*
X128353D02*
D03*
D46*
X254764Y68600D02*
D03*
D47*
X266764Y49525D02*
D03*
X262764D02*
D03*
X258764D02*
D03*
X254764D02*
D03*
X250764D02*
D03*
X246764D02*
D03*
X242764D02*
D03*
Y87675D02*
D03*
X246764D02*
D03*
X250764D02*
D03*
X254764D02*
D03*
X258764D02*
D03*
X262764D02*
D03*
X266764D02*
D03*
D48*
X235689Y56600D02*
D03*
Y60600D02*
D03*
Y64600D02*
D03*
Y68600D02*
D03*
Y72600D02*
D03*
Y76599D02*
D03*
Y80599D02*
D03*
X273839D02*
D03*
Y76599D02*
D03*
Y72600D02*
D03*
Y68600D02*
D03*
Y64600D02*
D03*
Y60600D02*
D03*
Y56600D02*
D03*
D49*
X218604Y240650D02*
D03*
X225104D02*
D03*
X231604D02*
D03*
X238104D02*
D03*
X244604D02*
D03*
X251104D02*
D03*
X257604D02*
D03*
X264104D02*
D03*
X270604D02*
D03*
X277104D02*
D03*
X218604Y234150D02*
D03*
X225104D02*
D03*
X231604D02*
D03*
X238104D02*
D03*
X244604D02*
D03*
X251104D02*
D03*
X257604D02*
D03*
X264104D02*
D03*
X270604D02*
D03*
X277104D02*
D03*
X218604Y227650D02*
D03*
X225104D02*
D03*
X270604D02*
D03*
X277104D02*
D03*
X218604Y221150D02*
D03*
X225104D02*
D03*
X238104D02*
D03*
X244604D02*
D03*
X251104D02*
D03*
X257604D02*
D03*
X270604D02*
D03*
X277104D02*
D03*
X218604Y214650D02*
D03*
X225104D02*
D03*
X238104D02*
D03*
X244604D02*
D03*
X251104D02*
D03*
X257604D02*
D03*
X270604D02*
D03*
X277104D02*
D03*
X218604Y208150D02*
D03*
X225104D02*
D03*
X238104D02*
D03*
X244604D02*
D03*
X251104D02*
D03*
X257604D02*
D03*
X270604D02*
D03*
X277104D02*
D03*
X218604Y201650D02*
D03*
X225104D02*
D03*
X238104D02*
D03*
X244604D02*
D03*
X251104D02*
D03*
X257604D02*
D03*
X270604D02*
D03*
X277104D02*
D03*
X218604Y195150D02*
D03*
X225104D02*
D03*
X270604D02*
D03*
X277104D02*
D03*
X218604Y188650D02*
D03*
X225104D02*
D03*
X231604D02*
D03*
X238104D02*
D03*
X244604D02*
D03*
X251104D02*
D03*
X257604D02*
D03*
X264104D02*
D03*
X270604D02*
D03*
X277104D02*
D03*
X218604Y182150D02*
D03*
X225104D02*
D03*
X231604D02*
D03*
X238104D02*
D03*
X244604D02*
D03*
X251104D02*
D03*
X257604D02*
D03*
X264104D02*
D03*
X270604D02*
D03*
X277104D02*
D03*
D50*
X315009Y89100D02*
D03*
X315009Y48099D02*
D03*
D51*
X80394Y259862D02*
D03*
Y254782D02*
D03*
Y249702D02*
D03*
Y244876D02*
D03*
Y239796D02*
D03*
Y234716D02*
D03*
Y229890D02*
D03*
Y224810D02*
D03*
Y219730D02*
D03*
Y214650D02*
D03*
Y209650D02*
D03*
Y204650D02*
D03*
Y199650D02*
D03*
Y194650D02*
D03*
Y189650D02*
D03*
Y184650D02*
D03*
Y179650D02*
D03*
Y174650D02*
D03*
Y169650D02*
D03*
D52*
X47248Y60700D02*
D03*
Y55700D02*
D03*
Y50700D02*
D03*
Y45700D02*
D03*
Y40700D02*
D03*
Y35700D02*
D03*
Y30700D02*
D03*
Y25700D02*
D03*
D53*
Y19200D02*
D03*
Y11200D02*
D03*
Y67200D02*
D03*
Y75200D02*
D03*
D54*
X121414Y63439D02*
D03*
Y58440D02*
D03*
Y53440D02*
D03*
Y48440D02*
D03*
Y43440D02*
D03*
Y38440D02*
D03*
X160414D02*
D03*
Y43440D02*
D03*
Y48440D02*
D03*
Y53440D02*
D03*
Y58440D02*
D03*
Y63439D02*
D03*
D55*
X128414Y31440D02*
D03*
X133414D02*
D03*
X138414D02*
D03*
X143414D02*
D03*
X148414D02*
D03*
X153414D02*
D03*
Y70440D02*
D03*
X148414D02*
D03*
X143414D02*
D03*
X138414D02*
D03*
X133414D02*
D03*
X128414D02*
D03*
D56*
X140914Y50939D02*
D03*
D57*
X243104Y33040D02*
D03*
X234604D02*
D03*
X243104Y25090D02*
D03*
X234604D02*
D03*
X130994Y270530D02*
D03*
X121994Y270530D02*
D03*
X106164Y42870D02*
D03*
X97664D02*
D03*
X174884Y55570D02*
D03*
X183384D02*
D03*
X97664Y25090D02*
D03*
X106164D02*
D03*
X183384Y73350D02*
D03*
X174884D02*
D03*
X105914Y60650D02*
D03*
X97414D02*
D03*
X174884Y46680D02*
D03*
X183384D02*
D03*
X97414Y78430D02*
D03*
X105914D02*
D03*
X183384Y28900D02*
D03*
X174884D02*
D03*
X97044Y52210D02*
D03*
X106043Y52209D02*
D03*
X106164Y33980D02*
D03*
X97165Y33980D02*
D03*
X174634Y64460D02*
D03*
X183633Y64459D02*
D03*
X106164Y69540D02*
D03*
X97165Y69540D02*
D03*
X174634Y37790D02*
D03*
X183633Y37789D02*
D03*
X275524Y100350D02*
D03*
X267024D02*
D03*
X283534Y100350D02*
D03*
X292034D02*
D03*
X273374Y40660D02*
D03*
X281874Y40660D02*
D03*
X282123Y256559D02*
D03*
X273124Y256560D02*
D03*
X282123Y265449D02*
D03*
X273124Y265450D02*
D03*
X282123Y274339D02*
D03*
X273124Y274340D02*
D03*
X373314Y20340D02*
D03*
X364814D02*
D03*
X193223Y238779D02*
D03*
X184224Y238780D02*
D03*
X184225Y265450D02*
D03*
X193224Y265450D02*
D03*
X193223Y247669D02*
D03*
X184224Y247670D02*
D03*
X193223Y256559D02*
D03*
X184224Y256560D02*
D03*
X185603Y189249D02*
D03*
X176604Y189250D02*
D03*
X185603Y171469D02*
D03*
X176604Y171470D02*
D03*
X185603Y180359D02*
D03*
X176604Y180359D02*
D03*
X385134Y20340D02*
D03*
X233863Y123209D02*
D03*
X224864Y123210D02*
D03*
X233863Y133369D02*
D03*
X224864Y133370D02*
D03*
X233863Y143529D02*
D03*
X224864Y143530D02*
D03*
X364814Y30500D02*
D03*
X373314Y30499D02*
D03*
X393883Y30499D02*
D03*
X384884Y30500D02*
D03*
X220034Y265450D02*
D03*
X228534D02*
D03*
X220034Y256560D02*
D03*
X228534D02*
D03*
X385134Y8910D02*
D03*
X373314D02*
D03*
X364814Y8910D02*
D03*
X204653Y189249D02*
D03*
X195654Y189250D02*
D03*
X195655Y180360D02*
D03*
X204654Y180360D02*
D03*
X204653Y171469D02*
D03*
X195654Y171470D02*
D03*
D58*
X275574Y128290D02*
D03*
Y149290D02*
D03*
X258574D02*
D03*
Y128290D02*
D03*
D59*
X187454Y160480D02*
D03*
Y151980D02*
D03*
X140464Y253041D02*
D03*
X140464Y262040D02*
D03*
X87694Y41020D02*
D03*
X87693Y32020D02*
D03*
X134684Y10430D02*
D03*
X134685Y19429D02*
D03*
X193104Y59960D02*
D03*
X193105Y68959D02*
D03*
X146115Y91820D02*
D03*
X146114Y82820D02*
D03*
X87694Y59960D02*
D03*
X87695Y68959D02*
D03*
X134685Y91820D02*
D03*
X134684Y82820D02*
D03*
X193104Y42290D02*
D03*
X193103Y33290D02*
D03*
X146114Y10430D02*
D03*
X146115Y19429D02*
D03*
X292150Y65950D02*
D03*
X292150Y74949D02*
D03*
X292150Y90880D02*
D03*
X292149Y81880D02*
D03*
X197614Y160480D02*
D03*
Y151980D02*
D03*
X292150Y57860D02*
D03*
X292149Y48860D02*
D03*
X224284Y71719D02*
D03*
X224285Y80719D02*
D03*
X314455Y239469D02*
D03*
X314454Y230469D02*
D03*
X305563Y248250D02*
D03*
X305564Y257250D02*
D03*
X305565Y239469D02*
D03*
X305564Y230469D02*
D03*
X314455Y257249D02*
D03*
X314454Y248249D02*
D03*
X291593Y264760D02*
D03*
X291594Y273760D02*
D03*
X167135Y188669D02*
D03*
X167134Y179670D02*
D03*
X214123Y123790D02*
D03*
X214124Y132789D02*
D03*
X202694Y246840D02*
D03*
Y238340D02*
D03*
X238254Y272630D02*
D03*
Y281130D02*
D03*
X215395Y80719D02*
D03*
X215394Y71720D02*
D03*
X247144Y272630D02*
D03*
Y281130D02*
D03*
X177294Y151980D02*
D03*
Y160480D02*
D03*
X244604Y154130D02*
D03*
Y145630D02*
D03*
X62994Y53800D02*
D03*
Y45300D02*
D03*
Y28790D02*
D03*
Y37290D02*
D03*
X244605Y134059D02*
D03*
X244604Y125060D02*
D03*
D60*
X393634Y20340D02*
D03*
X393634Y8910D02*
D03*
D61*
X379899Y55570D02*
D03*
Y73350D02*
D03*
D62*
X72894Y287150D02*
D03*
Y142150D02*
D03*
D63*
X13294Y287150D02*
D03*
Y142150D02*
D03*
D64*
X41498Y86399D02*
D03*
X41498Y-2D02*
D03*
D65*
X-0Y86401D02*
D03*
X0Y0D02*
D03*
D66*
X36499Y72099D02*
D03*
Y14299D02*
D03*
M02*
